<svg width="195" height="148" viewBox="0 0 195 148" fill="none" xmlns="http://www.w3.org/2000/svg">
<g id="Vector">
<path d="M164.79 103.127C164.715 101.804 164.661 100.474 164.641 99.1508C164.601 96.3559 164.682 93.5476 164.884 90.7527C165.397 79.6543 167.828 68.637 172.709 58.6458C173.951 55.5066 175.409 52.4417 177.117 49.4781C180.351 43.8614 184.395 38.751 189.026 34.228C191.308 32.0002 193.921 29.9412 196.547 28.1252C196.662 28.0442 196.783 27.97 196.905 27.889C198.039 27.0721 199.194 26.2823 200.375 25.5397C203.643 23.4739 201.894 24.4663 206.633 22.495C206.748 22.4478 207.133 22.5423 206.924 22.6976C206.37 23.1364 205.81 23.5684 205.243 23.9937C205.276 24.1422 205.249 24.3178 205.155 24.3853C204.79 24.6486 202.184 26.5455 199.457 28.5168C200.861 27.7269 202.346 27.0789 203.926 26.613C204.027 26.5725 204.122 26.7076 204.183 26.8898C204.743 26.6603 205.533 26.343 206.728 25.8299C207.106 25.6679 207.005 26.6333 206.816 26.7548C205.654 27.5244 204.48 28.2737 203.305 29.0298C203.852 28.8071 204.689 28.4763 206.282 27.7877C206.667 27.6189 206.593 28.6788 206.39 28.8071C205.938 29.0906 205.479 29.3674 205.02 29.6509C205.067 29.8737 205.067 30.1235 204.986 30.1707C204.392 30.542 203.784 30.9133 203.184 31.2779C203.251 31.4196 203.265 31.5614 203.156 31.6289C199.666 33.7689 196.041 35.8279 192.766 38.3122C191.659 39.2371 190.586 40.2025 189.539 41.1881C188.196 42.5383 186.9 43.9424 185.664 45.4074C185.306 45.8327 184.976 46.2647 184.631 46.6968C185.374 45.9069 186.144 45.1306 186.927 44.3812C189.377 41.7822 192.105 39.4396 194.967 37.3199C196.156 36.3613 197.418 35.5039 198.734 34.7343C199.801 33.9174 200.915 33.1749 202.083 32.5065C203.96 31.2171 205.972 30.1842 208.125 29.4079C208.449 29.2594 208.233 30.1235 208.092 30.2045C207.2 30.7243 206.296 31.2509 205.398 31.7707C205.432 31.926 205.418 32.088 205.324 32.142C204.621 32.547 203.913 32.9521 203.21 33.3571C203.217 33.3571 203.217 33.3504 203.224 33.3504C203.44 33.2491 203.751 33.6744 203.467 33.8364C200.47 35.5309 197.533 37.2524 194.718 39.1898C192.753 41.0531 190.782 42.9231 188.817 44.7863C187.534 46.177 186.333 47.6284 185.212 49.1473C185.86 48.479 186.522 47.8107 187.204 47.1693C188.459 45.9812 189.762 44.8605 191.112 43.7872C191.72 43.2673 192.348 42.7678 192.976 42.2682C194.542 40.8303 196.162 39.4734 197.884 38.2042C199.133 37.1984 200.456 36.3005 201.854 35.5039C203.751 34.228 205.762 33.1546 207.889 32.2837C208.233 32.115 208.119 32.7293 207.903 32.8441C205.081 34.3765 202.333 35.9157 199.7 37.6642C201.563 36.503 200.841 36.9823 204.946 34.9301C205.141 34.8356 205 35.2069 204.871 35.2811C203.46 36.017 202.063 36.7798 200.679 37.5831C201.442 37.1916 202.211 36.8136 202.994 36.4558C203.251 36.3275 203.541 36.6313 203.278 36.7663C200.476 38.0827 197.796 39.6152 195.231 41.3569C194.285 42.0049 193.367 42.6868 192.463 43.3821C191.18 44.604 189.972 45.9002 188.851 47.2841C186.009 50.1465 183.538 53.2856 181.418 56.6948C183.551 53.9067 185.853 51.2603 188.412 48.8435C189.999 47.3449 191.686 45.9609 193.421 44.6445C193.529 44.55 193.637 44.4555 193.745 44.3677C197.425 41.3164 201.482 39.0548 205.708 36.8878C205.756 36.8608 205.87 36.8676 205.951 36.8946C206.687 36.53 207.43 36.1857 208.179 35.8549C208.409 35.7402 208.692 36.044 208.476 36.1587C207.045 36.9081 205.648 37.6777 204.27 38.481C204.243 38.5755 204.189 38.6633 204.115 38.697C203.467 39.0346 202.832 39.3789 202.191 39.7232C200.26 40.9248 198.383 42.2075 196.567 43.6319C192.456 46.852 188.628 50.9903 185.394 55.3311C187.467 52.894 189.701 50.5988 192.118 48.4925C193.428 47.3516 194.772 46.2782 196.162 45.2589C197.303 44.3542 198.471 43.4834 199.68 42.6598C202.286 40.7898 205.094 39.2844 208.092 38.1435C208.314 38.0422 208.564 38.4473 208.294 38.5958C207.632 38.9401 206.984 39.2911 206.33 39.6489C206.424 39.8109 206.424 40.0877 206.296 40.162C205.499 40.6075 204.702 41.0598 203.913 41.5054C204.264 41.3704 204.608 41.2286 204.959 41.1071C205.195 41.0058 205.229 41.3434 205.168 41.6336C205.945 41.2961 206.735 40.9856 207.558 40.7358C207.828 40.621 208.065 41.3096 207.822 41.4514C206.14 42.437 204.439 43.4091 202.765 44.4285C202.745 44.4555 202.731 44.4758 202.718 44.4893C203.278 44.2867 204.081 43.9964 205.378 43.4969C205.384 43.4969 205.391 43.4969 205.398 43.4969C206.12 43.2268 206.849 42.9771 207.612 42.788C207.862 42.6935 208.071 43.5104 207.916 43.6049C206.897 44.2192 205.87 44.8268 204.838 45.4344C205.553 45.1913 206.289 44.9888 207.045 44.8403C207.295 44.7525 207.41 45.6099 207.254 45.7044C205.445 46.798 203.663 47.8579 201.914 48.9448C202.448 48.803 203.163 48.6073 204.169 48.3102C204.358 48.2562 204.567 48.5262 204.365 48.6478C203.69 49.0461 203.015 49.4511 202.34 49.8494C202.9 49.6536 203.643 49.5524 206.208 48.857C206.316 48.83 206.681 48.9583 206.458 49.1001C202.292 51.6451 197.918 54.0484 194.157 57.1943C191.052 59.7934 188.203 62.6152 185.604 65.7206C180.061 72.3432 175.673 80.0729 172.871 88.2954C172.067 91.3805 171.46 94.4994 171.014 97.6453C170.947 99.1845 170.873 100.73 170.805 102.27C170.974 104.619 171.149 106.968 171.318 109.318C171.521 110.958 171.77 112.585 172.054 114.205C172.682 116.885 173.404 119.545 174.241 122.178C175.477 126.066 177.144 130.13 179.21 133.654C179.939 134.822 180.668 135.99 181.398 137.165C182.957 139.453 184.733 141.559 186.717 143.483C186.994 143.781 186.609 145.704 186.4 145.482C185.455 144.503 184.51 143.517 183.565 142.538C182.734 141.445 181.904 140.351 181.073 139.251C179.075 136.449 177.516 133.29 176.159 130.137C175.916 129.57 175.7 128.996 175.47 128.429C175.524 128.605 175.571 128.787 175.632 128.962C175.868 129.719 176.132 130.481 176.402 131.251C177.192 133.141 178.076 134.998 179.102 136.773C179.825 137.948 180.547 139.116 181.269 140.29C182.066 141.465 182.917 142.599 183.821 143.686C184.179 144.057 184.537 144.429 184.908 144.793C184.976 144.861 185.016 144.975 185.05 145.104C185.543 145.65 186.049 146.184 186.569 146.704C186.825 146.987 186.603 148.054 186.569 148.378C186.569 148.398 186.555 148.634 186.501 148.81C186.981 149.336 187.474 149.856 187.973 150.363C188.176 150.585 187.636 152.26 187.359 151.963C186.927 151.503 186.508 151.044 186.083 150.585C186.042 150.707 185.982 150.781 185.874 150.666C185.219 149.958 184.577 149.255 183.943 148.54C183.976 148.722 183.997 148.891 184.017 149.026C184.017 149.012 184.017 149.026 184.017 149.046C185.178 150.565 186.427 152.003 187.791 153.36C187.939 153.529 187.501 154.643 187.204 154.319C186.373 153.427 185.556 152.536 184.766 151.625C184.773 151.834 184.76 152.145 184.584 151.963C183.983 151.314 183.389 150.666 182.809 150.012C182.917 150.207 183.031 150.444 183.112 150.653C183.666 151.274 184.233 151.888 184.827 152.482C184.969 152.638 185.111 153.259 185.077 153.461C185.077 153.475 185.07 153.535 185.057 153.603C186.036 154.818 187.075 155.986 188.189 157.086C188.425 157.343 187.852 157.559 187.69 157.39C185.732 155.486 183.997 153.407 182.464 151.152C182.302 150.97 182.14 150.795 181.985 150.612C181.08 149.559 180.243 148.432 179.467 147.264C179.372 147.149 179.278 147.028 179.183 146.913C179.649 147.892 180.149 148.857 180.689 149.802C180.79 149.991 180.898 150.174 181.006 150.356C181.472 150.903 181.951 151.449 182.451 151.996C182.619 152.179 183.18 152.813 183.133 153.07C183.112 153.191 183.092 153.461 182.876 153.232C182.761 153.11 182.653 152.989 182.538 152.867C184.112 155.243 185.907 157.437 187.939 159.449C188.243 159.78 187.987 160.064 187.669 159.719C186.63 158.7 185.651 157.633 184.726 156.519C184.658 156.594 184.523 156.587 184.388 156.438C184.037 156.06 183.679 155.675 183.322 155.291C183.22 155.318 183.079 155.196 182.944 155.061C183.767 156.081 184.625 157.086 185.556 158.092C185.718 158.268 185.583 158.403 185.421 158.227C184.503 157.221 183.45 156.141 182.566 155.108C181.573 153.941 180.965 153.124 180.405 152.266C180.263 152.111 180.128 151.956 179.993 151.794L182.032 155.405C183.585 157.701 185.347 159.82 187.325 161.758C187.501 161.947 187.737 163.257 187.339 162.825C186.873 162.318 186.414 161.819 185.955 161.312C185.907 161.515 185.82 161.657 185.712 161.542C185.178 160.961 184.577 160.34 183.997 159.712C183.976 159.74 183.949 159.766 183.916 159.794C184.955 161.096 186.076 162.352 187.278 163.54C187.521 163.803 187.595 164.371 187.629 164.708C187.622 164.661 187.696 165.437 187.453 165.174C186.636 164.29 185.732 163.378 184.928 162.453C184.895 162.683 184.814 162.96 184.712 163.169C185.374 163.918 186.056 164.654 186.771 165.363C187.035 165.646 187.021 166.47 187.021 166.821C187.021 166.787 187.069 167.631 186.805 167.354C186.265 166.774 185.739 166.193 185.219 165.606C185.124 165.917 185.016 166.126 184.928 166.031C183.038 163.999 181.249 161.981 179.656 159.706C177.981 157.316 176.618 154.676 175.423 152.003C175.781 153.036 176.186 154.055 176.624 155.054C176.827 155.426 177.03 155.804 177.246 156.168C177.975 157.343 178.697 158.511 179.426 159.685C181.019 162.015 182.815 164.175 184.827 166.153C185.016 166.362 184.881 167.105 184.8 167.537C185.252 168.036 185.718 168.522 186.198 169.002C186.447 169.278 186.366 170.17 186.346 170.494C186.346 170.487 186.353 171.29 186.096 171.013C185.529 170.406 184.976 169.805 184.429 169.191C184.355 169.839 184.091 170.676 183.943 170.514C182.046 168.489 180.236 166.477 178.623 164.209C176.624 161.407 175.065 158.248 173.708 155.088C173.202 153.907 172.722 152.705 172.277 151.49C170.434 147.358 169.043 143.045 167.929 138.65C164.965 127.14 163.73 115.022 164.79 103.127ZM179.433 56.985C179.089 57.4711 178.744 57.9572 178.414 58.45C176.273 61.6161 174.437 64.9375 172.857 68.3805C172.567 69.1298 172.29 69.8791 172.02 70.6352C171.71 71.6884 171.426 72.7415 171.183 73.7676C171.156 73.9229 171.122 74.0782 171.095 74.2334C173.073 68.34 175.74 62.6895 179.17 57.4644C179.251 57.3023 179.345 57.1471 179.433 56.985ZM165.802 99.6773C165.796 100.548 165.802 101.426 165.829 102.297C165.856 102.627 165.877 102.951 165.904 103.282C165.931 102.209 165.971 101.129 166.032 100.055C165.998 99.5963 165.971 99.144 165.944 98.685C165.897 99.0225 165.85 99.3533 165.802 99.6773ZM169.826 93.1223C169.853 92.4809 169.873 91.8464 169.914 91.205C169.826 91.5966 169.732 91.9881 169.644 92.3797C169.536 93.8176 169.421 95.2623 169.313 96.707C169.367 97.4968 169.435 98.2799 169.509 99.063C169.543 98.8672 169.57 98.6782 169.603 98.4824C169.624 96.6935 169.698 94.9112 169.826 93.1223ZM168.942 109.061C168.942 108.899 168.948 108.737 168.955 108.575C168.942 108.48 168.935 108.386 168.921 108.291C168.915 108.467 168.908 108.642 168.901 108.818C168.915 108.906 168.928 108.98 168.942 109.061ZM168.564 105.989C168.564 106.016 168.57 106.05 168.577 106.077C168.597 105.902 168.611 105.726 168.631 105.544C168.624 105.443 168.611 105.341 168.604 105.247C168.584 105.497 168.57 105.74 168.564 105.989ZM168.874 101.817C168.874 101.824 168.874 101.838 168.874 101.844C168.894 102.148 168.921 102.459 168.948 102.762L168.948 102.756C168.921 102.445 168.901 102.128 168.874 101.817ZM168.881 111.64C168.894 112.241 168.915 112.841 168.942 113.442C168.928 112.949 168.935 112.45 168.935 111.957C168.915 111.849 168.901 111.748 168.881 111.64ZM167.848 91.178C167.909 91.9274 167.983 92.6835 168.078 93.4328C168.111 93.2235 168.145 93.0142 168.179 92.7982C168.246 90.3949 168.402 87.9984 168.658 85.6221C168.469 86.6752 168.3 87.7283 168.145 88.7815C168.037 89.5781 167.936 90.3747 167.848 91.178ZM169.475 114.711C169.509 116.075 169.57 117.432 169.657 118.796L169.921 120.504C169.975 120.747 170.029 120.99 170.083 121.226C169.853 119.201 169.678 117.175 169.57 115.15C169.536 115.008 169.502 114.86 169.475 114.711ZM166.768 100.845C166.734 100.251 166.714 99.6638 166.694 99.0697C166.653 99.6031 166.613 100.13 166.586 100.663C166.633 101.426 166.7 102.182 166.775 102.938C166.768 102.236 166.761 101.541 166.768 100.845ZM171.075 87.1478C170.852 88.8962 170.683 90.6447 170.562 92.4067C170.805 90.1789 171.136 87.9646 171.554 85.7706C171.386 86.2297 171.23 86.6887 171.075 87.1478ZM168.145 115.508C168.138 115.488 168.138 115.468 168.132 115.441C168.138 115.474 168.138 115.508 168.145 115.542C168.145 115.528 168.145 115.515 168.145 115.508ZM166.532 107.069C166.565 106.718 166.599 106.367 166.633 106.016C166.579 105.611 166.525 105.2 166.478 104.794C166.478 105.416 166.484 106.037 166.505 106.658C166.511 106.793 166.518 106.934 166.532 107.069ZM168.111 84.1436C168.091 84.2652 168.078 84.3934 168.057 84.5149C168.402 82.1724 168.834 79.8501 169.367 77.5481C168.766 79.7151 168.348 81.9091 168.111 84.1436ZM167.693 87.1883C167.699 87.1478 167.713 87.1005 167.72 87.06C167.794 86.4254 167.875 85.7976 167.963 85.1698C167.862 85.8381 167.767 86.5064 167.693 87.1883ZM168.267 119.667C168.226 119.437 168.192 119.207 168.152 118.978C168.186 119.43 168.226 119.883 168.273 120.335C168.287 120.382 168.294 120.436 168.307 120.483C168.294 120.213 168.28 119.943 168.267 119.667ZM166.525 90.5907C166.518 91.0362 166.511 91.4751 166.511 91.9206C166.606 91.4818 166.714 91.0498 166.815 90.6177C166.842 90.1586 166.869 89.6996 166.91 89.2473C166.916 88.7207 166.937 88.2009 166.957 87.6743C166.808 88.5452 166.667 89.4228 166.545 90.2937C166.532 90.3882 166.525 90.4894 166.525 90.5907ZM171.359 67.2261C171.453 66.8413 171.561 66.4565 171.662 66.0717C171.217 67.118 170.805 68.1712 170.413 69.2311C170.319 69.5956 170.231 69.9602 170.137 70.3314C170.521 69.2851 170.927 68.2522 171.359 67.2261ZM170.103 86.4254C170.083 86.6482 170.069 86.871 170.049 87.0938C170.164 86.5537 170.285 86.0069 170.413 85.4668C170.474 85.001 170.542 84.5352 170.609 84.0626C170.454 84.596 170.305 85.1293 170.157 85.6626C170.143 85.9191 170.123 86.1757 170.103 86.4254ZM173.796 76.765C173.823 76.684 173.843 76.603 173.87 76.522C173.769 76.7785 173.674 77.0283 173.58 77.2848C173.654 77.1093 173.722 76.9338 173.796 76.765ZM176.739 70.6217C176.8 70.5137 176.861 70.4125 176.915 70.3044C177.887 68.1509 178.96 66.0447 180.149 63.9924C180.041 64.1477 179.939 64.303 179.831 64.4582C179.345 65.2548 178.866 66.0582 178.407 66.8683C177.819 68.1037 177.266 69.3593 176.739 70.6217ZM170.798 120.321C170.846 120.787 170.9 121.253 170.954 121.719C171.217 123.974 171.588 126.215 172.04 128.436C172.074 128.544 172.108 128.645 172.142 128.753C172.317 129.239 172.5 129.719 172.689 130.198L173.121 131.21C172.344 128.092 171.696 124.932 171.19 121.746C171.055 121.273 170.927 120.801 170.798 120.321ZM171.068 130.238C171.095 130.292 171.116 130.34 171.143 130.394C171.048 130.029 170.954 129.665 170.859 129.3C170.927 129.617 170.994 129.928 171.068 130.238ZM170.67 130.697C170.643 130.596 170.616 130.488 170.589 130.387C170.245 129.408 169.921 128.416 169.617 127.416C169.63 127.693 169.657 127.97 169.671 128.247C170.076 129.651 170.501 131.028 170.96 132.365C170.852 131.811 170.765 131.251 170.67 130.697ZM170.488 81.6121C170.913 79.9649 171.392 78.3312 171.926 76.711C171.473 77.7169 171.041 78.7295 170.636 79.7489C170.582 80.3699 170.535 80.991 170.488 81.6121ZM170.359 83.1783C170.359 83.1985 170.359 83.212 170.353 83.2323C170.609 82.3479 170.886 81.4703 171.176 80.5995C171.284 80.0054 171.392 79.4113 171.514 78.8172C171.089 80.2552 170.704 81.7133 170.359 83.1783ZM174.025 131.967C173.789 131.116 173.566 130.259 173.35 129.395C173.721 131.035 174.12 132.669 174.559 134.289C174.592 134.417 174.633 134.539 174.667 134.66L174.997 135.254C174.66 134.167 174.329 133.074 174.025 131.967ZM176.793 138.461C176.814 138.495 176.834 138.528 176.854 138.562C176.76 138.333 176.665 138.11 176.577 137.88C176.645 138.076 176.726 138.272 176.793 138.461ZM171.001 127.565C170.785 126.775 170.575 125.979 170.373 125.175C170.697 127.086 171.095 128.976 171.588 130.846C171.642 131.075 171.71 131.305 171.764 131.534C171.487 130.218 171.237 128.895 171.001 127.565ZM170.751 78.2367C171.379 76.7042 172.061 75.192 172.79 73.7001C173.215 72.1879 173.674 70.6892 174.174 69.2041C172.878 71.9449 171.757 74.7465 170.805 77.6021C170.785 77.8114 170.771 78.0206 170.751 78.2367ZM190.255 52.5025C189.371 53.2856 188.486 54.0687 187.595 54.845C186.103 56.6475 184.712 58.5242 183.443 60.3942C183.301 60.6035 183.166 60.8195 183.031 61.0288C183.416 60.536 183.814 60.0499 184.22 59.5639C185.995 57.2146 187.919 54.9801 189.978 52.8738C190.255 52.597 190.539 52.327 190.815 52.0502C190.633 52.2055 190.444 52.3472 190.255 52.5025ZM172.324 132.027C172.277 131.872 172.223 131.717 172.175 131.562C172.297 132.162 172.425 132.763 172.554 133.357C172.608 133.472 172.662 133.587 172.716 133.695C172.581 133.141 172.446 132.581 172.324 132.027ZM174.255 141.33C174.228 141.283 174.208 141.235 174.181 141.188C174.241 141.364 174.309 141.546 174.37 141.722C174.343 141.634 174.316 141.553 174.289 141.465C174.282 141.418 174.268 141.37 174.255 141.33ZM172.722 138.191C172.709 138.157 172.689 138.117 172.675 138.083C172.729 138.285 172.783 138.481 172.837 138.684C172.878 138.792 172.932 138.9 172.972 139.008C172.884 138.738 172.803 138.461 172.722 138.191ZM172.506 139.413C171.865 137.914 171.284 136.395 170.744 134.863C170.852 135.268 170.96 135.666 171.068 136.064C171.777 138.468 172.56 140.864 173.519 143.186C173.195 142.073 172.891 140.959 172.608 139.838C172.574 139.696 172.547 139.554 172.506 139.413ZM177.043 61.8321C174.822 65.6869 173.026 69.7779 171.602 74.0039C172.668 71.3238 173.884 68.7112 175.254 66.1662C175.814 64.708 176.408 63.2633 177.043 61.8321ZM174.991 71.1956C175.713 69.7171 176.489 68.2522 177.32 66.821C176.712 67.7391 176.118 68.6707 175.551 69.6361C175.362 70.1559 175.173 70.6757 174.991 71.1956ZM178.906 145.07C178.326 144.186 177.779 143.274 177.259 142.343C177.306 142.43 177.347 142.518 177.394 142.606C177.921 143.558 178.474 144.483 179.062 145.387C179.008 145.286 178.96 145.178 178.906 145.07ZM173.971 138.474C173.857 138.245 173.742 138.015 173.634 137.786C173.931 138.616 174.228 139.453 174.532 140.284C174.336 139.683 174.147 139.075 173.971 138.474ZM176.408 145.59C176.125 145.056 175.848 144.523 175.578 143.983C175.801 144.564 176.03 145.137 176.26 145.718C176.469 146.076 176.678 146.434 176.895 146.785C176.732 146.386 176.57 145.988 176.408 145.59ZM174.606 143.794C174.349 143.315 174.1 142.829 173.863 142.343C174.356 143.97 174.883 145.583 175.47 147.176C176.084 148.263 176.699 149.35 177.306 150.437C177.516 150.761 177.718 151.085 177.927 151.402C177.968 151.463 178.015 151.524 178.056 151.584C177.806 151.051 177.57 150.518 177.34 149.978C176.307 147.973 175.403 145.907 174.606 143.794ZM181.499 157.856C180.729 156.985 179.98 156.101 179.271 155.176C179.379 155.372 179.494 155.567 179.602 155.756C180.702 157.383 181.917 158.916 183.234 160.367C182.626 159.55 182.052 158.707 181.499 157.856ZM170.312 137.462C170.569 138.67 170.859 139.865 171.183 141.053C170.954 140.088 170.744 139.109 170.535 138.137C170.461 137.907 170.386 137.685 170.312 137.462ZM172.013 147.25C171.075 144.435 170.292 141.573 169.597 138.684C168.726 135.038 168.037 131.339 167.537 127.612C167.517 127.531 167.497 127.443 167.477 127.362C167.733 129.421 168.044 131.474 168.442 133.512C169.266 137.691 170.231 141.87 171.5 145.941C171.669 146.373 171.845 146.812 172.013 147.25ZM167.018 128.956C166.707 126.471 166.464 123.987 166.322 121.483C165.964 119.363 165.667 117.229 165.431 115.083C165.478 116.865 165.613 118.64 165.843 120.409C166.086 123.285 166.478 126.127 167.018 128.956ZM186.211 46.7103C185.691 47.2908 185.165 47.8647 184.665 48.4655C181.843 51.8207 179.332 55.4594 177.165 59.2938C178.562 57.1471 180.068 55.0746 181.688 53.0966C183.072 50.889 184.584 48.749 186.211 46.7103ZM184.24 52.0164C182.869 53.6366 181.499 55.2636 180.128 56.8838C179.757 57.9234 179.379 58.963 179.008 60.0094C179.244 59.6651 179.487 59.3276 179.723 58.99C180.655 57.3496 181.647 55.7429 182.707 54.17C183.2 53.4341 183.713 52.7253 184.24 52.0164ZM182.154 56.5665C181.303 57.5386 180.513 58.5445 179.75 59.5841C179.217 60.5832 178.697 61.5959 178.218 62.6355C179.804 59.9149 181.573 57.2888 183.531 54.7843C184.422 53.6501 185.354 52.5565 186.312 51.4899C184.814 53.0831 183.43 54.7708 182.154 56.5665ZM192.274 46.5955C193.354 45.5694 194.475 44.5905 195.629 43.6521C194.414 44.469 193.219 45.3264 192.051 46.2647C191.747 46.501 191.457 46.744 191.16 46.9803C187.946 49.8494 185.077 53.0493 182.383 56.7488C180.52 59.3006 178.825 61.9604 177.32 64.7283C177.043 65.4911 176.773 66.2539 176.496 67.0168C177.88 64.816 179.392 62.703 181.013 60.6642C181.62 59.6584 182.241 58.666 182.903 57.6871C185.617 53.6771 188.743 49.9304 192.274 46.5955ZM190.296 58.558C192.429 56.499 194.785 54.6358 197.249 52.9683C195.433 54.1362 193.658 55.3648 192.004 56.7488C190.998 57.5859 190.026 58.4635 189.074 59.3478C187.69 60.833 186.353 62.3655 185.077 63.9519C184.132 65.1333 183.227 66.3552 182.376 67.6041C184.746 64.3705 187.399 61.3461 190.296 58.558ZM181.519 148.553C181.533 148.574 181.546 148.601 181.56 148.621C181.6 148.661 181.634 148.702 181.674 148.742C181.62 148.682 181.573 148.614 181.519 148.553ZM177.691 144.982C177.671 144.948 177.644 144.921 177.624 144.888C176.429 143.2 175.754 141.958 174.977 140.452C175.301 141.465 175.652 142.478 176.024 143.477C176.982 145.07 178.049 146.643 179.244 148.196C178.69 147.149 178.171 146.076 177.691 144.982ZM182.262 153.272C181.749 152.53 181.269 151.767 180.803 150.99C179.663 149.715 178.582 148.398 177.61 146.967C179.244 149.769 181.161 152.388 183.376 154.832C182.991 154.319 182.62 153.806 182.262 153.272ZM177.279 148.27C177.266 148.25 177.259 148.236 177.246 148.216C177.333 148.439 177.421 148.661 177.509 148.891L178.501 150.835C179.203 152.098 179.966 153.319 180.783 154.501C180.439 153.927 180.101 153.346 179.798 152.8C179.176 151.686 178.609 150.545 178.062 149.39C177.806 149.046 177.549 148.675 177.279 148.27Z" fill="#AFECDB"/>
<path d="M7.62976 19.9094C9.14201 18.7077 11.0593 17.9179 13.375 17.5466C12.4366 17.8571 11.4982 18.1879 10.5867 18.5525C9.56734 18.9643 8.58842 19.4301 7.62976 19.9094Z" fill="#AFECDB"/>
<path d="M0.601852 30.893C1.08118 30.6095 1.56052 30.3327 2.03986 30.0559C1.99934 29.7994 1.96561 29.5496 1.92509 29.2931C1.77657 29.4619 1.20947 29.4551 1.16896 29.2053C0.939422 27.6324 0.716629 26.0594 0.487091 24.4865C0.473587 24.4257 0.493851 24.3717 0.534347 24.3245C0.716629 24.2165 0.898926 24.1152 1.08121 24.0072C1.0677 23.9059 1.04744 23.8046 1.03394 23.7034C1.00694 23.6291 0.986709 23.5549 0.979965 23.5144C0.736923 21.9279 0.493866 20.3415 0.257568 18.7483C0.23732 18.6605 0.257553 18.593 0.325073 18.5458C0.43309 18.485 0.541092 18.4242 0.649109 18.3567C0.547836 17.6884 0.43985 17.0133 0.338577 16.345C0.311584 16.2437 0.345337 16.1627 0.419601 16.1087C0.790909 15.8927 1.16895 15.6766 1.54027 15.4606C1.52676 15.3594 1.5065 15.2581 1.493 15.1501C1.45924 14.9543 1.24324 14.151 1.52003 13.9889C1.82384 13.8134 2.12086 13.6379 2.42467 13.4624C2.41792 13.4421 2.41794 13.4151 2.41119 13.3949C2.33017 12.9898 2.00609 11.4844 2.41791 11.2413C2.94449 10.9308 3.47112 10.6203 3.9977 10.3097C4.03146 10.141 4.08546 10.0195 4.15973 9.97895C5.42218 9.22961 6.91418 8.25748 8.2104 7.57565C11.6062 5.79343 15.2316 4.50402 18.9245 3.4914C24.9262 1.85769 31.09 1.06785 37.2808 0.61554C67.1682 -1.56498 97.6428 2.08722 126.261 10.9443C138.656 14.7788 150.828 19.5381 162.346 25.5329C168.422 28.699 174.248 32.2499 179.757 36.3274C195.683 48.1212 208.233 64.2894 217.712 81.585C222.525 90.3746 226.576 100.089 227.852 110.148C229.128 115.218 229.823 120.416 229.709 125.702C229.979 128.294 230.08 130.9 229.931 133.506C229.904 133.945 229.871 134.383 229.837 134.829C229.79 137.084 229.621 139.338 229.283 141.566C229.088 146.001 228.331 150.396 226.893 154.589C226.779 154.973 226.664 155.358 226.542 155.743C225.753 159.172 224.578 162.514 222.931 165.694C219.602 172.12 214.343 177.886 206.795 178.858C204.034 179.209 201.253 178.885 198.579 178.162C196.891 177.859 195.231 177.379 193.624 176.785C189.674 175.307 186.866 173.012 183.902 170.088C183.72 169.906 184.024 169.744 184.179 169.812C184.8 169.987 185.381 170.23 185.941 170.527C185.867 170.372 186.144 170.291 186.279 170.352C186.771 170.534 187.244 170.75 187.71 170.98C186.67 170.129 185.718 169.211 184.746 168.266C183.909 167.543 183.106 166.767 182.282 165.957C182.154 165.829 182.417 165.12 182.646 165.248C184.557 166.315 186.339 167.557 188.203 168.664C187.163 167.834 186.164 166.936 185.151 165.964C184.989 165.808 185.016 164.762 185.374 164.985C187.676 166.409 189.958 167.874 192.22 169.366C193.266 169.933 194.36 170.406 195.48 170.784C194.718 170.413 193.968 170.028 193.239 169.596C192.989 169.447 192.753 169.285 192.517 169.13C191.301 168.563 190.106 167.908 189.013 167.172C187.413 166.099 186.042 164.762 184.658 163.439C184.496 163.284 184.625 162.386 184.962 162.622C185.765 163.189 186.569 163.763 187.379 164.323C187.42 164.262 187.494 164.242 187.609 164.323C188.682 165.073 189.735 165.829 190.809 166.558C191.97 167.246 193.171 167.881 194.427 168.408C195.42 168.819 196.439 169.157 197.479 169.42C197.33 169.366 197.182 169.319 197.04 169.258C194.198 168.117 191.747 166.497 189.438 164.607C189.134 164.384 188.831 164.168 188.54 163.932C186.859 162.825 185.286 161.542 183.774 160.124C183.585 159.942 183.848 159.537 184.071 159.706C184.658 160.171 185.259 160.624 185.86 161.083C185.921 161.009 186.002 160.982 186.123 161.076C187.129 161.866 188.135 162.636 189.168 163.378C190.64 164.141 192.118 164.911 193.59 165.673C195.946 166.679 198.485 167.206 201.03 167.395C199.835 167.105 198.667 166.727 197.519 166.268C197.013 166.065 196.513 165.842 196.027 165.606C194.697 165.309 193.381 164.904 192.098 164.384C188.56 162.96 185.597 160.82 182.808 158.268C182.586 158.065 182.889 157.734 183.092 157.896C186.177 160.367 189.114 162.487 192.726 164.006C193.097 164.161 193.475 164.31 193.86 164.445C192.881 163.864 191.936 163.223 191.018 162.541C189.06 161.353 187.217 159.976 185.529 158.504C185.36 158.356 185.745 158.288 185.826 158.356C186.798 159.199 187.764 160.003 188.763 160.752C188.466 160.502 188.169 160.253 187.872 159.996C187.622 159.78 187.906 159.517 188.142 159.726C189.823 161.191 191.592 162.514 193.475 163.655C193.59 163.709 193.705 163.77 193.82 163.824C195.501 164.6 197.236 165.208 199.018 165.599C200.726 165.768 202.461 165.741 204.162 165.464C202.785 165.349 201.415 165.1 200.071 164.695C199.605 164.553 199.139 164.404 198.68 164.242C193.354 163.176 188.695 160.32 184.584 156.715C184.53 156.668 184.55 156.6 184.591 156.54C184.064 156.101 183.544 155.655 183.025 155.203C182.754 154.967 183.031 154.703 183.288 154.926C185.516 156.884 188.041 158.646 190.741 159.989C189.796 159.253 188.891 158.464 187.993 157.633C187.852 157.505 187.973 157.309 188.128 157.282C186.164 156.067 184.537 154.71 182.808 153.103C182.721 153.022 182.457 152.739 182.505 152.604C182.532 152.523 182.646 152.347 182.761 152.449C184.179 153.664 185.63 154.771 187.163 155.763C186.333 155.122 185.576 154.4 184.888 153.589C184.753 153.461 184.753 153.009 184.915 152.935C184.537 152.597 184.192 152.192 182.829 150.849C182.673 150.693 182.498 149.816 182.862 150.126C183.403 150.585 183.949 151.024 184.503 151.449C184.436 151.159 184.442 150.579 184.665 150.761C187.089 152.732 189.695 154.521 192.476 155.864C191.923 155.52 191.382 155.162 190.849 154.778C190.079 154.224 189.762 154.015 189.526 153.805C188.743 153.373 187.987 152.881 187.284 152.327C185.901 151.443 184.726 150.315 183.76 148.952C183.652 148.837 183.551 147.851 183.828 148.074C184.523 148.628 185.232 149.168 185.961 149.687C185.988 149.39 186.09 149.114 186.272 149.255C188.378 150.896 190.694 152.489 193.158 153.792C193.253 153.832 193.347 153.866 193.442 153.907C193.03 153.684 192.618 153.448 192.22 153.211C191.349 152.746 190.532 152.199 189.755 151.584C188.378 150.741 187.278 149.606 186.447 148.182C186.414 148.141 186.393 148.061 186.387 147.959C185.752 147.325 185.192 146.609 184.719 145.792C184.557 145.603 184.658 145.016 184.989 145.266C188.77 148.169 193.198 150.93 197.945 152.131C195.933 151.497 194.015 150.531 192.22 149.458C191.349 148.992 190.525 148.445 189.755 147.824C188.304 146.933 187.197 145.698 186.434 144.118C186.285 143.922 186.63 143.868 186.751 143.956C192.382 148.229 198.626 151.719 205.891 151.335C208.902 151.173 211.805 150.275 214.343 148.702C214.64 148.466 214.93 148.229 215.221 147.966C217.266 146.137 218.995 143.801 220.399 141.451C220.703 140.938 220.986 140.412 221.27 139.885C221.904 138.144 222.424 136.375 222.829 134.606C222.978 133.999 223.099 133.391 223.214 132.783C222.505 127.815 221.283 122.968 219.575 118.249C217.03 112.254 213.931 106.523 210.454 101.021C206.836 95.296 202.994 89.7265 198.728 84.4609C194.495 79.2357 189.85 74.2266 184.834 69.7441C178.042 63.6751 170.609 58.7065 162.717 54.2847C155.169 50.0519 147.189 46.6765 139.135 43.5711C127.328 39.021 115.189 35.2541 102.787 32.682C99.7964 32.0677 96.7922 31.5141 93.7811 31.0348C82.9388 29.3133 72.029 28.1522 61.0516 27.8146C52.2414 27.5446 43.2758 27.6864 34.4858 28.4695C29.841 28.8813 25.2233 29.5361 20.673 30.569C17.6755 31.2643 14.7455 32.1824 11.8898 33.3301C9.98596 34.0929 8.15639 34.9975 6.38757 36.0102C6.40784 36.1249 6.42136 36.2397 6.4416 36.3477C6.48212 36.638 6.30659 36.5165 6.19858 36.4827C6.13782 36.4625 6.07706 36.3545 6.02304 36.2059C5.84752 36.3072 5.67195 36.4085 5.49643 36.5165C5.53018 36.7392 5.57072 36.962 5.60448 37.1916C5.63148 37.3671 5.92851 38.5282 5.71248 38.6565C5.44917 38.8118 5.40868 38.3932 5.37492 38.1974C5.2939 37.7114 5.21291 37.2253 5.13188 36.746C4.81459 36.9418 4.50403 37.1375 4.19347 37.3401C4.4095 38.4067 4.63231 39.4733 4.84834 40.54C4.92261 40.8978 5.11162 41.8969 4.90909 42.2142C4.81457 42.3627 4.68632 42.6057 4.60532 42.2277C4.27451 40.6142 3.93692 38.994 3.60612 37.3806C3.55211 37.124 3.43736 36.476 3.46437 35.9764C3.3631 36.0372 3.26184 36.0912 3.16733 36.1519C3.25508 36.6717 3.34956 37.1916 3.43733 37.7046C3.49809 38.0557 3.46436 39.2236 3.23482 39.5003C3.08629 39.6826 2.99852 39.8514 2.93101 39.4666C2.77574 38.5012 2.62721 37.5426 2.47194 36.5772C2.41118 36.611 2.35716 36.6515 2.2964 36.6852C2.52594 37.8126 2.75549 38.9468 2.97827 40.0742C3.03903 40.3847 2.97827 41.5053 2.769 41.7484C2.61371 41.9239 2.53944 42.0589 2.47194 41.7079C2.14113 40.0944 1.80357 38.4742 1.47276 36.8608C1.45927 36.8068 1.45926 36.6785 1.45926 36.53C1.37149 36.746 1.25674 36.9553 1.18248 37.1038C1.21623 37.043 0.817901 37.8126 0.757141 37.4346C0.507355 35.8346 0.257583 34.2347 0.00779705 32.628C-0.0529634 32.2769 0.250793 31.0956 0.601852 30.893ZM199.396 163.918C199.497 163.945 199.592 163.965 199.693 163.992C202.36 164.472 205.135 164.249 207.747 163.601C209.766 163.101 211.562 162.203 213.175 161.042C213.364 160.867 213.553 160.685 213.742 160.502C211.899 161.427 209.901 162.055 207.761 162.291C205.675 163.074 203.433 163.473 201.07 163.358C199.288 163.27 197.526 162.987 195.811 162.534C196.23 162.75 196.648 162.946 197.08 163.122C197.85 163.392 198.626 163.655 199.396 163.918ZM215.248 164.755C216.011 164.148 216.74 163.486 217.422 162.771C217.752 162.278 218.076 161.785 218.387 161.285C218.475 161.15 218.549 161.002 218.63 160.867C217.266 162.089 215.761 163.149 214.08 163.925C213.762 164.073 213.438 164.208 213.108 164.33C211.474 165.579 209.665 166.578 207.72 167.246C207.896 167.253 208.071 167.253 208.254 167.26C210.117 167.118 211.838 166.551 213.425 165.565C214.066 165.349 214.667 165.073 215.248 164.755ZM206.383 169.737C206.714 169.737 207.045 169.724 207.376 169.704C208.26 169.488 209.118 169.197 209.941 168.84C208.807 169.224 207.626 169.501 206.397 169.636C205.85 169.697 205.297 169.731 204.743 169.737C205.283 169.764 205.83 169.764 206.383 169.737ZM206.41 171.263C205.546 171.425 204.682 171.513 203.818 171.56C204.675 171.628 205.546 171.648 206.417 171.607C206.552 171.601 206.681 171.587 206.816 171.574C207.477 171.351 208.132 171.101 208.76 170.804C208.443 170.851 208.119 170.905 207.801 170.939C207.349 171.061 206.89 171.169 206.41 171.263ZM197.074 175.928C197.452 176.049 197.837 176.171 198.228 176.279C199.504 176.536 200.8 176.684 202.103 176.671C205.067 176.637 207.808 176.083 210.407 174.787C209.989 174.915 209.563 175.03 209.124 175.125C207.862 175.617 206.525 175.982 205.108 176.164C201.408 176.637 197.553 175.921 194.103 174.571C193.165 174.2 192.172 173.768 191.22 173.275C193.057 174.429 195.008 175.32 197.074 175.928ZM2.49896 28.7868C2.52597 28.7125 2.55969 28.6585 2.6002 28.6315C2.96477 28.4155 3.3226 28.2062 3.68042 27.9969C3.65341 27.8349 3.62637 27.6796 3.60612 27.5176C3.59262 27.6054 3.57236 27.6864 3.55885 27.7741C3.61287 28.0847 3.11331 27.8416 3.0728 27.5851C3.04579 27.4163 3.0188 27.2476 2.99853 27.0788C2.79601 27.4501 2.60022 27.8349 2.40443 28.2264C2.4382 28.4087 2.47195 28.5977 2.49896 28.7868ZM3.6669 27.1868C3.6804 27.1733 3.68716 27.1666 3.70741 27.1531C3.70741 27.1531 3.71416 27.1531 3.71416 27.1463C3.70741 27.1058 3.70065 27.0653 3.69389 27.0248C3.68039 27.0788 3.67364 27.1328 3.6669 27.1868ZM224.139 148.769C224.315 148.297 224.47 147.817 224.618 147.338C224.679 146.872 224.74 146.407 224.801 145.941C224.639 146.265 224.49 146.596 224.321 146.913C224.078 147.365 223.828 147.817 223.565 148.263C223.39 149.12 223.194 149.971 222.978 150.815C223.383 150.153 223.774 149.471 224.139 148.769ZM223.329 156.074C223.41 155.878 223.498 155.682 223.572 155.486C223.599 155.257 223.633 155.021 223.66 154.791C223.633 154.838 223.606 154.879 223.579 154.926C222.991 156.209 222.343 157.464 221.621 158.686C222.235 157.842 222.802 156.972 223.329 156.074ZM228.21 138.981C228.068 139.575 227.92 140.169 227.751 140.756C227.764 140.965 227.778 141.175 227.785 141.391C227.812 142.039 227.818 142.68 227.825 143.328C227.94 142.869 228.061 142.417 228.163 141.951C228.217 140.959 228.23 139.966 228.21 138.981ZM227.623 117.702C227.636 117.817 227.643 117.925 227.65 118.04C227.67 118.114 227.69 118.195 227.717 118.269C227.71 118.181 227.704 118.094 227.697 118.006C227.67 117.905 227.643 117.803 227.623 117.702ZM227.332 142.187C227.278 142.37 227.217 142.545 227.157 142.721C227.001 143.787 226.806 144.84 226.576 145.893C226.509 146.454 226.428 147.014 226.34 147.568C226.549 147.149 226.765 146.724 226.974 146.305C227.103 145.907 227.218 145.509 227.332 145.11C227.359 144.132 227.359 143.159 227.332 142.187ZM227.69 138.987C227.778 138.609 227.845 138.231 227.92 137.853C227.825 138.184 227.731 138.515 227.629 138.839C227.636 138.933 227.65 139.035 227.656 139.129C227.663 139.089 227.677 139.035 227.69 138.987ZM225.32 110.053C224.875 108.804 224.402 107.569 223.896 106.34C223.234 104.734 222.525 103.154 221.79 101.588C221.972 102.128 222.154 102.668 222.323 103.215C222.559 103.876 222.796 104.538 223.012 105.206C223.943 107.245 224.794 109.311 225.55 111.41C225.482 110.958 225.395 110.506 225.32 110.053ZM226.63 120.672C226.63 120.855 226.623 121.037 226.623 121.219C226.711 121.523 226.799 121.827 226.887 122.124C226.893 121.989 226.9 121.861 226.907 121.725C226.812 121.381 226.725 121.023 226.63 120.672ZM174.829 40.999C172.405 39.4328 169.941 37.9409 167.429 36.5232C172.945 39.8176 178.218 43.4901 183.139 47.6486C185.117 49.3228 187.028 51.0645 188.878 52.867C189.526 53.4476 190.16 54.0416 190.802 54.6357C187.379 51.0713 183.747 47.7094 179.845 44.685C178.197 43.4158 176.523 42.1872 174.829 40.999ZM227.373 132.945C227.359 133.816 227.326 134.687 227.265 135.565C227.305 135.868 227.339 136.172 227.38 136.476C227.427 135.301 227.413 134.12 227.373 132.945ZM11.0189 20.6655C12.5987 19.9094 14.2257 19.2546 15.9 18.7213C18.1008 17.9382 20.3219 17.2968 22.5971 16.7365C22.6646 16.723 22.7321 16.7095 22.8064 16.6893C21.1253 16.9661 19.4511 17.2901 17.7903 17.6749C13.321 18.0192 9.64842 19.5314 6.75218 22.2047C6.69817 22.4545 6.59686 22.711 6.50911 22.9203C7.96735 22.0967 9.45938 21.3338 11.0189 20.6655ZM6.40109 23.2443C6.40109 23.2511 6.40109 23.2511 6.40109 23.2578C6.52261 23.1836 6.64413 23.1161 6.76564 23.0418C6.64413 23.1093 6.52261 23.1768 6.40109 23.2443ZM24.2106 22.63C30.6242 21.3338 37.1121 20.8478 43.6269 20.5643C40.967 20.6588 38.307 20.7938 35.6471 20.9828C31.6369 21.2663 27.6605 21.7119 23.7043 22.4072C22.5768 22.657 21.4562 22.9203 20.3422 23.2173C19.8021 23.3456 19.262 23.4874 18.7287 23.6359C20.3827 23.2916 22.0503 22.9878 23.7178 22.7245C23.8866 22.6975 24.0486 22.6638 24.2106 22.63ZM15.5219 14.6843C17.1692 14.2455 18.83 13.8674 20.4975 13.5434C23.5153 12.7333 26.5735 12.146 29.6588 11.6937C27.1136 12.0042 24.5752 12.3957 22.0502 12.9021C19.7684 13.3071 17.527 13.8674 15.3126 14.5628C14.0637 14.9341 12.8417 15.3594 11.64 15.8252C12.9227 15.4134 14.2189 15.0353 15.5219 14.6843ZM154.467 35.3013C151.368 33.9039 148.222 32.5807 145.049 31.3251C149.323 33.0803 153.542 34.9705 157.674 37.0228C162.373 39.3586 166.977 41.9306 171.406 44.766C168.408 42.7812 165.316 40.918 162.184 39.1898C160.543 38.2852 158.889 37.4143 157.215 36.5637C156.303 36.1384 155.385 35.7131 154.467 35.3013ZM161.002 40.81C159.24 39.9459 157.465 39.1088 155.682 38.2919C160.901 40.8775 165.978 43.7264 170.859 46.9263C177.32 51.159 183.261 56.0669 188.716 61.4743C196.108 68.2791 202.623 75.8738 208.416 84.0828C208.902 84.7714 209.388 85.4735 209.867 86.1689C207.619 82.5167 205.209 78.9657 202.704 75.5093C199.909 71.8976 196.952 68.4007 193.826 65.0657C189.182 60.1174 184.206 55.6146 178.758 51.5641C176.192 49.6536 173.553 47.8579 170.852 46.1499C167.632 44.2462 164.358 42.464 161.002 40.81ZM188.939 58.6052C189.715 59.3545 190.478 60.1106 191.234 60.8802C193.887 63.3983 196.419 66.0514 198.829 68.7517C199.058 69.0082 199.281 69.2783 199.511 69.5348C196.216 65.2615 192.699 61.1638 188.891 57.3293C187.609 56.0399 186.292 54.7775 184.949 53.5421C181.019 50.3489 176.834 47.4731 172.553 44.7727C171.102 43.8546 169.617 42.9703 168.105 42.1197C171.899 44.4622 175.571 46.9938 179.068 49.7616C182.518 52.516 185.806 55.4796 188.939 58.6052ZM203.764 75.3135C202.13 73.241 200.449 71.1955 198.714 69.1973C199.086 69.6428 199.457 70.0884 199.821 70.5339C203.494 75.0772 206.917 79.8568 210.076 84.7984C209.82 84.3866 209.563 83.9748 209.307 83.5698C207.524 80.7817 205.675 78.0273 203.764 75.3135ZM225.665 126.066C225.712 125.756 225.773 125.452 225.813 125.141C225.82 125.094 225.82 125.04 225.827 124.993C225.793 124.642 225.753 124.291 225.712 123.94C225.705 124.628 225.685 125.324 225.651 126.012C225.658 126.026 225.665 126.046 225.665 126.066ZM224.24 117.236C224.267 117.425 224.294 117.607 224.321 117.797C224.47 118.202 224.612 118.607 224.747 119.018C224.578 118.424 224.409 117.83 224.24 117.236ZM222.08 109.115C221.999 108.818 221.925 108.521 221.844 108.224C221.634 107.65 221.398 107.09 221.175 106.523C221.087 106.354 221.006 106.192 220.919 106.023C221.175 106.745 221.418 107.474 221.655 108.204C221.796 108.501 221.938 108.804 222.08 109.115ZM223.464 112.119C223.545 112.389 223.639 112.659 223.72 112.929C223.734 112.956 223.741 112.983 223.754 113.01C223.754 113.003 223.754 112.997 223.754 112.983C223.653 112.693 223.558 112.409 223.464 112.119ZM225.044 122.988C225.05 122.59 225.064 122.191 225.064 121.793C224.915 121.341 224.76 120.895 224.605 120.45C224.632 120.774 224.652 121.098 224.672 121.422C224.807 121.942 224.929 122.468 225.044 122.988ZM214.498 94.2631C214.492 94.2496 214.485 94.2361 214.478 94.2226C214.431 94.1483 214.384 94.0673 214.336 93.9931C214.384 94.0808 214.444 94.1753 214.498 94.2631ZM219.298 103.154C219.305 103.161 219.305 103.167 219.312 103.174C219.163 102.776 219.008 102.378 218.846 101.979C218.718 101.736 218.596 101.486 218.468 101.243C218.752 101.878 219.028 102.513 219.298 103.154ZM215.909 95.5525C214.937 93.831 213.938 92.1231 212.912 90.4286C213.398 91.2725 213.877 92.1298 214.343 92.9872C214.87 93.8378 215.396 94.6952 215.909 95.5525ZM184.544 52.4484C187.048 54.4399 189.458 56.553 191.781 58.7605C188.344 55.223 184.706 51.8746 180.857 48.83C177.799 46.4132 174.592 44.1584 171.291 42.0589C175.943 45.1845 180.378 48.641 184.544 52.4484ZM92.5524 12.1257C81.6493 10.3097 70.5977 9.2026 59.5326 8.86506C56.1233 8.81105 52.7139 8.8043 49.3046 8.87181C64.2381 8.82456 79.1717 10.141 93.8622 12.8143C104.333 14.6438 114.689 17.2293 124.836 20.301C124.951 20.3347 125.066 20.3752 125.181 20.409C126.052 20.6655 126.929 20.9085 127.793 21.1718C135.375 23.4671 142.902 26.235 150.214 29.3538C148.506 28.5775 146.784 27.8282 145.056 27.0923C128.212 20.1119 110.497 15.1231 92.5524 12.1257ZM209.644 81.9428C207.639 78.6754 205.499 75.489 203.258 72.3769C202.367 71.263 201.469 70.1559 200.544 69.069C197.823 65.8623 194.967 62.7907 191.963 59.8609C194.711 62.8582 197.323 65.9771 199.808 69.2108C201.388 71.263 202.927 73.3558 204.426 75.4823C207.329 79.202 210.056 83.0567 212.635 87.006C211.663 85.2912 210.664 83.6035 209.644 81.9428ZM208.76 81.9563C210.11 84.0829 211.413 86.2296 212.649 88.4101C214.188 91.1307 215.666 93.9121 217.023 96.7474C217.125 96.9364 217.219 97.1255 217.314 97.3212C218.326 99.2115 219.298 101.135 220.21 103.093C218.839 99.2857 217.172 95.5728 215.315 91.9543C213.256 88.5249 211.042 85.1562 208.76 81.9563ZM184.267 55.3851C187.784 58.3554 191.126 61.5553 194.292 64.924C192.706 63.108 191.058 61.346 189.371 59.6246C187.615 58.0381 185.799 56.5124 183.909 55.0813C183.841 55.034 183.781 54.9935 183.713 54.9462C183.895 55.088 184.084 55.2365 184.267 55.3851ZM155.892 35.3351C156.533 35.6591 157.174 35.9967 157.809 36.3274C164.783 39.6151 171.521 43.3348 177.934 47.6418C176.442 46.4807 174.923 45.3533 173.377 44.2799C167.821 40.4049 161.92 37.097 155.878 34.0457C146.933 29.5294 137.529 25.9379 128.036 22.7583C122.825 21.0166 117.552 19.4301 112.239 18.0192C110.166 17.5196 108.087 17.0403 105.994 16.5948C86.9693 12.5375 67.4922 10.7958 48.0557 11.3089C71.5226 11.0726 95.0504 14.3602 117.586 20.8005C124.627 22.8123 131.534 25.1278 138.359 27.7674C144.307 30.0492 150.207 32.4592 155.892 35.3351ZM214.91 90.0843C215.025 90.3139 215.153 90.5366 215.268 90.7594C215.565 91.3467 215.855 91.9341 216.146 92.5281C216.429 92.9939 216.719 93.4598 216.996 93.9323C216.321 92.6429 215.626 91.3602 214.91 90.0843ZM220.898 102.108C220.628 101.554 220.352 101.007 220.068 100.46C219.474 99.306 218.853 98.1516 218.218 96.9972C219.643 100.231 220.898 103.525 221.931 106.894C222.458 108.028 222.964 109.169 223.45 110.317C223.322 109.419 223.153 108.528 222.964 107.643C222.35 105.76 221.655 103.91 220.898 102.108ZM226.947 133.553C226.961 133.627 226.974 133.701 226.988 133.776C226.995 133.614 227.001 133.452 227.008 133.29C226.988 133.377 226.968 133.465 226.947 133.553ZM226.968 138.677C226.968 139.048 226.961 139.426 226.961 139.797C227.035 139.568 227.096 139.338 227.163 139.109C227.13 138.704 227.096 138.299 227.049 137.894C227.028 138.157 227.001 138.414 226.968 138.677ZM221.628 111.12C221.162 109.567 220.649 108.035 220.075 106.523C219.913 106.097 219.737 105.672 219.575 105.247C218.313 102.87 216.963 100.535 215.579 98.2326C215.963 98.9549 216.348 99.6705 216.713 100.4C218.016 102.985 219.224 105.625 220.318 108.305C220.757 109.23 221.202 110.168 221.628 111.12ZM20.322 21.4891C22.6241 20.9693 24.9465 20.5575 27.2824 20.2335C29.8883 19.8014 32.5145 19.4706 35.1542 19.2208C35.0192 19.2343 34.8909 19.2411 34.7559 19.2478C29.8883 19.6461 25.0613 20.3347 20.322 21.4891ZM159.996 41.7011C164.331 43.9626 168.557 46.4402 172.621 49.1405C174.113 50.0992 175.578 51.0848 177.029 52.1042C175.747 51.1118 174.451 50.1329 173.121 49.1878C169.428 46.5617 165.566 44.2259 161.522 42.1872C157.627 39.8716 153.596 37.8059 149.438 36.0034C144.55 33.7959 139.547 31.7706 134.484 29.9142C125.397 26.8425 116.168 24.1692 106.77 22.225C103.239 21.4959 99.6951 20.8275 96.1373 20.2335C105.535 21.9887 114.831 24.2772 123.938 27.0991C136.313 30.9268 148.506 35.6996 159.996 41.7011ZM131.054 28.0914C133.687 28.942 136.307 29.8534 138.906 30.812C133.903 28.9285 128.833 27.2206 123.716 25.6746C126.18 26.4375 128.617 27.2543 131.054 28.0914ZM125.579 25.8096C137.967 29.6509 150.14 34.417 161.637 40.4252C164.094 41.7079 166.511 43.0648 168.881 44.4892C173.937 47.3988 178.785 50.6122 183.423 54.1834C178.13 49.6941 172.459 45.7246 166.444 42.2209C151.706 33.6271 135.557 27.4906 119.192 22.819C116.863 22.1574 114.527 21.5296 112.185 20.9355C108.519 20.0714 104.826 19.3086 101.113 18.6538C95.739 17.5466 90.3245 16.6825 84.8696 16.0547C77.6459 15.5011 70.4222 14.9476 63.1985 14.394C56.0287 14.1645 48.8658 14.2657 41.7096 14.6843C41.7096 14.6843 41.7096 14.6843 41.7163 14.6843C48.2717 14.448 50.6953 14.286 58.2836 14.583C66.9318 14.9206 75.526 15.6631 84.0662 16.8445C98.1356 18.62 112.043 21.6106 125.579 25.8096ZM121.582 25.0333C121.623 25.0468 121.663 25.0536 121.704 25.0671C121.663 25.0603 121.623 25.0468 121.582 25.0333ZM36.0251 15.3054C33.8648 15.4134 31.7111 15.5956 29.5643 15.8252C27.8832 16.0817 26.2224 16.4192 24.5684 16.8378C28.5516 16.1222 32.5821 15.6767 36.626 15.4066C37.4766 15.3459 38.334 15.3121 39.1847 15.2648L36.0251 15.3054ZM6.68463 21.0098C8.8045 20.0444 10.9446 19.2276 13.1658 18.5187C17.6418 17.0741 22.3541 16.3045 27.0056 15.6902C28.052 15.5551 29.0917 15.4404 30.1381 15.3391C33.7702 14.8463 37.4361 14.556 41.075 14.3197C52.1131 13.5974 63.2322 13.8472 74.2569 14.61C77.8687 14.8598 81.494 15.2176 85.1194 15.6699C74.9117 14.2725 64.6095 13.5164 54.2532 13.4219C47.259 13.2599 40.2716 13.4759 33.2842 14.0835C30.1854 14.2995 27.1204 14.7248 24.0824 15.3594C21.0241 15.7509 18.0198 16.4125 15.0831 17.3509C14.4822 17.3914 13.9151 17.4656 13.3615 17.5534C14.6375 17.1348 15.9202 16.7568 17.2164 16.4125C23.9743 14.61 30.9347 13.8539 37.9019 13.4151C48.8658 12.7198 59.9039 12.9493 70.8543 13.7122C79.9683 14.3467 89.0418 15.6902 98.0074 17.4049C102.294 18.2217 106.541 19.1668 110.767 20.2132C113.042 20.7398 115.317 21.2866 117.572 21.8739C125.572 23.9599 133.478 26.478 141.235 29.3876C131.878 25.6746 122.244 22.6165 112.556 20.0107C105.474 18.161 98.3247 16.6353 91.1077 15.4269C83.884 14.5493 76.6535 13.6649 69.4298 12.7873C58.5132 11.8287 47.4751 11.8962 36.545 12.497C31.2453 12.7873 25.9794 13.3476 20.7743 14.3737C19.7481 14.637 18.7219 14.9138 17.7025 15.2243C13.7531 16.399 10.04 18.0597 6.56313 20.193C6.57663 20.274 6.59013 20.355 6.59688 20.436C6.93443 20.2537 7.28551 20.0849 7.62982 19.9162C7.28551 20.193 6.9547 20.49 6.65089 20.8073C6.6644 20.8748 6.67114 20.9491 6.68463 21.0166C6.68463 21.0098 6.68463 21.0098 6.68463 21.0098ZM6.45512 19.4909C8.51422 18.296 10.58 17.1551 12.7539 16.1897C10.1345 16.4935 7.98763 17.2901 6.32008 18.5728C6.36734 18.8765 6.41461 19.1803 6.45512 19.4909ZM195.264 61.076C196.358 62.3654 197.431 63.6751 198.485 65.005C201.205 68.2454 203.791 71.6073 206.221 75.0705C206.654 75.6443 207.079 76.2181 207.504 76.7987C203.778 71.2968 199.7 66.0311 195.264 61.076ZM216.2 91.1712C216.807 92.2784 217.395 93.4057 217.962 94.5331C217.469 93.5475 216.963 92.5619 216.443 91.5898C216.362 91.4547 216.281 91.313 216.2 91.1712ZM226.792 124.129C226.799 123.98 226.806 123.839 226.812 123.69C226.731 123.379 226.664 123.069 226.583 122.765C226.657 123.217 226.725 123.676 226.792 124.129ZM226.954 140.884C226.947 141.073 226.941 141.269 226.934 141.458C226.974 141.168 227.022 140.884 227.062 140.594C227.022 140.689 226.988 140.79 226.954 140.884ZM225.017 137.489C224.888 137.988 224.76 138.488 224.618 138.981C224.733 138.697 224.861 138.414 224.969 138.13C224.99 137.914 224.996 137.705 225.017 137.489ZM225.152 133.303C225.152 133.29 225.152 133.269 225.152 133.256C225.125 133.094 225.104 132.932 225.077 132.77C225.077 132.777 225.077 132.783 225.071 132.79C225.098 132.966 225.125 133.134 225.152 133.303ZM202.758 79.7826C201.988 78.8307 201.205 77.8923 200.415 76.9607C202.346 79.3843 204.21 81.8686 205.992 84.3934C206.579 85.2305 207.167 86.0743 207.747 86.9249C206.154 84.4947 204.486 82.1116 202.758 79.7826ZM187.244 62.0076C184.165 59.071 180.918 56.3032 177.502 53.7176C172.115 50.0046 166.369 46.7372 160.523 43.8276C152.968 40.0742 145.178 36.827 137.225 34.0119C148.952 38.346 160.516 43.5508 171.089 50.2747C176.78 53.7378 182.208 57.6128 187.244 62.0076ZM22.9009 19.7069C30.0369 18.269 37.2538 17.8234 44.5181 17.5534C62.1791 16.9053 79.8265 18.2082 97.1567 21.3676C91.7558 20.2065 86.3009 19.3221 80.7987 18.7078C75.3505 17.9989 69.8888 17.5399 64.4069 17.3171C58.7765 17.0066 53.1528 16.885 47.5291 16.9526C43.2016 17.1011 38.8808 17.3306 34.5736 17.7762C30.3879 18.2082 26.2562 18.8495 22.1785 19.8554C22.4216 19.8082 22.6579 19.7542 22.9009 19.7069ZM37.1931 16.534C41.0547 16.291 44.9231 16.156 48.7983 16.1087C49.7907 16.0884 50.7831 16.0682 51.7688 16.0547C71.7657 15.7779 91.6951 18.0867 111.138 22.6233C104.34 20.8545 97.447 19.3761 90.5676 18.269C86.7937 17.6681 83.0063 17.1213 79.2122 16.6488C65.7909 15.2041 52.2549 14.8598 38.7796 15.6361C34.1551 15.9062 29.5373 16.3787 24.9668 17.1213C21.3886 17.7086 17.8848 18.5863 14.4552 19.7407C14.4485 19.7407 14.4417 19.7474 14.435 19.7474L14.4282 19.7474C13.5101 20.0579 12.5987 20.382 11.694 20.7263C11.6333 20.7533 11.5725 20.7803 11.505 20.8073C11.1404 21.0098 10.7961 21.2393 10.4788 21.4891C11.0054 21.2933 11.5387 21.1111 12.0788 20.9355C14.7793 19.9837 13.7868 20.2875 16.5548 19.5381C23.2924 17.7289 30.2394 16.9661 37.1931 16.534ZM5.15215 21.2191L5.09814 20.895C5.06439 20.7128 5.3074 20.3212 5.50993 20.0917C5.46944 19.8622 5.42894 19.6326 5.38843 19.3964C5.36143 19.6799 5.30742 19.9432 5.21965 20.1052C5.11163 20.3145 5.01035 20.4022 4.94958 20.2065C4.98334 20.4562 5.01714 20.922 4.98338 21.3068C5.0374 21.2798 5.0914 21.2528 5.15215 21.2191ZM5.53697 17.4386C5.65849 17.1888 5.80025 16.9796 5.92851 16.9053C6.26608 16.7095 6.60362 16.5138 6.93443 16.3247C6.31332 16.6015 5.74625 16.9323 5.23317 17.3171C5.24666 17.4049 5.26018 17.4926 5.27368 17.5804C5.36143 17.5331 5.4492 17.4859 5.53697 17.4386ZM226.117 118.897C226.117 118.863 226.117 118.823 226.117 118.789C226.11 118.755 226.097 118.728 226.09 118.694C226.097 118.755 226.104 118.823 226.117 118.897ZM227.656 137.32C227.791 136.78 227.92 136.24 228.034 135.686C227.933 134.525 227.798 133.371 227.616 132.216C227.629 132.493 227.65 132.777 227.663 133.053C227.724 134.485 227.717 135.902 227.656 137.32ZM160.516 46.0824C160.158 45.9069 159.794 45.7381 159.429 45.5626C162.326 47.041 165.174 48.6005 167.963 50.2612C166.815 49.5523 165.667 48.8435 164.52 48.1279C163.203 47.4258 161.866 46.7372 160.516 46.0824ZM15.7717 20.8343C17.6283 20.1795 19.5051 19.6259 21.4022 19.1533C21.2334 19.1871 21.0713 19.2073 20.9025 19.2411C17.1422 19.9094 13.4831 20.9558 9.91846 22.3802C9.69568 22.468 9.4796 22.5693 9.25682 22.6638C8.86525 23.1296 8.52774 23.6561 8.23744 24.2232C8.6425 23.9869 9.04082 23.7506 9.44588 23.5076C11.478 22.4275 13.5843 21.5364 15.7717 20.8343ZM5.53697 23.4266C5.51672 23.4469 5.5032 23.4671 5.48296 23.4874C5.5032 23.4739 5.52344 23.4671 5.54369 23.4536C5.53694 23.4401 5.53697 23.4334 5.53697 23.4266ZM4.49051 21.5836C4.43651 21.2731 4.38251 20.9626 4.32849 20.652C3.99768 21.1178 3.70062 21.6106 3.43733 22.1439C3.43733 22.1575 3.44411 22.1709 3.44411 22.1845C3.79517 21.9819 4.13945 21.7794 4.49051 21.5836ZM206.89 72.8562C207.329 73.4503 207.754 74.0444 208.179 74.6452C207.578 73.7811 206.971 72.917 206.356 72.0664C206.539 72.3296 206.708 72.5929 206.89 72.8562ZM224.389 109.979C224.888 111.991 225.3 114.023 225.631 116.068C225.786 116.521 225.935 116.98 226.083 117.439C226.043 116.332 225.982 115.224 225.874 114.131C225.428 112.74 224.929 111.356 224.389 109.979ZM226.556 117.196C226.59 117.857 226.61 118.519 226.623 119.18C226.738 119.572 226.853 119.964 226.961 120.355C226.995 119.612 227.028 118.87 227.062 118.134C226.934 117.655 226.812 117.175 226.677 116.703C226.61 116.473 226.536 116.237 226.468 116.008C226.495 116.399 226.536 116.797 226.556 117.196ZM227.839 128.49C227.778 128.969 227.717 129.455 227.643 129.935C227.913 131.386 228.136 132.837 228.311 134.296C228.372 133.958 228.426 133.62 228.473 133.283C228.331 131.676 228.115 130.083 227.839 128.49ZM225.577 151.355C225.523 151.584 225.455 151.814 225.395 152.043C225.759 151.22 226.09 150.383 226.401 149.539C226.144 150.153 225.867 150.754 225.577 151.355ZM215.943 154.994C216.476 154.373 216.963 153.711 217.422 153.036C217.199 153.265 216.963 153.481 216.726 153.697C215.727 154.778 214.647 155.75 213.472 156.6C213.155 156.877 212.831 157.147 212.5 157.41C213.135 157.174 213.756 156.891 214.363 156.587C214.559 156.452 214.748 156.31 214.93 156.168C215.281 155.783 215.619 155.399 215.943 154.994ZM182.208 60.0836C179.919 58.1731 177.556 56.3572 175.092 54.6762C174.025 54.0146 172.965 53.3598 171.899 52.6982C174.66 54.4737 177.347 56.3639 179.953 58.3689C180.716 58.9292 181.465 59.5031 182.208 60.0836ZM5.5842 23.7101C5.5842 23.7034 5.5842 23.6966 5.5842 23.6966C5.40192 23.8047 5.21965 23.9194 5.03737 24.0274C5.03737 24.0342 5.03064 24.0342 5.03064 24.0342C5.21292 23.9262 5.39517 23.8182 5.5842 23.7101ZM216.983 90.0978C217.867 91.8868 218.704 93.723 219.494 95.5863C220.453 97.3415 221.364 99.117 222.235 100.926C222.951 102.411 223.646 103.924 224.308 105.456C224.247 105.226 224.179 104.997 224.119 104.767C222.141 99.6908 219.656 94.8437 216.983 90.0978ZM226.104 112.362C226.144 112.7 226.191 113.037 226.232 113.381C226.407 113.908 226.576 114.435 226.745 114.968C226.684 114.576 226.617 114.178 226.549 113.787C226.407 113.307 226.252 112.835 226.104 112.362ZM228.581 137.259C228.595 137.435 228.608 137.61 228.615 137.786C228.622 137.516 228.628 137.252 228.635 136.982C228.622 137.077 228.601 137.165 228.581 137.259ZM225.347 141.694C225.347 141.391 225.334 141.08 225.32 140.776C225.199 141.343 225.071 141.904 224.936 142.464C224.679 143.861 224.369 145.239 223.99 146.602C224.328 146.015 224.652 145.414 224.956 144.8C225.077 143.767 225.212 142.727 225.347 141.694ZM5.40195 26.1674L5.36819 25.9919C5.37495 25.9244 5.40868 25.8772 5.46944 25.8502C5.58421 25.7826 5.70575 25.7084 5.82051 25.6409C5.74625 25.2156 5.67198 24.7903 5.59097 24.3582C5.11838 24.6013 4.6593 24.8645 4.19347 25.1278C4.16646 25.1616 4.14621 25.1953 4.1192 25.2358C4.03819 25.4924 3.97069 25.7556 3.90318 26.0189C3.95044 26.3295 3.99771 26.64 4.05171 26.9505C4.51079 26.6873 4.95637 26.424 5.40195 26.1674ZM228.25 123.616C228.223 124.203 228.196 124.79 228.156 125.378C228.331 126.269 228.493 127.167 228.635 128.071C228.71 128.544 228.77 129.023 228.831 129.502C228.845 129.037 228.851 128.578 228.851 128.112C228.703 126.606 228.5 125.108 228.25 123.616ZM219.406 163.297C219.879 162.629 220.331 161.94 220.75 161.252C220.797 161.171 220.844 161.09 220.892 161.002C219.94 162.109 218.907 163.149 217.766 164.067C217.064 164.924 216.314 165.734 215.511 166.484C215.484 166.517 215.464 166.551 215.437 166.578C216.969 165.734 218.286 164.641 219.406 163.297ZM222.114 149.431C222.546 148.567 222.931 147.682 223.282 146.785C223.363 146.204 223.43 145.617 223.491 145.029C223.066 146.089 222.593 147.136 222.073 148.155C221.688 149.201 221.263 150.241 220.79 151.254C221.189 150.761 221.58 150.261 221.952 149.748C222.006 149.64 222.06 149.532 222.114 149.431ZM219.494 153.812C219.116 154.494 218.725 155.162 218.299 155.824C218.92 154.973 219.501 154.096 220.048 153.198C219.866 153.4 219.683 153.61 219.494 153.812ZM219.096 153.083C219.055 153.137 219.008 153.198 218.968 153.252C218.995 153.225 219.015 153.205 219.042 153.178C219.062 153.144 219.082 153.11 219.096 153.083ZM219.839 112.376C220.689 114.138 221.499 115.927 222.249 117.743C222.181 117.479 222.114 117.216 222.046 116.953C221.081 114.522 220.014 112.139 218.907 109.844C215.801 103.397 212.156 97.2065 208.112 91.3062C204.284 85.7233 200.226 80.3091 195.717 75.2528C191.241 70.2369 186.333 65.4978 181.06 61.319C180.992 61.265 180.918 61.211 180.851 61.157C181.019 61.2988 181.195 61.4338 181.357 61.5756C182.532 62.5679 183.679 63.5873 184.814 64.6269C191.025 70.1019 196.628 76.2451 201.685 82.8002C207.484 90.3139 212.898 98.3879 217.185 106.874C217.962 108.406 218.698 109.959 219.406 111.525C219.548 111.802 219.703 112.085 219.839 112.376ZM17.8375 7.22461C18.2966 7.08959 18.7625 6.96132 19.2283 6.83981C20.9363 6.38075 22.6646 5.99596 24.3996 5.65841C22.7523 5.9352 21.1051 6.24573 19.4713 6.61703C16.6088 7.27861 13.8139 8.15622 11.0796 9.22961C13.2873 8.4195 15.5557 7.76467 17.8375 7.22461ZM211.764 170.25C212.095 170.082 212.412 169.899 212.73 169.71C212.527 169.791 212.324 169.879 212.115 169.953C212 170.055 211.886 170.156 211.764 170.25ZM219.859 159.814C219.94 159.685 220.021 159.557 220.102 159.429C219.92 159.618 219.737 159.807 219.548 159.996C219.433 160.226 219.332 160.455 219.217 160.678C219.44 160.394 219.649 160.104 219.859 159.814ZM221.54 156.911C221.823 156.364 222.093 155.817 222.35 155.264C223.106 153.623 223.734 151.942 224.247 150.241C224.288 149.91 224.335 149.573 224.375 149.242C224.315 149.35 224.254 149.458 224.2 149.566C223.538 151.233 222.762 152.86 221.877 154.427C221.398 155.81 220.871 157.181 220.271 158.518C220.723 157.998 221.148 157.458 221.54 156.911ZM222.633 152.172C222.606 152.212 222.579 152.246 222.559 152.287C222.546 152.327 222.539 152.368 222.525 152.401C222.559 152.327 222.6 152.246 222.633 152.172ZM221.925 153.211C221.871 153.292 221.817 153.373 221.756 153.454C221.452 153.873 221.135 154.278 220.811 154.676C219.994 156.249 219.069 157.768 218.022 159.226C218.002 159.26 217.975 159.287 217.948 159.321C219.352 157.734 220.588 155.945 221.655 154.042C221.749 153.765 221.837 153.495 221.925 153.211ZM222.276 151.915C222.357 151.598 222.438 151.281 222.512 150.957C222.303 151.483 222.08 152.01 221.844 152.53C221.992 152.327 222.134 152.118 222.276 151.915ZM222.478 150.011C222.269 150.322 222.06 150.626 221.844 150.93C220.986 152.651 220.001 154.298 218.866 155.851C218.691 156.094 218.509 156.324 218.326 156.56C219.339 155.635 220.277 154.602 221.135 153.495C221.641 152.354 222.087 151.193 222.478 150.011ZM215.261 158.875C215.741 158.308 216.193 157.728 216.605 157.147C216.963 156.634 217.314 156.114 217.644 155.581C216.868 156.249 216.044 156.85 215.18 157.383C215.032 157.512 214.876 157.633 214.728 157.761C213.519 158.936 212.196 159.976 210.765 160.833C212.385 160.388 213.877 159.719 215.261 158.875ZM208.402 161.036C207.842 161.198 207.275 161.346 206.701 161.454C206.748 161.454 206.802 161.454 206.849 161.454C207.072 161.447 207.295 161.42 207.518 161.407C207.821 161.285 208.112 161.164 208.402 161.036ZM202.94 160.016C202.947 160.016 202.954 160.016 202.954 160.009C200.436 159.989 197.924 159.476 195.555 158.666C195.136 158.524 194.731 158.369 194.319 158.207C195.575 158.902 196.871 159.503 198.201 160.003C199.788 160.225 201.388 160.266 202.94 160.016ZM58.871 25.1143C59.6879 25.1413 60.5115 25.1683 61.3284 25.2021C60.5047 25.1683 59.6879 25.1413 58.871 25.1143ZM49.2979 25.0266C49.8852 25.0198 50.4793 25.0063 51.0667 25.0063C50.4793 25.0063 49.892 25.0198 49.2979 25.0266ZM37.6319 25.4316C37.3011 25.4519 36.9635 25.4789 36.6327 25.4991C37.3213 25.4519 38.0032 25.4114 38.6918 25.3776C38.3408 25.3979 37.983 25.4114 37.6319 25.4316ZM41.6488 25.2291C42.3172 25.2021 42.9923 25.1818 43.6607 25.1548C42.9855 25.1751 42.3172 25.1953 41.6488 25.2291ZM2.24913 17.1416C2.23564 17.1483 2.22212 17.1551 2.20862 17.1686C2.22212 17.2361 2.22891 17.3036 2.24242 17.3644C2.24242 17.2833 2.24239 17.2091 2.24913 17.1416ZM223.788 101.243C223.923 101.622 224.058 102.006 224.186 102.384C224.119 102.155 224.038 101.925 223.963 101.689C223.909 101.541 223.849 101.392 223.788 101.243ZM219.454 159.388C220.048 158.247 220.568 157.059 221.033 155.837C220.871 156.101 220.709 156.364 220.541 156.621C219.076 158.828 217.3 160.847 215.254 162.474C215.025 162.703 214.782 162.926 214.546 163.149C216.314 162.19 218.002 160.874 219.454 159.388ZM216.591 160.732C218.029 159.125 219.238 157.302 220.257 155.345C218.981 156.81 217.557 158.106 215.997 159.172C215.626 159.537 215.241 159.895 214.843 160.232C212.574 162.514 209.867 164.242 206.849 165.221C208.254 165.167 209.678 164.938 211.109 164.526C213.141 163.594 214.964 162.298 216.591 160.732ZM188.783 155.608C188.054 155.169 187.345 154.71 186.65 154.217C187.46 154.838 188.29 155.426 189.141 155.986C189.04 155.885 188.932 155.763 188.783 155.608ZM205.924 154.764C206.687 154.724 207.443 154.622 208.186 154.487C209.394 154.015 210.529 153.407 211.602 152.698C209.779 153.691 207.781 154.386 205.58 154.663C205.114 154.724 204.655 154.757 204.189 154.778C204.763 154.791 205.337 154.791 205.924 154.764ZM223.774 127.018C223.774 126.93 223.774 126.849 223.774 126.762C223.768 126.708 223.768 126.654 223.761 126.6C223.147 124.257 222.417 121.942 221.567 119.666C221.243 118.796 220.898 117.932 220.541 117.067C220.946 118.208 221.331 119.356 221.688 120.51C222.478 122.65 223.18 124.824 223.774 127.018ZM136.097 39.9661C139.108 41.053 142.113 42.1939 145.09 43.3956C133.188 38.4472 120.792 34.6262 108.323 31.6761C99.0876 29.4956 89.7237 27.8349 80.2924 26.7143C91.6005 28.0712 102.807 30.2247 113.805 33.1276C121.339 35.0448 128.779 37.3266 136.097 39.9661ZM63.8533 25.3101C64.9808 25.3708 66.1149 25.4384 67.2424 25.5126C66.1082 25.4384 64.9808 25.3708 63.8533 25.3101ZM69.234 25.6476C70.7665 25.7624 72.299 25.8839 73.8248 26.0257C72.299 25.8839 70.7665 25.7556 69.234 25.6476ZM75.1885 26.1607C76.586 26.2957 77.9767 26.4442 79.3675 26.6062C77.97 26.4442 76.5792 26.2957 75.1885 26.1607ZM1.10818 17.8504C1.12169 17.9247 1.13522 17.9989 1.14873 18.0664C1.39853 17.9247 1.64832 17.7762 1.89136 17.6344C1.87785 17.5534 1.86433 17.4656 1.85083 17.3846C1.6078 17.5466 1.35797 17.6951 1.10818 17.8504ZM221.364 91.4075C218.961 86.0473 216.038 80.9505 212.959 75.9548C208.821 69.231 204.156 62.8447 199.045 56.8297C194.657 51.6653 189.944 46.8858 184.76 42.518C176.989 35.9697 168.314 30.5285 159.186 26.0864C158.633 25.8164 158.072 25.5531 157.519 25.2898C166.687 29.8467 175.416 35.2406 183.254 41.8496C188.176 45.9946 192.719 50.5582 196.925 55.4188C205.094 64.4312 212.048 74.5979 217.84 85.217C220.311 89.7536 222.512 94.4656 224.247 99.3195C224.396 99.684 224.544 100.049 224.686 100.42C223.849 97.3145 222.755 94.3104 221.364 91.4075ZM221.304 166.409C220.001 168.225 218.515 169.886 216.821 171.283C215.693 172.6 214.451 173.795 213.087 174.828C214.269 174.159 215.403 173.336 216.49 172.357C218.367 170.662 219.974 168.563 221.304 166.409ZM204.162 168.063C202.056 168.306 199.916 168.164 197.823 167.753C200.172 168.428 202.616 168.752 205.054 168.637C206.849 168.549 208.503 168.205 210.043 167.665C209.104 167.847 208.159 167.969 207.194 168.009C206.397 168.043 205.6 168.029 204.81 167.975C204.601 168.002 204.385 168.043 204.162 168.063ZM202.812 167.138C203.649 167.159 204.493 167.172 205.33 167.192C207.504 166.808 209.516 165.984 211.467 164.863C211.433 164.87 211.4 164.877 211.366 164.89C209.752 165.64 208.017 166.166 206.167 166.376C204.075 166.619 202.009 166.497 200.004 166.112C199.45 166.085 198.903 166.045 198.35 165.984C199.801 166.511 201.286 166.895 202.812 167.138ZM195.75 164.877C195.919 164.958 196.088 165.046 196.257 165.127C196.378 165.154 196.5 165.181 196.621 165.208C196.331 165.106 196.041 164.992 195.75 164.877ZM202.623 166.072C203.285 166.105 203.953 166.119 204.635 166.092C206.12 166.024 207.518 165.768 208.841 165.376C208.294 165.444 207.74 165.491 207.18 165.511C206.721 165.532 206.255 165.538 205.796 165.532C204.77 165.795 203.71 165.984 202.623 166.072ZM210.738 162.946C210.778 162.919 210.826 162.885 210.866 162.858C208.058 164.242 204.993 164.803 201.86 164.627C203.028 164.951 204.203 165.147 205.384 165.214C207.261 164.776 209.07 164.033 210.738 162.946ZM190.221 160.367C189.715 160.104 189.229 159.82 188.749 159.53C189.668 160.151 190.606 160.732 191.585 161.252C192.287 161.488 192.982 161.731 193.685 161.967C193.55 161.886 193.415 161.805 193.28 161.724C192.233 161.339 191.214 160.887 190.221 160.367ZM193.286 161.09C196.736 162.399 200.402 162.96 204.075 162.345C202.306 162.217 200.571 161.866 198.869 161.339C198.309 161.225 197.749 161.096 197.195 160.941C197.141 160.928 197.094 160.907 197.04 160.894C195.048 160.482 193.104 159.814 191.274 158.97C189.803 158.295 190.012 158.403 188.614 157.579C188.587 157.566 188.567 157.552 188.547 157.539C190.079 158.828 191.625 160.023 193.286 161.09ZM1.55379 35.4971C1.60779 35.2406 1.67532 35.0245 1.7766 34.9638C1.90486 34.8895 2.04662 34.8018 2.18164 34.7207C2.1749 34.66 2.16139 34.5992 2.15465 34.5452C2.11414 34.2887 2.04662 32.7428 2.35042 32.5672C2.49893 32.4795 2.65421 32.385 2.80949 32.2904C2.75548 31.9327 2.70148 31.5681 2.64748 31.2103C2.58672 31.2441 2.51918 31.2778 2.45842 31.3116C2.45166 31.3116 2.44493 31.3183 2.43819 31.3251C1.94536 31.6086 1.46605 31.9057 0.979965 32.2094C1.17575 33.3031 1.36475 34.3967 1.55379 35.4971Z" fill="#AFECDB"/>
</g>
</svg>
