<svg width="201" height="307" viewBox="0 0 201 307" fill="none" xmlns="http://www.w3.org/2000/svg">
<path d="M264.155 123.601C263.671 121.769 263.125 119.919 262.507 118.097C262.385 117.473 262.25 116.837 262.119 116.213C261.84 114.479 261.541 112.746 261.224 111.015C260.611 107.608 259.883 104.209 258.986 100.834C256.982 91.9948 253.968 83.2427 248.465 75.89C248.391 75.771 248.315 75.6409 248.242 75.5219C246.675 72.3789 244.824 69.3593 242.585 66.5275C240.539 64.2361 238.494 61.9558 236.448 59.6643C233.487 56.4907 230.36 53.59 227.064 50.9399C223.948 48.3214 220.777 45.8997 217.47 43.658C216.745 43.1692 216.009 42.7152 215.28 42.2493C215.02 42.0764 214.765 41.8805 214.496 41.7083C206.372 36.3311 197.402 32.1388 188.598 29.8816C169.296 24.9288 150.674 26.9113 133.273 32.4252C124.239 35.2809 115.579 39.3086 107.375 43.936C101.468 47.2579 95.8106 50.8893 90.7874 55.5938C78.8375 66.7884 68.6688 80.4417 59.2371 94.3678C53.4456 102.924 47.8706 111.769 42.9699 121.095C41.2891 124.302 39.644 127.54 38.1133 130.86C36.1405 135.12 34.7763 139.457 33.5161 144.15C33.4364 144.462 33.9642 144.433 34.0457 144.314C35.5312 142.571 36.5712 140.466 37.1587 138.01C38.4691 134.887 39.894 131.847 41.4117 128.879C45.0406 121.709 49.0411 114.828 53.2488 108.147C61.1892 95.5227 69.8203 83.4574 79.2486 72.3172C84.5151 66.0996 90.1309 59.6065 96.556 54.7849C97.8195 53.829 99.1282 52.9489 100.449 52.0793C98.7021 53.3208 97.0124 54.6486 95.4084 56.1057C82.732 67.5363 72.1674 81.8423 62.2827 96.3347C56.4651 104.859 50.9067 113.737 46.006 123.063C44.9808 125.009 43.9817 126.987 43.0041 128.974C41.7241 131.46 40.4584 133.967 39.2714 136.525C37.3034 140.762 35.937 145.043 34.7031 149.722C34.65 149.93 35.1232 151.389 35.4035 151.062C34.9287 152.581 34.4777 154.121 34.0599 155.727C33.973 156.05 34.6876 157.412 34.9519 156.871C35.4084 155.908 35.8387 154.913 36.2714 153.929C36.4326 154.325 36.6346 154.638 36.7548 154.38C38.2662 151.106 39.6109 147.733 41.0127 144.4C40.613 145.539 40.2347 146.689 39.8707 147.86C38.0824 151.89 36.5374 156.015 35.3185 160.49C35.2267 160.836 35.8883 161.579 36.0879 161.1C37.3095 158.154 38.4978 155.188 39.6932 152.21C39.3775 153.197 39.0714 154.182 38.7772 155.178C38.6903 155.502 39.0364 157.14 39.3035 156.429C41.414 150.846 43.5647 145.362 46.1636 140.116C46.8025 138.822 47.4725 137.537 48.1448 136.263C46.922 138.79 45.7755 141.357 44.71 143.985C43.2683 147.083 41.9267 150.241 40.7566 153.523C38.9228 157.613 37.3012 161.789 36.0201 166.291C35.9116 166.65 36.4116 167.133 36.5464 166.761C37.4034 164.386 38.3104 162.064 39.2412 159.763C39.3457 159.937 39.4577 160.007 39.542 159.763C40.0911 158.182 40.683 156.62 41.2869 155.068C41.3726 155.152 41.473 155.122 41.5765 154.831C41.9209 153.843 42.2914 152.886 42.65 151.919C43.7818 149.467 44.9589 147.046 46.229 144.651C48.3803 140.594 50.6722 136.65 53.0117 132.748C49.0533 139.92 45.495 147.424 42.7948 155.453C40.5626 160.23 38.5806 165.18 36.9894 170.373C36.8471 170.848 37.4797 170.903 37.6147 170.485C38.9112 166.424 40.4436 162.515 42.1119 158.697C42.236 158.733 42.401 158.642 42.4998 158.328C42.7023 157.679 42.9262 157.039 43.1383 156.389C44.0683 154.36 45.0364 152.373 46.0378 150.407C43.9353 154.925 42.0472 159.586 40.5476 164.522C40.521 164.626 40.628 164.766 40.752 164.847C40.4316 165.811 40.1303 166.773 39.8409 167.746C39.7613 168.013 40.3343 168.015 40.3801 167.864C40.9635 165.986 41.604 164.148 42.2851 162.319C42.4496 162.409 42.7388 162.308 42.8256 162.029C43.5705 159.629 44.394 157.28 45.2842 154.97C50.5024 143.242 57.3055 132.492 64.1047 122.23C72.662 109.31 81.8722 96.8157 92.2577 85.7958C93.3427 84.6382 94.4611 83.5007 95.5937 82.3848C97.6334 80.5551 99.7635 78.8317 102.02 77.2461C103.128 76.4717 104.261 75.7294 105.407 74.9975C103.098 76.791 100.881 78.7021 98.7741 80.7634C86.1068 93.1558 75.3635 108.132 65.3955 123.378C63.6805 126.01 61.9822 128.675 60.3196 131.37C56.0574 137.931 51.9951 144.703 48.3093 151.742C44.5251 158.957 41.0724 166.317 38.7346 174.499C38.6019 174.974 38.9714 175.987 39.2004 175.234C39.8102 173.297 40.4867 171.4 41.2062 169.523C40.929 170.416 40.6637 171.319 40.4103 172.233C40.3379 172.487 40.5771 173.16 40.7821 173.258C40.305 174.721 39.8518 176.204 39.4533 177.763C39.3978 177.96 39.2642 178.706 39.4427 178.907C39.5451 179.024 39.8022 179.277 39.8794 178.999C40.8216 176.063 41.8854 173.197 43.0421 170.404C43.2041 170.527 43.3999 170.535 43.4793 170.314C44.1464 168.373 44.8683 166.461 45.6213 164.559C46.6377 162.387 47.7017 160.257 48.8014 158.159C48.2057 159.381 47.6099 160.604 47.0475 161.847C46.0719 163.981 45.1629 166.156 44.335 168.392C43.4624 170.372 42.8664 172.512 42.5659 174.81C42.5611 174.833 42.5682 174.867 42.5752 174.9C41.9228 176.727 41.8176 177.562 40.9882 181.123C40.918 181.434 41.3001 183.059 41.5385 182.35C41.9288 181.166 42.3644 180.012 42.788 178.847C42.7771 179.301 43.2836 180.826 43.5509 180.069C47.9234 167.691 53.9662 156.467 60.4994 145.726C67.6685 133.953 75.4545 122.664 83.8878 112.097C78.4494 119.155 73.2729 126.486 68.3725 134.069C68.3054 134.165 68.2406 134.272 68.1734 134.367C63.029 142.127 58.0725 150.133 53.6855 158.538C51.9998 161.767 50.3737 165.049 48.8596 168.402C47.8695 170.56 46.97 172.78 46.1515 175.061C45.2525 177.099 44.7254 179.335 44.5368 181.75C44.1125 183.141 44.0355 184.155 43.3972 187.656C43.3316 188.035 43.8639 188.119 43.9553 187.863C44.897 185.109 45.9603 182.424 47.0712 179.781C47.1639 179.899 47.2592 179.982 47.3523 180.009C46.5991 182.002 46.1844 184.174 46.1488 186.532C46.0904 186.898 46.5692 187.281 46.7112 186.897C51.6146 173.403 58.3242 161.154 65.6123 149.485C74.5222 135.202 84.2994 121.533 95.2066 109.262C99.4493 104.492 103.859 99.6862 108.875 95.9108C112.591 93.1053 116.595 90.7423 120.618 88.4685C127.401 84.6503 134.452 81.3215 141.773 78.629C147.115 76.8105 152.587 75.3332 158.199 74.2871C173.302 71.449 189.449 71.7595 205.391 77.4866C214.245 80.6686 222.97 85.5362 230.912 91.7084C235.317 95.1467 239.496 98.9418 243.447 103.083C246.795 106.386 249.821 110.007 252.546 113.946C252.838 114.411 253.111 114.877 253.385 115.343C253.531 115.989 253.655 116.625 253.792 117.272C254.326 120.855 254.793 124.443 255.171 128.027C255.222 128.68 255.261 129.322 255.302 129.976C255.288 134.778 255.025 139.554 254.46 144.318C252.998 156.692 249.733 168.341 244.886 178.932C238.313 193.299 229.075 204.878 219.012 215.953C218.698 216.305 219.105 217.316 219.224 217.737C219.209 217.67 219.741 219.68 219.961 219.436C228.122 210.747 235.93 201.586 241.865 190.63C248.169 178.99 252.781 166.277 254.967 152.184C255.166 150.923 255.337 149.665 255.486 148.397C255.398 150.045 255.271 151.697 255.121 153.327C253.503 164.32 250.466 174.706 246.143 184.238C245.6 185.434 245.031 186.598 244.452 187.763C244.2 188.223 243.962 188.706 243.71 189.166C237.642 200.042 230.01 209.167 221.952 218.018C221.77 218.213 221.859 218.908 221.976 219.556C221.435 220.163 220.903 220.77 220.359 221.365C220.028 221.73 220.483 222.873 220.597 223.318C220.58 223.24 221.159 225.427 221.372 225.196C221.427 225.135 221.489 225.062 221.544 225.001C221.544 225.137 221.567 225.294 221.596 225.473C220.932 226.191 220.281 226.92 219.605 227.628C219.205 228.077 220.74 230.52 220.889 230.35C222.214 228.903 223.526 227.445 224.834 225.965C224.896 226.073 224.972 226.113 225.073 225.992C230.53 220.032 235.858 213.832 240.603 207.076C240.488 207.266 240.375 207.467 240.262 207.668C235.474 214.586 230.102 220.902 224.535 227.074C224.362 227.269 224.377 228.026 224.463 228.71C223.294 230.022 222.111 231.311 220.904 232.58C220.588 232.921 221.677 234.492 221.928 234.212C222.857 233.191 223.787 232.17 224.714 231.137C224.638 231.834 224.846 233.188 225.107 232.908C231.601 225.794 237.824 218.406 243.159 210.122C242.057 212.119 240.905 214.063 239.698 215.977C235.981 220.798 232.006 225.367 227.936 229.852C227.675 230.133 227.162 232.527 227.768 231.858C228.247 231.324 228.729 230.8 229.208 230.266C226.764 233.213 224.239 236.054 221.616 238.799C221.245 239.201 222.125 239.599 222.362 239.343C228.513 232.583 234.548 225.594 239.7 217.777C243.528 212.789 247.084 207.527 250.167 201.86C248.435 206.157 246.484 210.29 244.29 214.238C244.233 214.333 244.165 214.428 244.108 214.523C242.729 216.541 241.314 218.527 239.807 220.442C236.144 225.247 232.242 229.788 228.12 234.074C228.002 234.207 227.456 234.837 227.613 235.12C227.675 235.228 227.744 235.28 227.803 235.286C227.329 235.798 226.869 236.331 226.383 236.832C226.107 237.136 226.282 237.915 226.612 237.55C230.63 233.137 234.592 228.648 238.283 223.886C237.099 225.583 235.878 227.249 234.601 228.874C230.926 233.669 227.033 238.209 222.902 242.496C222.586 242.837 222.58 243.913 223.093 243.353C223.943 242.417 224.791 241.47 225.632 240.534C225.746 240.571 225.906 240.548 225.993 240.451C235.977 229.461 245.615 217.659 251.93 203.176C252.615 201.596 253.276 199.994 253.897 198.385C254.685 196.65 255.428 194.884 256.174 193.038C254.648 198.679 252.717 204.102 250.377 209.238C248.923 212.371 247.364 215.421 245.699 218.378C240.636 225.928 234.857 232.705 228.842 239.33C228.519 239.683 229.867 239.955 230.102 239.688C230.827 238.897 231.541 238.096 232.265 237.294C230.228 239.689 228.144 242.043 226.026 244.377C225.971 244.438 225.964 244.586 225.97 244.755C225.496 245.267 225.022 245.778 224.548 246.289C224.248 246.618 224.397 248.747 224.689 248.43C227.013 245.877 229.32 243.291 231.565 240.642C235.798 235.918 239.895 231.102 243.64 225.814C243.796 225.587 243.949 225.349 244.105 225.122C238.568 234.01 231.991 241.787 225.131 249.371C224.776 249.76 225.16 252.494 225.442 252.178C226.523 250.998 227.598 249.796 228.674 248.594C228.866 248.908 229.038 249.121 229.083 249.061C230.858 247.127 232.609 245.172 234.334 243.184C232.346 245.531 230.321 247.847 228.254 250.143C228.189 250.204 228.182 250.307 228.165 250.41C227.607 251.03 227.058 251.648 226.5 252.268C226.121 252.682 226.857 255.933 227.156 255.604C227.81 254.887 228.471 254.158 229.125 253.44C229.159 253.46 229.19 253.469 229.214 253.445C230.035 252.556 230.845 251.657 231.652 250.747C231.674 250.802 231.695 250.857 231.716 250.912C231.022 251.666 230.32 252.433 229.613 253.177C229.29 253.53 229.797 254.692 229.923 255.101C229.916 255.068 230.093 255.677 230.301 256.205C229.729 256.848 229.159 257.503 228.586 258.146C228.234 258.546 229.101 261.821 229.434 261.468C230.135 260.701 230.835 259.924 231.527 259.158C231.85 259.904 232.208 260.545 232.218 260.544C240.293 251.726 248.132 242.574 254.074 231.606C260.378 219.965 264.99 207.252 267.176 193.159C267.492 191.12 267.744 189.051 267.965 186.974C268.041 186.504 268.138 186.044 268.201 185.563C270.271 171.978 270.016 157.91 267.984 143.513C267.062 136.902 265.9 130.161 264.155 123.601ZM136.455 59.2481C141.937 57.0794 147.563 55.2735 153.347 53.8972C154.613 53.6431 155.889 53.3884 157.167 53.19C169.995 51.1125 183.551 51.4712 196.959 55.3514C199.246 56.1639 201.519 57.0908 203.763 58.1105C196.419 55.5506 188.94 54.0087 181.549 53.4793C176.949 53.1582 172.415 53.1946 167.937 53.5438C156.994 53.792 146.493 55.909 136.455 59.2481ZM99.044 78.3198C95.5498 81.0746 92.3361 84.2838 89.244 87.5631C84.8584 92.2082 80.6656 97.1219 76.625 102.205C79.4918 98.4107 82.4301 94.6788 85.4707 91.0637C88.9666 86.8933 92.5888 82.8154 96.4321 79.0491C100.661 74.9027 105.146 71.4617 110.126 68.4363C115.448 65.1926 120.955 62.2293 126.648 59.637C127.934 59.1097 129.22 58.5823 130.525 58.0989C137.976 55.2834 145.58 53.283 153.558 52.0016C159.094 50.8706 164.79 50.4069 170.625 50.6007C163.759 50.9942 157.044 52.101 150.504 53.7607C143.833 55.2605 137.337 57.3585 131.079 59.8915C123.427 62.994 116.085 66.7864 109.017 71.0451C105.451 73.1825 102.163 75.6273 99.044 78.3198ZM57.832 123.133C56.4697 125.229 55.1215 127.346 53.7972 129.485C55.7411 126.145 57.7564 122.867 59.8265 119.62C68.3253 106.285 77.5316 93.497 87.7849 81.9435C89.7517 79.7229 91.7758 77.5433 93.864 75.4382C84.6068 85.2293 76.2201 96.1551 68.5028 107.63C64.8252 112.686 61.2595 117.859 57.832 123.133ZM96.7078 89.2194C90.066 95.4502 84.1022 102.547 78.4075 109.861C73.5038 116.142 68.8335 122.654 64.3488 129.357C71.5307 118.057 79.2751 107.123 87.7523 97.0854C90.9217 93.5286 94.2054 90.0536 97.7197 86.935C102.271 82.8888 107.38 79.7404 112.615 76.775C113.17 76.4614 113.739 76.1693 114.294 75.8557C109.69 78.5017 105.186 81.3894 101.202 84.9964C99.8899 86.1824 98.6042 87.4004 97.3446 88.6505C97.1315 88.8364 96.9185 89.0223 96.7078 89.2194ZM175.248 50.2066C164.816 49.4763 154.584 50.5201 144.786 52.8786C147.156 52.2015 149.539 51.5802 151.961 51.0577C169.806 47.1409 189.393 47.6107 208.241 56.0628C210.823 57.2154 213.403 58.5382 215.956 59.9648C206.102 54.9446 195.739 51.8312 185.566 50.8549C182.962 50.6098 180.381 50.4761 177.81 50.4323C176.958 50.3494 176.105 50.2665 175.248 50.2066ZM186.65 45.8814C182.78 45.0184 178.923 44.4488 175.078 44.1161C181.395 44.3416 187.782 45.2185 194.171 46.9332C196.28 47.4988 198.384 48.178 200.492 48.9248C196.029 47.5517 191.564 46.5863 187.087 45.973C186.939 45.9615 186.793 45.9159 186.65 45.8814ZM57.1625 116.979C56.6564 117.753 56.1527 118.538 55.6585 119.323C56.4791 117.97 57.2901 116.618 58.1249 115.287C66.02 102.632 74.6322 90.5226 84.0248 79.3511C86.198 76.7752 88.4046 74.2195 90.6897 71.7597C92.5431 69.9214 94.4656 68.1797 96.4879 66.5891C90.2777 72.1985 84.7379 78.8217 79.4367 85.4722C72.8391 93.7492 66.6031 102.452 60.7864 111.485C60.6329 111.723 60.4722 111.973 60.3187 112.211C59.2658 113.797 58.2011 115.372 57.1625 116.979ZM260.079 185.474C260.572 183.172 261.011 180.84 261.372 178.458C261.545 177.346 261.684 176.215 261.826 175.094C262.107 173.805 262.366 172.506 262.613 171.196C262.492 174.388 262.248 177.554 261.888 180.672C261.864 180.878 261.839 181.084 261.812 181.278C261.745 181.6 261.677 181.922 261.609 182.245C260.86 185.313 259.987 188.301 259.006 191.239C259.411 189.34 259.772 187.422 260.079 185.474ZM239.797 76.2043C238.02 74.0397 236.163 71.9604 234.254 69.953C238.076 73.4353 241.735 77.2017 244.925 81.3206C245.99 82.6896 246.934 84.0791 247.833 85.4834C247.519 85.1448 247.152 84.7421 246.705 84.2323C245.31 82.6843 243.875 81.1734 242.415 79.6869C241.593 78.5034 240.725 77.3346 239.797 76.2043ZM245.015 86.3414C243.686 84.2789 242.107 82.2239 240.451 80.2654C241.865 81.8119 243.269 83.3592 244.683 84.9058C245.184 85.8078 245.666 86.7113 246.112 87.6288C245.807 87.2894 245.493 86.9508 245.179 86.6121C245.132 86.5251 245.072 86.4277 245.015 86.3414ZM138.454 47.6719C133.23 49.4475 128.124 51.5087 123.141 53.8322C119.072 55.6113 115.083 57.5428 111.183 59.6601C108.693 61.0143 106.242 62.4108 103.859 63.9041C104.948 63.0859 106.056 62.3116 107.188 61.5582C107.616 61.2881 108.025 61.0194 108.465 60.7597C122.216 52.396 137.194 45.9779 153.243 42.9326C155.754 42.4601 158.293 42.076 160.861 41.7804C162.466 41.6593 164.078 41.5717 165.692 41.5405C157.916 42.3084 150.351 43.9435 143.017 46.252C141.48 46.6963 139.958 47.1622 138.454 47.6719ZM259.234 134.945C259.235 134.537 259.236 134.129 259.238 133.721C259.734 136.073 260.176 138.44 260.568 140.8C260.577 141.898 260.564 142.986 260.544 144.086C260.216 141.291 259.816 138.479 259.354 135.649C259.314 135.414 259.274 135.179 259.234 134.945ZM254.758 101.312C254.99 101.951 255.215 102.602 255.428 103.243C255.464 103.365 255.501 103.498 255.537 103.62C255.109 102.973 254.674 102.337 254.22 101.704C253.996 100.735 253.762 99.7678 253.519 98.801C253.956 99.6287 254.367 100.47 254.758 101.312ZM258.035 115.445C258.031 115.378 258.014 115.3 258.01 115.232C258.029 115.321 258.036 115.4 258.054 115.489C258.05 115.467 258.038 115.457 258.035 115.445ZM256.173 111.272C256.164 111.227 256.155 111.183 256.145 111.138C256.159 111.205 256.181 111.26 256.195 111.327C256.202 111.315 256.188 111.293 256.173 111.272ZM256.07 105.776C256.084 105.843 256.089 105.911 256.103 105.978C256.205 107.012 256.307 108.046 256.419 109.079C256.073 108.222 255.719 107.377 255.34 106.545C255.288 106.39 255.236 106.236 255.181 106.07C255.005 105.234 254.828 104.398 254.639 103.552C255.127 104.296 255.602 105.03 256.07 105.776ZM257.191 117.604C257.236 117.77 257.269 117.927 257.314 118.093L257.476 119.689C257.378 118.994 257.289 118.299 257.191 117.604ZM252.189 93.8851C252.156 93.7743 252.126 93.6747 252.092 93.564C252.23 93.8933 252.384 94.2101 252.515 94.5513C252.408 94.3215 252.303 94.1029 252.189 93.8851ZM259.017 125.88C259.041 125.991 259.055 126.103 259.078 126.215C259.057 126.16 259.043 126.093 259.021 126.038C259.029 125.981 259.019 125.936 259.017 125.88ZM258.176 110.736C258.143 110.534 258.103 110.345 258.07 110.143C258.318 110.951 258.55 111.772 258.77 112.582C258.906 113.455 259.032 114.329 259.158 115.202C258.864 113.718 258.53 112.226 258.176 110.736ZM252.859 101.693C252.384 100.868 251.892 100.056 251.374 99.2573C251.84 99.811 252.299 100.376 252.742 100.955C252.784 101.2 252.826 101.446 252.859 101.693ZM253.205 104.022C253.132 103.858 253.068 103.693 252.994 103.529C252.942 103.419 252.88 103.311 252.828 103.201C252.949 103.407 253.061 103.614 253.173 103.821C253.187 103.888 253.201 103.955 253.205 104.022ZM250.948 101.973C250.767 101.715 250.589 101.468 250.408 101.21C250.174 100.605 249.932 100.012 249.678 99.4079C250.056 100.002 250.415 100.598 250.766 101.205C250.83 101.461 250.894 101.717 250.948 101.973ZM259.189 129.954C259.187 129.717 259.183 129.468 259.172 129.231C259.519 130.507 259.874 131.771 260.192 133.049C260.269 133.598 260.344 134.136 260.419 134.674C260.455 135.487 260.493 136.31 260.519 137.124C260.101 134.732 259.674 132.341 259.189 129.954ZM261.679 139.765C261.889 140.802 262.077 141.83 262.267 142.869C262.353 144.379 262.42 145.892 262.457 147.395C262.403 146.776 262.369 146.156 262.316 145.537C262.136 143.626 261.922 141.694 261.679 139.765ZM261.422 135.561C261.414 134.837 261.4 134.124 261.383 133.401C261.56 134.837 261.716 136.263 261.862 137.69C261.867 137.758 261.871 137.826 261.878 137.904C261.739 137.201 261.612 136.509 261.474 135.806C261.467 135.727 261.441 135.65 261.422 135.561ZM262.836 141.931C262.859 142.088 262.882 142.245 262.903 142.39C262.905 142.628 262.897 142.866 262.889 143.105C262.874 142.71 262.861 142.326 262.836 141.931ZM260.692 122.277C260.588 121.232 260.483 120.186 260.36 119.143C260.715 120.826 261.042 122.511 261.35 124.198C261.139 123.568 260.917 122.928 260.692 122.277ZM256.732 101.65C257.111 103.354 257.467 105.082 257.796 106.824C257.571 106.218 257.353 105.6 257.109 104.996C256.713 103.078 256.28 101.163 255.793 99.2749C256.092 99.9544 256.379 100.623 256.661 101.316C256.675 101.428 256.699 101.539 256.732 101.65ZM251.865 90.4672C251.414 89.4821 250.956 88.5089 250.446 87.5623C250.41 87.4404 250.387 87.3289 250.351 87.207C250.454 87.3239 250.558 87.4519 250.661 87.5687C251.19 88.6498 251.686 89.756 252.143 90.8652C252.058 90.7358 251.96 90.5959 251.865 90.4672ZM251.598 94.4845C250.787 93.2662 249.917 92.0863 248.887 90.8391C248.549 90.4343 248.194 90.0421 247.859 89.6485C247.484 88.7935 247.102 87.9504 246.691 87.1095C247.501 87.9996 248.319 88.889 249.129 89.7791C249.963 91.0637 250.728 92.3874 251.45 93.7371C251.494 93.9941 251.546 94.2393 251.598 94.4845ZM251.319 95.0038C251.509 95.3065 251.69 95.6099 251.871 95.9134C252.085 97.0183 252.28 98.1246 252.465 99.2316C251.599 97.3833 250.62 95.6001 249.534 93.8589C249.236 93.0435 248.928 92.2288 248.603 91.4267C249.529 92.5911 250.44 93.7793 251.319 95.0038ZM251.603 98.3228C251.292 97.95 250.978 97.566 250.656 97.194C250.474 96.6076 250.283 96.0219 250.081 95.4369C250.618 96.3702 251.133 97.3391 251.603 98.3228ZM246.006 94.2949C246.166 94.5887 246.322 94.8713 246.472 95.1657C246.156 94.68 245.83 94.195 245.497 93.7219C245.664 93.9132 245.84 94.1037 246.006 94.2949ZM235.564 84.1897C237.973 86.6349 240.305 89.1766 242.537 91.8391C242.606 91.9358 242.685 92.0318 242.754 92.1285C242.13 91.4735 241.499 90.8303 240.859 90.1879C240.157 89.4369 239.454 88.6859 238.745 87.9468C236.519 85.6349 234.212 83.4424 231.84 81.3566C233.101 82.2693 234.337 83.2065 235.564 84.1897ZM263.42 146.167C263.434 146.325 263.45 146.493 263.473 146.65C263.459 146.538 263.434 146.415 263.42 146.303C263.42 146.258 263.42 146.213 263.42 146.167ZM258.61 106.91C258.914 108.121 259.202 109.345 259.478 110.558C259.34 110.274 259.193 109.991 259.055 109.707C258.917 108.777 258.769 107.849 258.61 106.91ZM210.095 50.7821C214.757 52.9102 219.391 55.5047 223.851 58.5198C224.566 59.0547 225.288 59.5778 225.991 60.1475C226.977 60.9111 227.939 61.699 228.904 62.4982C229.285 62.8318 229.683 63.1528 230.066 63.4975C233.16 66.2875 236.229 69.2378 239.075 72.4201C237.832 71.223 236.565 70.0504 235.289 68.9238C231.363 65.1775 227.182 61.7901 222.898 58.739C219.827 56.5588 216.705 54.5976 213.52 52.845C212.369 52.1278 211.234 51.4434 210.095 50.7821ZM250.096 89.6269C250.305 90.1547 250.506 90.6943 250.707 91.234C249.467 89.1761 248.09 87.2531 246.62 85.3937C247.805 86.7764 248.966 88.1835 250.096 89.6269ZM246.997 89.521C247.161 89.8823 247.322 90.2325 247.467 90.5952C247.22 90.1156 246.954 89.6375 246.688 89.1593C246.79 89.2761 246.892 89.393 246.997 89.521ZM262.205 158.885C262.108 160.307 261.987 161.709 261.84 163.125C261.926 162.065 261.992 160.996 262.054 159.915C262.108 159.571 262.161 159.228 262.205 158.885ZM262.915 156.272C262.918 156.193 262.93 156.112 262.93 156.022C263.018 154.418 263.064 152.796 263.09 151.175C263.152 150.457 263.206 149.75 263.254 149.056C263.296 149.347 263.348 149.638 263.392 149.94C263.434 150.413 263.475 150.885 263.517 151.358C263.404 153.393 263.228 155.41 263.012 157.42C262.977 157.026 262.945 156.643 262.915 156.272ZM264.243 160.078C264.25 161.12 264.235 162.151 264.213 163.195C264.074 165.617 263.876 168.033 263.606 170.431C263.521 171.173 263.416 171.917 263.318 172.649C263.384 170.708 263.399 168.759 263.386 166.813C263.722 164.591 264.005 162.35 264.243 160.078ZM260.956 117.784C260.595 116.17 260.208 114.568 259.762 112.96C259.935 113.411 260.106 113.851 260.269 114.303C260.485 115.374 260.714 116.455 260.911 117.527C260.928 117.605 260.947 117.694 260.956 117.784ZM253.441 89.8388C253.431 89.7942 253.422 89.7496 253.4 89.6946C253.424 89.7608 253.448 89.8269 253.469 89.8819C253.457 89.8715 253.452 89.8492 253.441 89.8388ZM251.982 87.3898C251.78 87.0766 251.578 86.7635 251.378 86.4615C250.965 85.5641 250.543 84.6675 250.085 83.7848C250.589 84.5168 251.069 85.2732 251.522 86.043C251.674 86.4845 251.828 86.9371 251.982 87.3898ZM231.503 70.8965C232.287 71.5735 233.063 72.2622 233.816 72.9755C234.399 73.6222 234.991 74.2682 235.572 74.9038C235.41 74.7348 235.236 74.5555 235.077 74.3976C233.889 73.1851 232.682 72.0192 231.458 70.866C231.479 70.8757 231.491 70.8861 231.503 70.8965ZM193.638 62.5545C191.659 62.2395 189.693 61.9803 187.731 61.7886C181.411 60.7254 175.187 60.3457 169.079 60.5574C174.634 60.161 180.283 60.2556 185.971 60.9022C188.52 61.344 191.078 61.8758 193.638 62.5545ZM100.381 89.0555C102.003 87.7328 103.688 86.5187 105.413 85.3581C103.484 86.7945 101.617 88.3394 99.8357 90.0138C95.8013 93.7945 91.9953 97.875 88.3248 102.138C92.1322 97.6043 96.0828 93.0599 100.381 89.0555ZM259.019 141.551C259.039 141.233 259.049 140.915 259.069 140.596C259.53 143.924 259.871 147.239 260.095 150.551C260.086 150.643 260.078 150.745 260.068 150.836C259.98 151.658 259.87 152.471 259.76 153.283C259.706 149.901 259.53 146.495 259.189 143.09C259.128 142.573 259.067 142.057 259.019 141.551ZM261.343 152.416C261.439 150.71 261.492 148.985 261.516 147.262C261.579 147.744 261.633 148.227 261.686 148.71C261.704 149.162 261.722 149.613 261.74 150.065C261.801 152.789 261.771 155.498 261.658 158.179C261.661 158.19 261.654 158.202 261.656 158.213C261.58 156.293 261.481 154.353 261.343 152.416ZM262.723 164.915C262.727 165.073 262.731 165.231 262.728 165.401C262.711 165.505 262.694 165.608 262.687 165.71C262.697 165.438 262.7 165.177 262.723 164.915ZM193.853 36.4264C192.059 35.9729 190.272 35.5982 188.484 35.2688C182.894 33.8449 177.328 33.0419 171.823 32.7551C180.698 32.9575 189.721 34.4621 198.689 37.6808C200.17 38.2145 201.644 38.8053 203.106 39.4311C200.034 38.2134 196.938 37.2014 193.853 36.4264ZM61.2383 103.978C61.1424 104.121 61.0441 104.253 60.9386 104.397C61.1017 104.158 61.2648 103.919 61.435 103.668C61.3702 103.775 61.3054 103.882 61.2383 103.978ZM61.7851 103.166C62.5261 102.08 63.2647 100.983 64.0176 99.9066C63.2671 100.994 62.5165 102.081 61.7851 103.166ZM216.263 57.0542C218.129 58.0796 219.986 59.1965 221.836 60.3705C221.928 60.4427 222.019 60.5038 222.112 60.5761C227.581 64.874 232.677 69.653 237.43 74.9222C235.339 73.0191 233.214 71.1864 231.011 69.4843C229.527 68.3394 228.016 67.2531 226.486 66.2135C225.876 65.7613 225.274 65.2972 224.656 64.8569C220.807 61.7049 216.807 58.8475 212.629 56.3432C209.706 54.5934 206.76 53.0493 203.782 51.6774C208.047 52.9408 212.208 54.7217 216.263 57.0542ZM177.803 51.0443C180.722 51.3562 183.643 51.8153 186.588 52.431C186.065 52.3459 185.54 52.2496 185.02 52.1757C179.664 51.4021 174.362 51.1567 169.14 51.3356C171.994 51.1089 174.895 51.0146 177.803 51.0443ZM201.142 56.1341C195.683 53.9529 190.251 52.4038 184.788 51.4005C187.204 51.6259 189.631 51.9523 192.056 52.4035C198.552 53.3854 204.912 55.4647 211.127 58.6532C215.556 60.3233 219.826 62.5716 223.934 65.387C224.508 65.7626 225.08 66.1724 225.647 66.5599C226.893 67.5869 228.112 68.6273 229.324 69.7248C230.868 71.7031 232.414 73.6926 233.949 75.6717C230.433 72.6305 226.781 69.9053 223.011 67.4948C216.265 62.8063 209.18 59.1285 201.922 56.4716C201.667 56.3663 201.409 56.2498 201.142 56.1341ZM214.146 62.4227C214.389 62.5628 214.623 62.7038 214.866 62.8439C214.05 62.4299 213.24 62.0381 212.42 61.647C211.623 61.1862 210.803 60.7499 209.993 60.3128C211.397 60.9881 212.775 61.6768 214.146 62.4227ZM230.078 73.382C230.471 73.6808 230.847 73.9921 231.24 74.2908C233.181 75.9448 235.086 77.7034 236.946 79.522C240.733 84.3998 244.527 89.2658 248.313 94.1435C248.411 94.374 248.491 94.617 248.588 94.8475C247.627 93.7877 246.639 92.7412 245.644 91.7066C245.573 91.5987 245.52 91.4894 245.452 91.3927C243.635 88.6309 241.517 86.3222 239.349 83.9154C235.808 79.9702 234.437 78.3072 229.967 74.3755C226.952 71.7268 223.853 69.277 220.687 67.0134C223.871 68.902 227.017 71.0199 230.078 73.382ZM213.141 63.042C216.457 64.9093 219.66 67.0682 222.74 69.5195C228.052 73.6254 233.007 78.2452 237.613 83.367C232.663 78.543 227.429 74.3065 221.987 70.686C210.903 62.69 198.92 57.604 186.831 55.187C195.464 56.3134 204.105 58.7641 212.479 62.6617C212.698 62.781 212.92 62.9115 213.141 63.042ZM194.078 59.8603C190.021 58.9434 185.998 58.3638 181.99 58.0434C178.574 57.633 175.182 57.4247 171.82 57.4065C175.333 57.3114 178.878 57.4176 182.501 57.8009C187.017 58.2755 191.563 59.1215 196.084 60.3543C195.412 60.2013 194.751 60.0134 194.078 59.8603ZM258.659 150.875C258.78 153.787 258.807 156.673 258.737 159.554C258.603 160.255 258.46 160.956 258.315 161.647C258.571 158.083 258.687 154.496 258.659 150.875ZM251.275 191.992C250.888 192.78 250.499 193.557 250.096 194.312C250.329 193.808 250.574 193.314 250.807 192.809C251.112 192.141 251.394 191.451 251.687 190.772C251.552 191.19 251.415 191.597 251.275 191.992ZM255.313 181.293C255.581 180.491 255.829 179.691 256.075 178.88C255.793 179.841 255.513 180.814 255.209 181.765C255.243 181.604 255.267 181.444 255.313 181.293ZM261.112 165.376C261.131 165.284 261.148 165.181 261.17 165.1C261.172 165.292 261.162 165.474 261.154 165.667C261.058 166.637 260.96 167.596 260.854 168.566C260.917 167.667 260.962 166.78 261.013 165.871C261.044 165.698 261.078 165.537 261.112 165.376ZM265.836 163.208C265.839 163.174 265.841 163.14 265.844 163.106C265.888 165.288 265.872 167.463 265.815 169.63C265.769 168.173 265.711 166.705 265.625 165.24C265.694 164.555 265.787 163.891 265.836 163.208ZM94.1463 76.8663C98.072 72.7088 102.269 68.6893 106.918 65.5191C112.787 61.5094 119.115 58.1105 125.52 55.0795C127.505 54.1371 129.527 53.2372 131.559 52.3818C138.577 49.8141 145.827 47.8404 153.283 46.6551C158.287 45.8585 163.415 45.415 168.598 45.4203C155.389 46.3376 142.8 49.9597 130.921 54.9664C122.731 58.4152 114.679 62.6575 107.329 67.6961C105.609 68.879 103.951 70.1704 102.354 71.5251C99.0503 73.7107 95.8987 76.1113 92.9441 78.8933C90.9042 80.8136 88.9308 82.8196 87.0003 84.8902C89.3196 82.1335 91.6961 79.463 94.1463 76.8663ZM125.852 58.3949C139.181 52.1691 153.354 47.6802 168.504 46.673C174.293 46.2815 180.169 46.3931 186.093 47.1464C192.003 48.3423 197.924 50.183 203.757 52.8002C207.253 54.3709 210.685 56.1954 214.039 58.2411C206.017 53.9885 197.394 50.9363 189.042 49.5283C171.885 46.6444 155.456 48.8124 139.969 53.7855C136.451 54.9115 132.981 56.2151 129.569 57.6615C123.5 60.033 117.601 62.7541 111.881 65.858C111.663 65.9763 111.455 66.0939 111.247 66.2116C115.938 63.2872 120.888 60.717 125.852 58.3949ZM105.949 70.2121C106.533 69.851 107.119 69.5011 107.705 69.1512C105.363 70.6527 103.083 72.2628 100.94 74.0663C99.5401 75.2477 98.1802 76.4826 96.8489 77.7607C98.8821 75.7163 100.987 73.7798 103.174 71.9615C104.088 71.3717 105.011 70.7811 105.949 70.2121ZM168.158 54.7727C169.607 54.7426 171.064 54.746 172.532 54.805C176.753 54.9395 181.002 55.389 185.269 56.1541C186.612 56.4037 187.963 56.6868 189.311 57.0041C188.118 56.7771 186.92 56.573 185.726 56.3913C169.275 53.9977 153.387 56.4759 138.629 61.496C148.054 58.0107 157.919 55.6018 168.158 54.7727ZM114.369 87.6491C115.943 86.6924 117.534 85.7684 119.148 84.8653C130.824 78.3 143.348 73.0862 156.613 70.2283C169.467 67.4468 183.198 66.8864 196.959 70.0039C197.71 70.2077 198.457 70.4344 199.203 70.6612C180.442 66.1998 162.35 68.2102 145.403 73.5766C141.746 74.7357 138.161 76.0933 134.634 77.5936C127.621 80.3648 120.856 83.8079 114.369 87.6491ZM256.422 168.719C256.395 169.005 256.37 169.301 256.343 169.586C256.278 169.829 256.213 170.071 256.138 170.315C256.24 169.786 256.33 169.247 256.422 168.719ZM258.557 172.805C259.297 169.42 259.926 165.964 260.404 162.44C260.382 163.574 260.347 164.698 260.294 165.823C259.776 168.24 259.193 170.628 258.525 172.977C258.535 172.931 258.54 172.863 258.557 172.805ZM260.023 170.237C259.862 172.412 259.638 174.569 259.371 176.706C258.29 180.638 257.004 184.472 255.556 188.182C256.314 185.203 256.975 182.175 257.545 179.086C258.468 176.197 259.3 173.247 260.023 170.237ZM259.551 180.543C259.646 179.936 259.722 179.33 259.807 178.723C259.824 178.665 259.831 178.608 259.851 178.561C260.102 177.455 260.342 176.339 260.56 175.213C260.62 174.993 260.671 174.774 260.732 174.554C260.635 175.705 260.505 176.836 260.375 177.967C260.153 178.89 259.928 179.801 259.682 180.703C259.569 181.085 259.446 181.468 259.332 181.85C259.393 181.404 259.488 180.978 259.551 180.543ZM259.418 184.505C258.256 189.801 256.746 194.92 254.917 199.859C256.155 196.12 257.208 192.281 258.079 188.32C258.555 187.084 258.984 185.896 259.418 184.505ZM254.319 207.593C255.818 204.445 257.179 201.195 258.407 197.863C257.108 201.868 255.609 205.752 253.898 209.504C253.295 210.83 252.663 212.111 252.022 213.394C252.829 211.476 253.606 209.549 254.319 207.593ZM267.038 178.449C266.964 179.112 266.869 179.764 266.784 180.416C267.408 172.669 267.377 164.756 266.727 156.766C267.323 163.356 267.521 169.898 267.242 176.339C267.176 177.035 267.121 177.741 267.038 178.449ZM54.4898 131.889C58.1189 125.456 62.0076 119.24 66.0416 113.161C67.6173 110.789 69.2263 108.436 70.8473 106.095C74.2344 101.548 77.7239 97.1174 81.3158 92.8039C85.7822 87.4393 90.4559 82.2289 95.598 77.6739C96.0792 77.2413 96.5866 76.8407 97.0844 76.4408C96.1552 77.3715 95.2499 78.323 94.3469 79.2857C82.342 92.149 71.6333 106.738 62.0351 122.08C59.8835 125.402 57.7939 128.787 55.7615 132.212C55.7327 132.26 55.6967 132.319 55.6679 132.367C52.1699 138.043 48.6955 143.831 45.5666 149.876C48.1376 143.579 51.2351 137.661 54.4898 131.889ZM58.4526 129.699C55.9121 133.752 53.3977 137.883 51.0166 142.139C52.6689 138.889 54.426 135.722 56.2545 132.617C56.4129 132.356 56.5712 132.095 56.7296 131.834C62.0913 123.265 67.7819 114.875 73.8557 106.921C68.4475 114.259 63.3392 121.914 58.4526 129.699ZM109.056 71.7782C112.206 69.8307 115.473 68.0669 118.734 66.3714C118.962 66.2523 119.201 66.1437 119.428 66.0246C118.259 66.6451 117.094 67.2878 115.946 67.9632C113.619 69.1692 111.328 70.4518 109.056 71.7782ZM103.063 78.2318C107.587 74.2443 112.673 70.9844 117.901 68.0762C118.817 67.6334 119.723 67.1913 120.643 66.7709C125.82 64.3534 131.103 62.1657 136.557 60.3728C139.377 59.4353 142.24 58.6078 145.136 57.8911C141.305 59.052 137.541 60.3891 133.857 61.8787C126.203 64.97 118.838 68.6962 111.786 72.9876C106.103 76.4511 101.089 80.5095 96.3418 85.3744C96.2795 85.447 96.2149 85.5085 96.143 85.5819C96.0616 85.656 95.9802 85.73 95.9012 85.8153C93.7556 87.9248 91.6767 90.1198 89.6262 92.3581C93.8504 87.3628 98.2342 82.48 103.063 78.2318ZM44.1966 164.292C44.1532 164.454 44.1074 164.605 44.0639 164.767C43.8116 165.318 43.5879 165.867 43.3523 166.406C43.629 165.694 43.908 164.994 44.1966 164.292ZM226.732 85.7052C229.139 87.2675 231.508 88.9232 233.797 90.7094C234.447 91.2152 235.083 91.7447 235.719 92.2742C239.624 95.8295 243.531 99.7131 246.916 104.021C246.671 103.734 246.428 103.458 246.174 103.171C240.207 96.5216 233.666 90.64 226.732 85.7052ZM249.625 200.949C248.266 203.43 246.817 205.804 245.297 208.115C247.031 204.746 248.619 201.286 250.052 197.735C251.061 195.621 252.004 193.466 252.879 191.271C253.889 189.021 254.82 186.72 255.693 184.378C255.352 185.887 254.997 187.375 254.599 188.843C254.082 190.716 253.518 192.548 252.92 194.359C251.892 196.611 250.794 198.811 249.625 200.949ZM253.679 194.733C255.222 191.242 256.636 187.647 257.908 183.973C257.213 186.426 256.461 188.838 255.63 191.2C253.762 196.323 251.592 201.208 249.143 205.877C249.784 204.414 250.41 202.917 251.057 201.339C252.1 198.747 252.848 197.003 253.537 195.072C253.578 194.944 253.633 194.838 253.679 194.733ZM247.24 211.479C243.394 218.404 238.914 224.619 234.08 230.499C235.209 229.043 236.314 227.567 237.391 226.048C239.565 222.974 241.619 219.829 243.579 216.567C244.809 214.72 245.978 212.808 247.106 210.844C248.123 209.227 249.116 207.589 250.083 205.92C250.182 205.742 250.28 205.565 250.379 205.388C249.37 207.457 248.335 209.494 247.24 211.479ZM251.024 224.476C257.302 212.803 261.877 200.048 264.019 185.935C264.19 184.858 264.327 183.761 264.466 182.675C264.105 186.71 263.561 190.703 262.829 194.631C261.083 202.123 258.597 209.286 255.562 215.958C253.351 220.745 250.879 225.302 248.161 229.663C247.554 230.558 246.938 231.454 246.307 232.328C247.979 229.812 249.562 227.202 251.024 224.476ZM267.645 154.771C267.209 150.966 266.636 147.148 265.947 143.338C265.74 140.059 265.422 136.765 265.005 133.456C265.429 135.972 265.818 138.502 266.193 141.01C266.905 145.621 267.379 150.206 267.645 154.771Z" fill="#FDC6DF"/>
<path d="M223.396 250.497C224.182 249.566 224.954 248.612 225.687 247.606C225.856 247.415 225.228 246.278 224.929 246.491C223.2 247.606 221.525 248.796 219.906 250.071C220.511 249.365 221.104 248.649 221.685 247.923C221.899 247.672 221.493 246.004 221.042 246.351C214.711 251.239 208.92 256.845 202.326 261.338C202.747 261.027 203.167 260.715 203.576 260.393C205.285 259 207.003 257.606 208.712 256.212C209.687 255.411 210.635 254.568 211.561 253.714C211.796 253.518 212.041 253.32 212.278 253.134C215.679 250.405 218.751 247.286 221.508 243.756C221.715 243.517 221.237 242.1 220.807 242.457C214.227 248.067 207.991 254.088 200.774 258.752C198.886 259.969 196.96 261.099 194.985 262.133C197.722 260.46 200.365 258.615 202.83 256.695C204.539 255.301 206.257 253.907 207.966 252.513C211.339 249.696 214.491 246.594 217.399 243.198C217.461 243.126 217.496 242.978 217.509 242.809C217.81 242.473 218.118 242.126 218.417 241.779C219.504 240.645 220.565 239.48 221.584 238.251C221.838 237.963 221.299 237.345 221.029 237.6C214.586 243.502 208.263 249.517 200.99 254.231C195.587 257.728 189.694 260.704 183.514 262.584C182.135 263.002 180.742 263.354 179.332 263.674C182.054 262.751 184.708 261.643 187.295 260.395C189.155 259.493 190.949 258.507 192.71 257.456C193.215 257.227 193.727 256.987 194.217 256.737C204.878 251.553 213.975 243.861 222.289 235.112C222.586 234.799 222.03 234.282 221.769 234.537C215.353 240.615 208.952 246.67 201.614 251.433C201.379 251.585 201.135 251.738 200.891 251.891C206.122 247.892 211.003 243.362 215.738 238.585C215.762 238.561 215.773 238.527 215.797 238.502C216.733 237.604 217.667 236.694 218.589 235.774C218.803 235.568 218.236 235.455 218.125 235.564C217.347 236.35 216.561 237.147 215.771 237.923C215.692 237.817 215.589 237.781 215.462 237.902C211.127 242.179 206.65 246.321 201.903 250.036C199.027 252.134 196.032 254.028 192.888 255.62C188.959 257.284 185.032 258.958 181.103 260.622C181.03 260.638 180.957 260.655 180.887 260.683C176.365 261.788 171.673 262.314 166.823 262.215C166.623 262.219 166.419 262.201 166.218 262.194C172.97 261.589 179.295 259.72 185.238 256.986C188.144 255.893 190.988 254.647 193.675 253.146C203.23 247.822 211.395 240.683 219.234 232.808C219.446 232.59 219.009 232.143 218.875 232.276C211.671 239.454 203.948 246.247 195.32 251.31C196.959 250.224 198.567 249.073 200.143 247.868C207.712 243.02 214.421 236.752 220.825 230.261C221.117 229.97 220.93 229.213 220.573 229.553C217.489 232.617 214.331 235.596 211.052 238.406C212.343 237.156 213.61 235.886 214.848 234.607C215.09 234.354 214.585 233.9 214.332 234.143C210.38 238.022 206.394 241.824 202.168 245.299C196.45 249.245 190.307 252.486 183.576 254.554C178.304 256.174 172.867 257.003 167.329 256.945C168.544 256.785 169.756 256.614 170.928 256.391C175.511 255.527 179.87 254.054 184.063 252.191C184.408 252.064 184.739 251.916 185.081 251.778C188.383 250.621 191.582 249.203 194.7 247.579C204.458 242.497 212.876 234.835 220.515 226.685C220.734 226.456 220.785 225.2 220.357 225.613C218.96 226.949 217.552 228.275 216.143 229.601C216.698 228.977 217.254 228.354 217.795 227.709C217.957 227.529 217.73 226.35 217.377 226.668C215.992 227.925 214.619 229.192 213.236 230.46C213.601 230.018 213.978 229.587 214.331 229.136C214.354 229.111 214.357 229.078 214.371 229.054C216.255 227.178 218.048 225.186 219.724 223.046C219.931 222.806 219.925 221.41 219.431 221.872C218.801 222.457 218.168 223.03 217.547 223.614C217.485 223.228 217.344 222.914 217.144 223.097C213.864 226.041 210.624 229.038 207.295 231.886C208.518 230.719 209.687 229.479 210.781 228.155C213.333 225.78 215.644 223.122 217.7 220.16C217.889 219.922 217.801 218.274 217.389 218.63C216.513 219.401 215.636 220.172 214.77 220.953C214.661 220.794 214.53 220.715 214.401 220.825C212.134 222.742 209.894 224.69 207.661 226.627C208.218 226.103 208.773 225.569 209.34 225.045C210.919 223.17 212.41 221.19 213.802 219.105C213.927 218.928 213.787 218.212 213.549 217.85C214.187 216.94 214.802 216.01 215.387 215.027C215.535 214.826 215.267 213.818 214.91 214.113C209.971 218.235 205.333 222.881 200.163 226.673C198.255 228.071 196.313 229.393 194.328 230.651C197.429 228.492 200.407 226.107 203.137 223.63L208.009 219.01C209.862 217.259 211.33 215.079 212.425 212.481C212.637 212.174 212.06 212.151 211.929 212.251C206.95 216.319 202.326 220.942 197.166 224.734C193.648 227.316 190.005 229.707 186.196 231.808C176.768 237.01 165.717 239.966 154.387 238.953C146.738 238.273 139.013 235.867 131.727 231.74C130.296 230.821 128.856 229.902 127.425 228.983C123.503 226.085 119.354 221.92 116.338 217.757C116.366 216.66 116.414 215.572 116.493 214.493C116.824 212.936 117.186 211.388 117.625 209.89C118.603 206.507 119.835 203.339 121.344 200.307C123.933 195.068 127.423 190.576 131.199 186.499C131.688 185.97 130.14 183.036 130.1 183.073C129.451 183.749 128.809 184.412 128.176 185.075C128.148 184.988 128.121 184.901 128.093 184.814C128.634 184.169 129.187 183.534 129.759 182.898C129.898 182.742 129.878 182.419 129.797 182.079C130.52 181.208 131.263 180.346 132.028 179.494C132.437 179.038 130.612 176.283 130.457 176.451C129.554 177.414 128.671 178.387 127.81 179.369C127.708 178.293 127.125 176.415 126.875 176.68C126.456 177.136 126.035 177.582 125.619 178.05C126.252 177.297 126.897 176.555 127.563 175.822C127.84 175.511 127.07 172.786 126.689 173.195C125.842 174.109 125.006 175.034 124.192 175.968C124.141 175.771 124.069 175.653 123.921 175.81C122.631 177.205 121.373 178.609 120.172 180.064C122.374 176.431 124.929 173.117 127.745 170.007C127.924 169.815 127.163 168.453 126.92 168.706C126.236 169.441 125.574 170.195 124.932 170.948C124.904 170.906 124.881 170.885 124.843 170.888C125.978 169.438 127.171 168.039 128.407 166.659C128.745 166.276 127.803 165.733 127.584 165.962C124.309 169.476 121.247 173.052 118.892 177.501C118.598 178.049 118.326 178.618 118.043 179.176C118.022 179.211 117.998 179.235 117.977 179.27C116.05 181.943 114.355 184.811 112.879 187.953C113.317 185.952 113.84 183.99 114.479 182.086C114.586 181.776 114.707 181.487 114.813 181.177C117.323 175.967 120.765 171.613 124.501 167.572C124.751 167.307 124.491 166.477 124.195 166.791C123.505 167.548 122.818 168.315 122.15 169.082C121.968 168.805 121.794 168.975 121.639 169.143C120.636 170.226 119.686 171.326 118.758 172.448C118.931 172.133 119.103 171.818 119.287 171.513C121.061 168.885 123.059 166.464 125.272 164.249C125.404 164.105 125.042 163.876 124.875 163.855C125.494 163.171 126.134 162.496 126.79 161.853C127.092 161.517 127.065 160.525 126.589 161.03C123.601 164.276 120.929 167.666 118.638 171.507C117.785 172.757 116.96 174.049 116.188 175.416C115.931 175.872 115.677 176.338 115.434 176.815C114.776 177.771 114.133 178.748 113.527 179.766C114.7 176.044 116.273 172.638 118.167 169.486C119.137 168.294 120.139 167.123 121.195 165.98C121.459 165.692 121.103 165.585 120.731 165.58C122.492 163.12 124.418 160.805 126.474 158.569C126.707 158.316 126.951 156.297 126.398 156.887C123.191 160.362 120.183 163.922 117.862 168.302C116.595 169.807 115.395 171.352 114.276 172.969C116.865 167.909 120.154 163.645 123.86 159.595C124.053 159.38 123.762 158.083 123.439 157.906C124.148 157.058 124.88 156.231 125.623 155.415C125.934 155.078 125.904 154.074 125.887 153.584C125.89 153.595 125.877 152.489 125.55 152.838C124.866 153.572 124.204 154.327 123.553 155.081C123.402 154.5 123.186 154.013 123.017 154.205C120.612 156.781 118.344 159.413 116.388 162.401C118.573 158.915 121.106 155.77 123.863 152.743C124.235 152.335 123.623 149.229 123.329 149.554C122.442 150.504 121.576 151.465 120.733 152.446C120.573 152.134 120.424 151.877 120.342 151.76C120.409 151.442 120.235 150.885 119.998 150.3C120.627 149.57 121.267 148.85 121.914 148.119C122.222 147.771 121.734 145.897 121.64 145.446C121.612 145.314 121.466 144.163 121.116 144.536C117.81 148.086 114.694 151.677 112.292 156.175C111.677 157.328 111.103 158.501 110.555 159.705C109.279 162.027 108.15 164.461 107.168 167.006C105.505 171.347 104.302 176.021 103.694 180.897L103.909 177.192C104.272 174.515 104.849 171.945 105.647 169.48C106.625 166.097 107.858 162.929 109.366 159.897C112.038 154.506 115.285 150.358 119.172 145.947C119.481 145.6 119.084 144.613 118.963 144.175C118.977 144.241 118.457 142.258 118.238 142.487C115.584 145.327 114.136 146.645 111.93 149.988C109.645 153.448 107.693 157.141 106.137 161.172C103.352 168.348 101.814 176.379 102.124 184.817C102.192 186.734 102.377 188.71 102.649 190.69C102.495 193.552 102.529 196.444 102.798 199.364C103.096 202.605 103.702 205.912 104.588 209.186C104.829 213.158 105.591 217.158 106.765 221.081C107.089 222.632 107.482 224.19 107.95 225.741C108.342 227.019 108.787 228.282 109.265 229.519C110.385 234.956 112.229 240.303 114.941 245.249C115.062 245.508 115.19 245.756 115.32 246.014C117.499 252.007 120.79 257.668 124.762 262.529C135.812 276.038 152.264 283.814 166.882 284.152C174.549 284.327 181.763 282.837 188.574 280.239C192.211 279.044 195.741 277.523 199.152 275.754C204.877 272.791 210.338 268.752 215.246 264.488C216.89 263.01 218.536 261.543 220.179 260.065C221.788 258.288 223.335 256.437 224.821 254.524C225.058 254.249 224.527 253.988 224.342 254.103C223.558 254.453 222.811 254.846 222.081 255.27C221.954 255.168 221.72 255.141 221.61 255.205C220.224 255.915 218.907 256.72 217.624 257.6C219.687 255.62 221.616 253.461 223.368 251.092C223.465 251.006 223.458 250.75 223.396 250.497ZM201.357 270.22C197.739 272.508 193.945 274.542 189.995 276.196C182.579 278.952 174.526 280.305 166.303 279.569C162.585 279.238 158.742 278.581 155.015 277.345C155.116 277.371 155.214 277.386 155.305 277.412C158.08 278.24 160.862 278.832 163.598 279.16C173.654 280.371 183.075 278.546 191.925 274.998C195.335 273.631 198.714 271.842 201.932 269.83C201.739 269.956 201.549 270.094 201.357 270.22ZM110.069 186.726C109.702 187.614 109.354 188.501 109.032 189.42C109.028 189.264 109.012 189.098 109.008 188.941C109.198 187.753 109.448 186.583 109.78 185.44C110.052 184.279 110.377 183.148 110.714 182.026C110.477 183.263 110.294 184.529 110.159 185.791C110.12 186.107 110.1 186.421 110.069 186.726ZM107.232 218.217C107.32 218.457 107.418 218.695 107.508 218.945C107.551 219.467 107.615 219.999 107.667 220.52C107.496 219.751 107.353 218.979 107.232 218.217ZM110.42 179.534C110.352 179.662 110.295 179.8 110.236 179.928C110.931 177.472 111.788 175.104 112.793 172.803C113.551 171.057 114.399 169.416 115.309 167.849C114.777 168.996 114.26 170.164 113.791 171.385C112.597 173.779 111.536 176.263 110.636 178.88C110.548 179.099 110.489 179.316 110.42 179.534ZM124.48 248.813C124.238 248.564 123.988 248.326 123.743 248.065C123.295 247.518 122.856 246.97 122.422 246.4C122.824 246.771 123.233 247.131 123.632 247.492C123.907 247.941 124.198 248.377 124.48 248.813ZM106.081 189.612C106.581 186.902 107.237 184.259 108.095 181.712C108.147 181.552 108.211 181.401 108.272 181.24C108.079 182.73 107.94 184.25 107.832 185.779C107.19 187.627 106.625 189.526 106.166 191.472C106.13 190.938 106.095 190.405 106.071 189.881C106.071 189.792 106.081 189.701 106.081 189.612ZM110.356 225.356C110.628 225.883 110.91 226.409 111.189 226.925C111.365 227.537 111.553 228.16 111.747 228.771C111.826 229.738 111.914 230.703 112.042 231.677C112.044 231.688 112.049 231.71 112.051 231.721C111.657 230.98 111.271 230.227 110.913 229.472C110.662 228.094 110.48 226.722 110.356 225.356ZM106.469 195.015C106.761 193.316 107.138 191.655 107.577 190.023C107.495 191.315 107.444 192.615 107.432 193.924C107.429 194.181 107.442 194.426 107.439 194.684C107.236 195.493 107.053 196.3 106.881 197.118C106.736 196.425 106.598 195.72 106.469 195.015ZM107.661 199.842C107.663 199.942 107.668 200.054 107.67 200.154C107.667 200.188 107.674 200.221 107.672 200.255C107.542 199.818 107.429 199.368 107.318 198.929C107.38 198.544 107.452 198.159 107.524 197.773C107.563 198.463 107.603 199.153 107.661 199.842ZM108.757 218.95C108.731 218.327 108.724 217.701 108.717 217.076C108.807 216.141 108.895 215.195 108.985 214.261C109.017 214.504 109.056 214.736 109.097 214.979C109.178 216.046 109.277 217.111 109.416 218.185C109.407 218.912 109.427 219.648 109.448 220.384C109.206 219.911 108.973 219.437 108.757 218.95ZM114.026 233.057C113.783 232.215 113.561 231.382 113.365 230.537C113.507 230.761 113.668 230.983 113.817 231.195C114.002 232.12 114.214 233.043 114.438 233.976C114.298 233.673 114.156 233.36 114.026 233.057ZM110.948 211.853C110.946 211.976 110.952 212.099 110.956 212.21C110.926 212.157 110.884 212.093 110.844 212.04C110.861 211.938 110.88 211.847 110.897 211.745C110.923 211.777 110.93 211.81 110.948 211.853ZM111.024 215.491C110.959 215.317 110.892 215.132 110.827 214.959C110.799 214.827 110.772 214.695 110.753 214.562C110.844 214.812 110.923 215.052 111.011 215.291C111.015 215.358 111.02 215.424 111.024 215.491ZM109.584 213.164C109.598 213.23 109.612 213.296 109.633 213.351C109.617 213.318 109.603 213.297 109.586 213.265C109.589 213.231 109.591 213.197 109.584 213.164ZM110.088 209.929C110.074 209.863 110.053 209.809 110.04 209.743C110.058 209.786 110.079 209.84 110.098 209.884C110.093 209.906 110.086 209.918 110.088 209.929ZM112.593 222.984C112.598 222.916 112.603 222.849 112.608 222.781C112.636 222.868 112.664 222.956 112.701 223.042C112.73 223.364 112.759 223.686 112.789 224.008C112.715 223.656 112.646 223.326 112.593 222.984ZM110.261 217.17C110.545 217.797 110.845 218.411 111.154 219.025C111.204 220.217 111.291 221.406 111.418 222.604C110.953 221.063 110.548 219.496 110.219 217.922C110.224 217.676 110.249 217.428 110.261 217.17ZM110.743 206.325C110.717 206.427 110.691 206.53 110.674 206.632C110.468 205.966 110.273 205.31 110.107 204.652C110.136 204.471 110.155 204.29 110.182 204.098C110.21 203.962 110.241 203.837 110.279 203.7C110.407 204.584 110.571 205.455 110.743 206.325ZM110.443 221.314C110.619 221.972 110.804 222.628 111.006 223.272C110.915 223.112 110.824 222.951 110.733 222.79C110.629 222.295 110.528 221.811 110.443 221.314ZM111.582 225.386C111.586 225.542 111.601 225.708 111.606 225.865C111.552 225.79 111.487 225.706 111.433 225.632C111.35 225.325 111.259 225.03 111.176 224.724C111.309 224.948 111.442 225.173 111.582 225.386ZM113.688 233.988C113.79 234.338 113.899 234.676 114.001 235.026C113.628 234.429 113.255 233.831 112.908 233.221C112.833 232.679 112.774 232.124 112.717 231.581C113.019 232.385 113.339 233.188 113.688 233.988ZM115.43 239.075C114.733 238.022 114.085 236.931 113.461 235.816C113.981 236.615 114.526 237.401 115.088 238.174C115.2 238.478 115.311 238.783 115.43 239.075ZM117.731 241.784C118.406 242.872 119.134 243.934 119.887 244.984C119.208 244.197 118.55 243.375 117.908 242.541C117.855 242.288 117.793 242.036 117.731 241.784ZM115.683 231.232C115.904 231.517 116.135 231.801 116.364 232.074C116.436 232.236 116.515 232.386 116.587 232.549C116.284 232.147 115.99 231.745 115.689 231.354C115.687 231.298 115.68 231.265 115.683 231.232ZM107.915 203.69C107.946 203.978 107.957 204.257 107.998 204.544C107.907 205.155 107.825 205.765 107.753 206.374C107.376 205.576 107.023 204.753 106.69 203.94C106.786 202.759 106.903 201.588 107.059 200.424C107.316 201.511 107.602 202.607 107.915 203.69ZM109.495 221.7C109.513 221.967 109.538 222.222 109.553 222.478C109.311 221.96 109.086 221.429 108.86 220.899C108.842 220.721 108.836 220.554 108.827 220.376C109.046 220.829 109.272 221.27 109.495 221.7ZM110.184 222.989C110.203 223.032 110.228 223.063 110.247 223.107C110.341 223.558 110.445 224.008 110.549 224.459C110.512 224.417 110.481 224.363 110.444 224.321C110.379 224.192 110.311 224.052 110.244 223.912C110.229 223.611 110.202 223.3 110.184 222.989ZM132.969 259.187C129.874 257.098 126.918 254.675 124.195 251.954C123.521 251.145 122.872 250.322 122.256 249.475C123.928 251.136 125.676 252.657 127.487 254.072C129.105 255.748 130.782 257.297 132.53 258.729C132.675 258.874 132.813 259.031 132.969 259.187ZM119.062 238.541C118.509 237.723 117.964 236.892 117.456 236.059C117.825 236.501 118.21 236.929 118.586 237.359C118.746 237.76 118.904 238.151 119.062 238.541ZM115.58 228.512L115.541 227.554C115.586 227.629 115.642 227.714 115.686 227.789C115.815 228.36 115.946 228.942 116.094 229.512C115.92 229.179 115.745 228.846 115.58 228.512ZM111.594 199.195C111.712 198.851 111.845 198.528 111.963 198.184C111.807 199.078 111.682 199.982 111.576 200.885C111.573 200.326 111.578 199.755 111.594 199.195ZM106.239 196.463C106.361 197.136 106.483 197.808 106.623 198.479C106.442 199.477 106.281 200.484 106.141 201.5C106.034 200.76 105.952 200.006 105.889 199.251C105.989 198.315 106.098 197.379 106.239 196.463ZM105.755 205.207C105.687 206.107 105.646 207.004 105.615 207.901C105.576 206.942 105.549 205.994 105.559 205.044C105.562 204.876 105.567 204.719 105.57 204.551C105.635 204.769 105.7 204.988 105.755 205.207ZM107.406 210.134C107.404 210.212 107.394 210.302 107.391 210.381C107.299 212.031 107.283 213.686 107.315 215.338C107.271 215.219 107.229 215.11 107.185 214.991C106.983 214.391 106.81 213.79 106.627 213.189C106.49 211.31 106.45 209.435 106.499 207.576C106.784 208.437 107.086 209.286 107.406 210.134ZM109.009 222.609C109.221 223.073 109.43 223.527 109.658 223.979C109.754 225.123 109.863 226.277 110.006 227.417C109.858 227.071 109.702 226.736 109.553 226.39C109.516 226.259 109.491 226.138 109.463 226.006C109.284 224.879 109.131 223.74 109.009 222.609ZM162.022 271.68C163.839 271.943 165.639 272.074 167.438 272.116C165.523 272.206 163.588 272.197 161.645 272.066C160.207 271.796 158.767 271.47 157.332 271.076C158.213 271.188 159.098 271.277 159.979 271.344C160.661 271.459 161.342 271.575 162.022 271.68ZM119.956 242.81C118.602 240.666 117.41 238.432 116.401 236.117C116.306 235.711 116.214 235.316 116.12 234.909C117.328 236.997 118.664 239.007 120.124 240.93C120.75 242.28 121.417 243.604 122.137 244.901C121.378 244.233 120.651 243.539 119.956 242.81ZM119.926 238.799C120.012 238.893 120.108 238.987 120.192 239.07C121.977 241.862 123.997 244.502 126.24 246.935C126.301 246.998 126.35 247.05 126.411 247.112C124.409 245.242 122.532 243.194 120.839 240.976C120.518 240.263 120.202 239.527 119.926 238.799ZM122.525 239.976C122.938 240.447 123.344 240.93 123.774 241.39C124.117 241.755 124.477 242.107 124.827 242.46C124.413 242.123 124.007 241.774 123.598 241.414C123.241 240.938 122.882 240.452 122.525 239.976ZM124.064 240.82C122.731 239.412 121.497 237.886 120.326 236.299C120.791 236.744 121.255 237.189 121.727 237.622C122.536 238.801 123.392 239.932 124.281 241.038C124.206 240.954 124.136 240.892 124.064 240.82ZM117.919 232.402C117.774 231.799 117.637 231.194 117.511 230.589C117.62 230.748 117.73 230.908 117.849 231.066C118.058 231.475 118.249 231.885 118.466 232.282C118.763 232.841 119.094 233.374 119.409 233.921C118.904 233.423 118.407 232.913 117.919 232.402ZM134.692 244.849C132.898 243.879 131.189 242.724 129.532 241.453C127.971 240.007 126.479 238.478 125.072 236.853C125.457 237.192 125.857 237.508 126.25 237.836C128.102 239.494 130.03 241.013 131.996 242.394C133.608 243.679 135.277 244.871 136.975 245.971C136.259 245.646 135.541 245.309 134.827 244.95C134.79 244.908 134.736 244.879 134.692 244.849ZM153.43 244.302C152.676 244.203 151.927 244.081 151.175 243.948C147.67 243.042 144.175 241.777 140.732 240.118C145.582 242.218 150.59 243.658 155.598 244.416C156.169 244.506 156.736 244.575 157.301 244.632C156.021 244.573 154.733 244.47 153.43 244.302ZM109.876 173.159C109.461 173.996 109.059 174.854 108.702 175.652L108.709 175.64C109.247 174.023 109.871 172.5 110.521 171.009C110.298 171.719 110.078 172.44 109.876 173.159ZM160.923 269.025C160.246 268.931 159.559 268.838 158.878 268.723C160.642 268.957 162.394 269.092 164.117 269.128C163.057 269.119 161.984 269.089 160.923 269.025ZM135.084 257.595C134.553 257.289 134.027 256.96 133.501 256.631C131.364 255.118 129.317 253.441 127.346 251.624C126.844 251.003 126.354 250.392 125.886 249.746C125.699 249.492 125.529 249.225 125.342 248.971C129.593 252.481 134.152 255.285 138.848 257.419C144.561 260.996 150.671 263.514 156.789 264.936C149.567 264.113 142.25 261.743 135.084 257.595ZM131.839 252.79C128.897 251.025 126.182 248.84 123.684 246.236C123.592 246.165 123.52 246.092 123.429 246.021C122.842 245.038 122.297 244.028 121.79 243.016C122.196 243.5 122.614 243.993 123.045 244.463C125.991 247.703 129.199 250.51 132.589 252.912C133.152 253.372 133.712 253.821 134.28 254.258C133.457 253.784 132.65 253.298 131.839 252.79ZM137.658 255.375C136.042 254.437 134.429 253.42 132.846 252.322C131.818 251.506 130.809 250.644 129.811 249.748C128.393 247.844 126.963 245.93 125.545 244.026C127.2 245.376 128.901 246.632 130.655 247.772C131.79 248.781 132.947 249.755 134.143 250.647C141.842 256.386 150.151 260.033 158.575 261.771C154.47 261.503 150.317 260.736 146.221 259.461C143.321 258.352 140.455 256.995 137.658 255.375ZM131.087 246.968C128.917 244.976 126.916 242.793 125.089 240.484C127.136 242.117 129.257 243.598 131.422 244.93C135.549 248.304 139.991 251.095 144.596 253.247C140.038 251.818 135.508 249.749 131.087 246.968ZM186.769 249.012C185.391 249.62 183.995 250.185 182.58 250.706C180.787 251.245 178.97 251.708 177.11 252.063C174.378 252.573 171.588 252.853 168.771 252.911C169.347 252.845 169.92 252.757 170.499 252.656C173.793 252.372 176.989 251.714 180.07 250.685C183.209 249.663 186.209 248.428 189.158 246.996C190.949 246.133 192.691 245.173 194.427 244.18C195.333 243.686 196.225 243.171 197.113 242.633C196.03 243.42 194.945 244.196 193.819 244.919C191.546 246.389 189.195 247.765 186.769 249.012ZM122.221 187.117C120.901 189.051 119.671 191.09 118.571 193.342C116.07 198.418 114.168 204.118 113.204 210.161C113.151 209.952 113.096 209.733 113.042 209.525C113.04 209.469 113.031 209.425 113.029 209.369C113.218 208.226 113.438 207.091 113.74 205.984C114.551 202.535 115.646 199.255 117.002 196.133C118.597 192.468 120.547 189.223 122.744 186.205C122.57 186.509 122.395 186.813 122.221 187.117ZM111.466 190.576C111.529 190.381 111.593 190.186 111.657 189.991C111.574 190.411 111.49 190.831 111.419 191.261C111.438 191.036 111.446 190.801 111.466 190.576ZM110.325 191.77C110.315 191.815 110.303 191.849 110.294 191.895C110.318 190.373 110.403 188.869 110.556 187.37C110.788 186.794 110.996 186.197 111.249 185.63C111.469 185.132 111.7 184.645 111.932 184.158C111.601 185.536 111.322 186.932 111.094 188.346C110.804 189.464 110.549 190.612 110.325 191.77ZM109.634 194.751C109.532 195.262 109.436 195.761 109.345 196.282C109.271 194.656 109.197 193.029 109.124 191.403C109.363 190.636 109.593 189.869 109.856 189.123C109.713 190.989 109.639 192.861 109.634 194.751ZM104.765 187.51C104.727 188.061 104.693 188.623 104.667 189.183C104.665 189.217 104.653 189.252 104.653 189.296C104.656 188.949 104.641 188.604 104.647 188.268C104.678 188.009 104.722 187.76 104.765 187.51ZM185.187 263.518C181.932 264.761 178.567 265.756 175.129 266.398C167.958 267.728 160.377 267.513 152.868 265.638C155.498 266.141 158.117 266.456 160.707 266.582C162.977 266.689 165.284 266.557 167.555 266.306C173.662 266.398 179.57 265.355 185.187 263.518ZM178.357 262.933C175.195 263.889 171.972 264.56 168.697 264.933C160.796 265.055 152.649 263.408 144.739 259.708C145.413 259.925 146.094 260.13 146.773 260.324C152.33 262.337 158.016 263.468 163.534 263.751C166.27 263.9 168.94 263.73 171.557 263.262C173.52 263.078 175.435 262.764 177.324 262.319C179.894 261.899 182.413 261.282 184.872 260.513C182.759 261.434 180.598 262.259 178.357 262.933ZM196.303 254.186C195.11 254.992 193.898 255.755 192.669 256.486C191.552 257.019 190.427 257.518 189.287 257.985C189.573 257.852 189.869 257.717 190.155 257.584C192.264 256.551 194.311 255.411 196.303 254.186ZM167.523 262.921C168.071 262.946 168.608 262.961 169.152 262.965C168.87 262.986 168.594 263.03 168.312 263.051C163.751 263.332 159.081 262.962 154.438 261.941C157.057 262.3 159.674 262.47 162.257 262.429C162.303 262.425 162.35 262.422 162.39 262.43C164.098 262.668 165.81 262.84 167.523 262.921ZM161.762 261.885C157.295 261.299 152.891 259.969 148.54 257.887C146.199 257.082 143.904 256.039 141.682 254.755C148.96 258.347 156.651 260.319 164.222 260.714C166.947 260.853 169.61 260.694 172.21 260.239C173.315 260.143 174.405 259.982 175.491 259.798C173.973 260.238 172.427 260.636 170.865 260.956C167.908 261.573 164.857 261.884 161.762 261.885ZM193.303 251.777C190.413 253.585 187.417 255.199 184.314 256.576C181.508 257.595 178.603 258.42 175.597 258.985C162.924 261.383 148.957 259.017 136.322 251.04C142.228 254.043 148.422 255.962 154.552 256.847C159.839 258.209 165.152 258.743 170.242 258.343C178.47 257.693 186.104 255.299 193.303 251.777ZM151.578 254.38C153.882 254.964 156.198 255.38 158.496 255.663C157.42 255.622 156.347 255.547 155.258 255.44C154.029 255.121 152.804 254.778 151.578 254.38ZM118.475 173.733C117.928 174.49 117.417 175.278 116.917 176.076C117.076 175.74 117.245 175.414 117.413 175.077C117.757 174.626 118.11 174.174 118.475 173.733ZM113.52 181.052C113.175 181.906 112.841 182.769 112.529 183.643C112.626 183.199 112.726 182.767 112.836 182.334C113.06 181.903 113.284 181.473 113.52 181.052ZM114.601 175.616C113.899 177.446 113.266 179.339 112.706 181.26C112.699 181.271 112.692 181.283 112.685 181.295C112.027 182.474 111.42 183.716 110.846 184.978C111.213 182.547 111.78 180.157 112.498 177.81C113.536 175.943 114.681 174.179 115.908 172.487C115.445 173.506 115.006 174.545 114.601 175.616ZM125.269 260.177C127.298 262.314 129.456 264.295 131.726 266.078C133.442 267.769 135.241 269.353 137.117 270.808C132.764 267.854 128.746 264.271 125.269 260.177Z" fill="#FDC6DF"/>
</svg>
