<svg width="123" height="164" viewBox="0 0 123 164" fill="none" xmlns="http://www.w3.org/2000/svg">
<g id="Group 891">
<g id="Group 890">
<g id="Group">
<g id="Group_2">
<g id="Group_3">
<path id="Vector" d="M167.284 55.7099C167.123 54.7936 166.922 53.8724 166.672 52.9707C166.645 52.6551 166.612 52.335 166.579 52.0205C166.544 51.1407 166.497 50.2629 166.438 49.3872C166.328 47.6629 166.141 45.951 165.841 44.2635C165.283 39.8188 164.051 35.4901 161.054 32.0606C161.016 32.004 160.977 31.9418 160.939 31.8852C160.177 30.3645 159.216 28.9275 157.983 27.615C156.831 26.5693 155.679 25.5292 154.526 24.4835C152.846 23.0441 151.033 21.7577 149.086 20.6132C147.256 19.4724 145.373 18.4375 143.384 17.5055C142.948 17.3025 142.501 17.1184 142.06 16.9277C141.903 16.8561 141.752 16.7723 141.589 16.7017C136.692 14.4794 131.134 12.9305 125.518 12.3736C113.206 11.1506 100.742 13.4769 88.7792 17.5494C82.5692 19.6601 76.5045 22.3526 70.6894 25.3242C66.5027 27.4587 62.4542 29.7364 58.7315 32.5263C49.8754 39.1649 41.9822 46.9544 34.5518 54.8339C29.989 59.6748 25.5439 64.6506 21.5023 69.829C20.1154 71.6092 18.7494 73.4032 17.4518 75.2316C15.7811 77.578 14.5054 79.9228 13.2677 82.4441C13.1881 82.6114 13.5389 82.5598 13.6031 82.4922C14.7344 81.4849 15.603 80.3205 16.2032 79.0058C17.3383 77.2952 18.5418 75.6192 19.8004 73.9742C22.816 70.003 26.0518 66.1557 29.4072 62.3975C35.7405 55.2968 42.4814 48.4381 49.6685 42.0035C53.6825 38.4119 57.9511 34.6531 62.6092 31.7047C63.5259 31.1209 64.4659 30.5732 65.4128 30.0302C64.1524 30.7958 62.9223 31.6022 61.7375 32.4697C52.3813 39.2813 44.1704 47.4368 36.3921 55.6417C31.8147 60.4678 27.3777 65.4594 23.3361 70.6378C22.491 71.7183 21.6605 72.8136 20.8432 73.9125C19.7833 75.2908 18.731 76.6794 17.7262 78.0888C16.0607 80.4229 14.7884 82.7385 13.5692 85.2511C13.5161 85.3626 13.7023 86.0863 13.9156 85.8972C13.4707 86.7182 13.0398 87.5483 12.6251 88.41C12.5398 88.5839 12.8937 89.2402 13.1149 88.9413C13.4996 88.4101 13.8697 87.8641 14.2404 87.3237C14.3126 87.5176 14.4188 87.6659 14.5205 87.5236C15.8013 85.7207 16.9808 83.8772 18.1944 82.051C17.8319 82.67 17.4828 83.2926 17.1412 83.9253C15.6122 86.14 14.2355 88.387 13.0439 90.7923C12.9534 90.9784 13.3258 91.3175 13.499 91.055C14.5602 89.4422 15.6011 87.8213 16.6477 86.1937C16.354 86.7273 16.0667 87.2597 15.7863 87.7968C15.701 87.9707 15.7877 88.7962 16.0255 88.4089C17.9016 85.3664 19.7956 82.3723 21.9649 79.4703C22.4986 78.7548 23.0519 78.0418 23.6059 77.3345C22.5802 78.7301 21.6014 80.1409 20.6708 81.5782C19.4511 83.2854 18.2923 85.0169 17.2361 86.8003C15.6718 89.0494 14.2402 91.3282 13.0052 93.7519C12.9025 93.9458 13.1907 94.1615 13.3119 93.9589C14.083 92.6677 14.8826 91.4004 15.696 90.1422C15.75 90.2248 15.8178 90.2537 15.8946 90.1212C16.3938 89.2628 16.9197 88.4115 17.4525 87.5647C17.5018 87.6024 17.5706 87.5797 17.6641 87.4216C17.977 86.885 18.3043 86.3631 18.6246 85.8367C19.5838 84.4862 20.5702 83.1484 21.6157 81.818C23.3868 79.5638 25.2407 77.3589 27.1225 75.1722C23.8892 79.1676 20.8914 83.3073 18.4145 87.659C16.5279 90.292 14.7913 92.9976 13.2918 95.8016C13.1568 96.0579 13.5697 96.0419 13.6949 95.8158C14.902 93.6193 16.2517 91.4853 17.6831 89.3893C17.7619 89.3993 17.8787 89.3403 17.9711 89.1709C18.1609 88.8201 18.364 88.4727 18.5602 88.1208C19.3496 87.0036 20.1605 85.9058 20.9916 84.8162C19.213 87.3059 17.5636 89.8544 16.1466 92.5193C16.1201 92.575 16.1787 92.6397 16.2535 92.6732C15.9586 93.1955 15.6764 93.7157 15.4013 94.2405C15.3257 94.3842 15.7037 94.3453 15.747 94.264C16.2946 93.2492 16.8763 92.2516 17.4841 91.2555C17.585 91.2905 17.7846 91.2179 17.8659 91.0675C18.5652 89.7709 19.3121 88.495 20.0994 87.2354C24.5584 80.7892 29.9788 74.7402 35.3546 68.944C42.1207 61.647 49.281 54.5256 57.0894 48.0867C57.9057 47.4107 58.7423 46.7428 59.5865 46.0852C61.0911 44.9941 62.6462 43.9519 64.2727 42.9723C65.0709 42.4935 65.8836 42.0295 66.7032 41.57C65.0237 42.6611 63.3953 43.8067 61.826 45.0226C52.3927 52.3324 44.0058 60.848 36.1073 69.4495C34.7476 70.934 33.3961 72.4342 32.0655 73.9482C28.6845 77.6477 25.4173 81.443 22.3756 85.35C19.2535 89.3557 16.3377 93.4135 14.0869 97.8197C13.9582 98.0749 14.1144 98.575 14.3308 98.1683C14.9008 97.1213 15.5115 96.0904 16.1487 95.0667C15.8885 95.549 15.6353 96.0359 15.389 96.5274C15.3192 96.6645 15.4189 96.9967 15.5458 97.0331C15.1043 97.8249 14.6768 98.6259 14.2789 99.4621C14.2253 99.568 14.0726 99.9642 14.1729 100.056C14.2304 100.11 14.3783 100.223 14.4533 100.073C15.3292 98.4852 16.2793 96.9248 17.2844 95.3954C17.3807 95.4482 17.5092 95.4387 17.5808 95.3184C18.189 94.2651 18.8309 93.2235 19.4925 92.1844C20.3512 90.9873 21.2378 89.8086 22.1452 88.6437C21.6462 89.3192 21.1472 89.9948 20.6685 90.6785C19.8399 91.8534 19.0518 93.0446 18.3118 94.2622C17.5646 95.3496 16.9861 96.5009 16.5889 97.7139C16.5837 97.7262 16.5855 97.7431 16.5873 97.7599C15.9985 98.7529 15.857 99.193 15.0014 101.098C14.9281 101.264 15.0398 102.08 15.2585 101.696C15.6186 101.054 16.0059 100.425 16.3863 99.7921C16.3398 100.028 16.5423 100.783 16.7841 100.373C20.741 93.6485 25.7007 87.4062 30.9423 81.3807C36.6928 74.775 42.8087 68.3782 49.2894 62.3103C45.0892 66.3493 41.038 70.5124 37.1475 74.7865C37.0949 74.8408 37.0429 74.9007 36.9903 74.955C32.9233 79.3378 28.9591 83.8352 25.3363 88.4997C23.9443 90.2922 22.587 92.1075 21.2975 93.9518C20.4573 95.1401 19.6716 96.3538 18.934 97.5938C18.1643 98.7135 17.6229 99.9101 17.2895 101.176C16.8891 101.926 16.7506 102.457 16.0263 104.318C15.9503 104.519 16.2943 104.526 16.3768 104.386C17.2367 102.892 18.1708 101.426 19.1327 99.9778C19.1837 100.032 19.2394 100.069 19.2985 100.076C18.6289 101.163 18.1673 102.318 17.9399 103.543C17.8696 103.737 18.1525 103.902 18.2795 103.693C22.6834 96.3533 28.1718 89.5334 33.992 82.9735C41.1087 74.9452 48.7449 67.1748 57.0059 60.0507C60.219 57.2811 63.5455 54.4816 67.1829 52.174C69.8786 50.46 72.7259 48.9554 75.5779 47.4958C80.3853 45.0429 85.3275 42.825 90.393 40.9183C94.0763 39.6029 97.8161 38.4553 101.611 37.5216C111.826 34.9969 122.457 34.0323 132.485 35.8911C138.053 36.9242 143.391 38.8403 148.1 41.4876C150.71 42.9637 153.14 44.6406 155.39 46.5125C157.314 47.9921 158.998 49.6593 160.456 51.5121C160.609 51.7328 160.749 51.9555 160.889 52.1783C160.929 52.503 160.957 52.8242 160.991 53.1499C161.033 54.971 161.031 56.7993 160.971 58.6314C160.948 58.9665 160.918 59.297 160.888 59.6331C160.464 62.1246 159.877 64.6195 159.092 67.1299C157.057 73.6487 153.894 79.9176 149.778 85.7479C144.197 93.6569 137.097 100.306 129.497 106.751C129.259 106.955 129.441 107.451 129.482 107.661C129.479 107.628 129.656 108.633 129.822 108.491C135.96 103.416 141.907 98.1209 146.772 92.0254C151.94 85.5491 156.084 78.6345 158.746 71.1736C158.987 70.5059 159.208 69.8414 159.417 69.1733C159.216 70.0344 158.989 70.8997 158.749 71.7558C156.73 77.5694 153.827 83.1674 150.149 88.4122C149.687 89.0703 149.21 89.7136 148.728 90.358C148.521 90.6144 148.323 90.8811 148.116 91.1375C143.17 97.2005 137.344 102.465 131.259 107.617C131.122 107.731 131.12 108.085 131.142 108.413C130.732 108.765 130.328 109.117 129.918 109.464C129.668 109.676 129.87 110.237 129.906 110.46C129.902 110.421 130.094 111.514 130.255 111.38C130.297 111.344 130.344 111.302 130.386 111.267C130.374 111.337 130.376 111.417 130.379 111.508C129.879 111.927 129.386 112.35 128.879 112.764C128.576 113.025 129.378 114.185 129.49 114.087C130.49 113.244 131.483 112.396 132.474 111.537C132.505 111.589 132.552 111.604 132.629 111.535C136.747 108.063 140.8 104.477 144.517 100.642C144.424 100.749 144.332 100.861 144.24 100.973C140.481 104.894 136.389 108.544 132.18 112.134C132.05 112.246 131.994 112.638 131.992 112.987C131.106 113.748 130.214 114.5 129.307 115.242C129.069 115.441 129.652 116.179 129.842 116.017C130.544 115.423 131.246 114.828 131.947 114.228C131.837 114.595 131.857 115.282 132.054 115.119C136.956 110.977 141.702 106.712 145.94 102.044C145.04 103.156 144.111 104.245 143.149 105.321C140.278 108.081 137.26 110.727 134.185 113.337C133.989 113.501 133.443 114.778 133.901 114.389C134.263 114.078 134.626 113.774 134.989 113.463C133.12 115.162 131.208 116.811 129.239 118.418C128.96 118.652 129.506 118.797 129.685 118.648C134.33 114.713 138.918 110.668 142.995 106.255C145.953 103.401 148.756 100.424 151.281 97.2702C149.766 99.6198 148.12 101.899 146.331 104.099C146.285 104.153 146.232 104.207 146.186 104.26C145.101 105.403 143.995 106.531 142.835 107.629C140.002 110.377 137.033 113.004 133.941 115.513C133.852 115.591 133.437 115.956 133.516 116.091C133.547 116.143 133.589 116.165 133.627 116.164C133.27 116.463 132.92 116.771 132.556 117.065C132.348 117.242 132.396 117.634 132.645 117.422C135.679 114.853 138.683 112.249 141.531 109.521C140.602 110.484 139.653 111.433 138.669 112.365C135.829 115.108 132.866 117.734 129.768 120.245C129.53 120.444 129.433 121.002 129.82 120.676C130.462 120.132 131.104 119.581 131.74 119.038C131.812 119.049 131.92 119.025 131.985 118.969C139.526 112.574 146.909 105.781 152.33 97.83C152.919 96.9627 153.494 96.0862 154.043 95.2082C154.714 94.2533 155.357 93.2857 156.009 92.2767C154.514 95.3085 152.77 98.2552 150.781 101.082C149.55 102.808 148.258 104.499 146.902 106.148C142.908 110.416 138.507 114.334 133.963 118.189C133.719 118.394 134.586 118.442 134.764 118.287C135.311 117.826 135.852 117.361 136.399 116.894C134.847 118.279 133.268 119.645 131.668 121.003C131.626 121.038 131.609 121.115 131.598 121.203C131.241 121.501 130.884 121.799 130.527 122.098C130.301 122.289 130.215 123.382 130.435 123.198C132.19 121.712 133.936 120.21 135.647 118.68C138.85 115.934 141.971 113.151 144.9 110.148C145.023 110.02 145.145 109.885 145.267 109.757C140.844 114.752 135.829 119.244 130.645 123.655C130.377 123.881 130.394 125.273 130.608 125.089C131.423 124.402 132.237 123.703 133.051 123.005C133.151 123.154 133.245 123.253 133.281 123.219C134.62 122.092 135.945 120.956 137.255 119.805C135.739 121.161 134.203 122.503 132.64 123.838C132.592 123.874 132.578 123.928 132.558 123.982C132.136 124.343 131.72 124.702 131.298 125.062C131.012 125.303 131.217 126.938 131.443 126.746C131.936 126.329 132.436 125.905 132.93 125.487C132.95 125.495 132.97 125.497 132.987 125.483C133.607 124.965 134.219 124.442 134.83 123.914C134.84 123.941 134.849 123.968 134.858 123.995C134.335 124.435 133.805 124.881 133.274 125.316C133.03 125.522 133.265 126.089 133.312 126.293C133.31 126.276 133.375 126.58 133.467 126.839C133.033 127.212 132.6 127.591 132.167 127.965C131.9 128.197 132.188 129.835 132.439 129.629C132.968 129.182 133.497 128.73 134.02 128.285C134.169 128.649 134.35 128.957 134.356 128.956C140.449 123.819 146.415 118.527 151.286 112.424C156.455 105.948 160.599 99.0335 163.26 91.5726C163.646 90.4929 163.991 89.4026 164.317 88.3097C164.407 88.0608 164.511 87.8153 164.594 87.5618C167.136 80.3719 168.184 73.0944 168.088 65.7696C168.052 62.4051 167.868 58.9905 167.284 55.7099ZM88.5596 31.238C92.3653 29.7312 96.235 28.4025 100.172 27.2855C101.03 27.0655 101.894 26.8444 102.755 26.6525C111.402 24.6808 120.319 23.9219 128.833 24.9995C130.273 25.2615 131.693 25.5838 133.086 25.9562C128.459 25.1406 123.657 24.8622 118.824 25.1028C115.815 25.257 112.819 25.592 109.833 26.0852C102.588 26.9767 95.4743 28.8066 88.5596 31.238ZM62.2155 43.7366C59.6709 45.4088 57.2719 47.2971 54.9472 49.2133C51.6506 51.928 48.458 54.7685 45.3511 57.6864C47.5717 55.5187 49.834 53.3785 52.1538 51.2917C54.8221 48.8853 57.5657 46.5179 60.4284 44.2968C63.5784 41.8517 66.8363 39.7546 70.3852 37.8384C74.1788 35.7852 78.0705 33.8645 82.0524 32.1233C82.9469 31.7602 83.8415 31.3971 84.7448 31.0554C89.9063 29.0759 95.0982 27.5084 100.476 26.2877C104.227 25.3153 108.027 24.6778 111.862 24.3716C107.296 25.0542 102.768 26.0963 98.3073 27.4129C93.7744 28.6557 89.3051 30.1966 84.955 31.9465C79.6357 34.0888 74.4618 36.5673 69.4279 39.2686C66.889 40.6257 64.5073 42.1228 62.2155 43.7366ZM31.136 69.8499C30.0555 71.0317 28.9824 72.2237 27.9234 73.4249C29.4954 71.5573 31.1091 69.7172 32.7565 67.8887C39.5198 60.3808 46.7029 53.1071 54.4703 46.4007C55.9606 45.112 57.4852 43.8405 59.0457 42.6032C52.0883 48.3262 45.6073 54.577 39.5206 61.0662C36.6558 63.9445 33.8547 66.8754 31.136 69.8499ZM59.7306 49.552C54.8076 53.2462 50.2571 57.3424 45.8655 61.5326C42.0853 65.1317 38.4392 68.8346 34.8992 72.6229C40.6173 66.2625 46.675 60.0523 53.1389 54.2556C55.5386 52.1901 58.0067 50.159 60.5962 48.2967C63.9501 45.8811 67.595 43.8922 71.3072 41.9894C71.7006 41.7881 72.1016 41.5969 72.4949 41.3956C69.227 43.0888 66.0039 44.9003 63.0623 47.0486C62.0938 47.7552 61.1397 48.4765 60.2001 49.2125C60.0434 49.3238 59.8867 49.4351 59.7306 49.552ZM114.948 23.8448C108.125 24.1933 101.281 25.4479 94.6092 27.3541C96.2325 26.8377 97.8588 26.3494 99.5031 25.9095C111.621 22.6343 124.509 21.5126 136.219 24.582C137.824 24.9998 139.412 25.5059 140.974 26.0678C134.904 24.1512 128.333 23.259 121.702 23.4618C120.004 23.5163 118.313 23.6268 116.619 23.7834C116.064 23.7998 115.508 23.8162 114.948 23.8448ZM122.848 20.807C120.368 20.6292 117.872 20.6027 115.362 20.6982C119.512 20.3748 123.652 20.3843 127.721 20.8282C129.064 20.9745 130.394 21.1801 131.722 21.4204C128.894 21.0194 126.031 20.83 123.129 20.824C123.032 20.8284 122.94 20.8149 122.848 20.807ZM31.2265 66.7047C30.8255 67.1415 30.425 67.5839 30.031 68.0252C30.6896 67.2665 31.3419 66.5087 32.0081 65.7602C38.3142 58.6468 45.0464 51.7667 52.2126 45.3183C53.8699 43.831 55.5475 42.3518 57.2686 40.9168C58.651 39.8343 60.0707 38.797 61.5431 37.8311C56.9587 41.1731 52.7291 44.9941 48.6546 48.8126C43.5837 53.565 38.7147 58.5129 34.0938 63.6031C33.9719 63.7372 33.8442 63.8781 33.7222 64.0122C32.8901 64.9078 32.0511 65.7989 31.2265 66.7047ZM159.241 88.0817C159.766 86.8535 160.257 85.6136 160.701 84.3529C160.911 83.7645 161.101 83.168 161.292 82.577C161.589 81.8888 161.872 81.197 162.149 80.5006C161.792 82.164 161.358 83.823 160.85 85.4653C160.816 85.5737 160.782 85.6821 160.748 85.7848C160.675 85.9566 160.603 86.1284 160.53 86.3002C159.77 87.9438 158.935 89.5539 158.034 91.1464C158.465 90.1334 158.87 89.1134 159.241 88.0817ZM155.306 32.8278C154.32 31.8291 153.274 30.8802 152.188 29.9722C154.409 31.5117 156.499 33.21 158.248 35.1237C158.833 35.7594 159.336 36.4142 159.807 37.0798C159.629 36.9261 159.422 36.7428 159.171 36.5096C158.384 35.8041 157.567 35.1205 156.733 34.4513C156.292 33.8949 155.82 33.3493 155.306 32.8278ZM157.873 37.7212C157.175 36.7442 156.31 35.7886 155.386 34.8883C156.186 35.5918 156.979 36.2963 157.778 36.9998C158.031 37.4327 158.271 37.8676 158.486 38.3124C158.314 38.1576 158.136 38.0039 157.958 37.8502C157.934 37.8083 157.903 37.762 157.873 37.7212ZM90.8806 25.0952C87.2783 26.3802 83.7296 27.8051 80.2396 29.3574C77.3998 30.5637 74.6001 31.8434 71.8423 33.2134C70.0819 34.0892 68.3429 34.9843 66.6411 35.9248C67.4306 35.4246 68.2288 34.9459 69.0409 34.4762C69.3469 34.3063 69.6401 34.1385 69.9531 33.9731C79.7535 28.677 90.1951 24.3045 101.052 21.6065C102.751 21.1864 104.46 20.8102 106.18 20.4779C107.25 20.3032 108.322 20.1454 109.39 20.0167C104.19 20.957 99.0559 22.3323 94.0148 24.0408C92.9621 24.3783 91.917 24.726 90.8806 25.0952ZM163.054 61.9358C163.09 61.7243 163.126 61.5127 163.162 61.3012C163.287 62.4862 163.374 63.6831 163.428 64.8795C163.339 65.4482 163.237 66.0133 163.128 66.5851C163.153 65.1586 163.132 63.7282 163.072 62.2927C163.066 62.1738 163.06 62.0548 163.054 61.9358ZM163.009 44.8058C163.107 45.1211 163.199 45.4431 163.284 45.7605C163.297 45.8213 163.311 45.8876 163.324 45.9484C163.097 45.6426 162.865 45.3435 162.62 45.0464C162.556 44.5599 162.485 44.0744 162.409 43.59C162.625 43.9887 162.824 44.3962 163.009 44.8058ZM163.95 51.907C163.953 51.8723 163.949 51.833 163.951 51.7982C163.956 51.8432 163.954 51.8835 163.959 51.9285C163.957 51.9172 163.95 51.9127 163.95 51.907ZM163.082 49.8723C163.079 49.8499 163.077 49.8274 163.075 49.8049C163.078 49.8386 163.088 49.8657 163.091 49.8994C163.097 49.8927 163.089 49.8825 163.082 49.8723ZM163.489 47.0296C163.493 47.0633 163.49 47.098 163.493 47.1317C163.471 47.6609 163.449 48.19 163.433 48.7181C163.279 48.2978 163.119 47.884 162.94 47.479C162.919 47.4025 162.898 47.3259 162.877 47.2438C162.833 46.8226 162.788 46.4014 162.737 45.9756C162.994 46.3277 163.245 46.6753 163.489 47.0296ZM163.206 53.0853C163.221 53.1685 163.229 53.2472 163.244 53.3304L163.214 54.1466C163.209 53.7932 163.21 53.4387 163.206 53.0853ZM161.956 41.1333C161.944 41.0781 161.932 41.0286 161.92 40.9735C161.982 41.1347 162.057 41.2882 162.113 41.4561C162.062 41.3444 162.012 41.2383 161.956 41.1333ZM163.695 57.2498C163.701 57.3059 163.701 57.3631 163.707 57.4193C163.697 57.3923 163.694 57.3586 163.684 57.3315C163.694 57.3014 163.692 57.2789 163.695 57.2498ZM164.45 49.4547C164.446 49.3526 164.436 49.2571 164.431 49.155C164.525 49.5566 164.607 49.966 164.682 50.3708C164.696 50.814 164.704 51.2583 164.712 51.7026C164.646 50.9536 164.554 50.2031 164.45 49.4547ZM161.723 45.1358C161.48 44.7412 161.226 44.3543 160.953 43.9762C161.213 44.2308 161.467 44.492 161.709 44.761C161.716 44.8856 161.722 45.0102 161.723 45.1358ZM161.75 46.3196C161.715 46.2395 161.688 46.1584 161.653 46.0783C161.628 46.0252 161.597 45.9732 161.572 45.9202C161.634 46.0186 161.69 46.118 161.746 46.2174C161.749 46.2511 161.753 46.2848 161.75 46.3196ZM160.437 45.4143C160.34 45.293 160.244 45.1773 160.147 45.0561C160.044 44.7586 159.936 44.4678 159.821 44.1725C160.019 44.4543 160.204 44.7383 160.383 45.0288C160.403 45.157 160.423 45.2851 160.437 45.4143ZM163.456 59.351C163.476 59.2279 163.494 59.0991 163.507 58.977C163.626 59.6145 163.751 60.2454 163.851 60.8861C163.854 61.1654 163.857 61.4391 163.86 61.7129C163.813 62.1318 163.767 62.5563 163.714 62.9763C163.645 61.7651 163.57 60.5549 163.456 59.351ZM164.251 64.2653C164.3 64.7886 164.335 65.3084 164.371 65.8338C164.297 66.6114 164.21 67.3909 164.104 68.168C164.123 67.8508 164.154 67.5315 164.172 67.2143C164.219 66.2357 164.244 65.2489 164.251 64.2653ZM164.445 62.1029C164.503 61.7279 164.555 61.3595 164.606 60.9855C164.599 61.7179 164.578 62.4468 164.551 63.1766C164.548 63.2114 164.546 63.2461 164.543 63.2865C164.513 62.9316 164.489 62.5813 164.458 62.2265C164.46 62.1861 164.45 62.1478 164.445 62.1029ZM164.827 65.308C164.829 65.3877 164.831 65.4674 164.832 65.5414C164.813 65.6646 164.787 65.7887 164.761 65.9129C164.785 65.7091 164.81 65.5108 164.827 65.308ZM165.112 55.2647C165.134 54.7299 165.155 54.1951 165.164 53.6624C165.253 54.5105 165.323 55.3616 165.381 56.2148C165.296 55.903 165.204 55.5867 165.112 55.2647ZM164.283 44.8435C164.386 45.7007 164.471 46.5722 164.537 47.4525C164.441 47.154 164.351 46.8489 164.242 46.5524C164.147 45.5854 164.026 44.6226 163.869 43.6772C164.007 44.0088 164.139 44.3358 164.265 44.675C164.265 44.7322 164.27 44.7884 164.283 44.8435ZM162.038 39.3833C161.825 38.9039 161.607 38.4311 161.352 37.9758C161.339 37.915 161.333 37.8589 161.321 37.7981C161.378 37.8516 161.436 37.9106 161.494 37.9641C161.749 38.4879 161.981 39.027 162.187 39.5703C162.142 39.5092 162.089 39.4434 162.038 39.3833ZM161.514 41.4854C161.084 40.91 160.612 40.3588 160.04 39.7838C159.852 39.5975 159.651 39.4188 159.464 39.238C159.291 38.8208 159.111 38.4102 158.913 38.0027C159.37 38.4079 159.834 38.812 160.291 39.2173C160.73 39.8253 161.121 40.4585 161.481 41.1081C161.488 41.2383 161.501 41.3618 161.514 41.4854ZM161.285 41.7741C161.384 41.9178 161.477 42.0626 161.57 42.2074C161.616 42.7654 161.649 43.3256 161.675 43.8868C161.264 42.9886 160.772 42.132 160.206 41.3048C160.079 40.9027 159.947 40.5017 159.802 40.1083C160.312 40.6477 160.81 41.2004 161.285 41.7741ZM161.185 43.4755C161.012 43.3039 160.838 43.1267 160.658 42.9561C160.588 42.6647 160.513 42.3743 160.43 42.085C160.704 42.5316 160.96 42.9982 161.185 43.4755ZM157.839 41.7768C157.919 41.9181 157.998 42.0537 158.071 42.1959C157.905 41.9661 157.732 41.7373 157.553 41.5151C157.646 41.6027 157.746 41.6892 157.839 41.7768ZM151.821 37.2641C153.199 38.3643 154.519 39.5198 155.762 40.745C155.799 40.7904 155.843 40.8347 155.88 40.88C155.525 40.5838 155.164 40.2942 154.797 40.0057C154.398 39.6652 154 39.3247 153.596 38.9908C152.327 37.947 150.993 36.9708 149.608 36.0545C150.361 36.4399 151.096 36.8397 151.821 37.2641ZM164.846 67.4642C164.842 67.5449 164.838 67.6312 164.84 67.7109C164.84 67.6537 164.834 67.5919 164.834 67.5347C164.838 67.5112 164.842 67.4877 164.846 67.4642ZM165.067 47.4402C165.163 48.0472 165.248 48.6618 165.325 49.2719C165.258 49.1342 165.186 48.9976 165.119 48.8599C165.109 48.3875 165.091 47.9162 165.067 47.4402ZM137.899 21.7142C140.792 22.4929 143.627 23.5154 146.31 24.7681C146.736 24.9957 147.167 25.2166 147.582 25.4631C148.167 25.7903 148.734 26.1319 149.301 26.4791C149.524 26.6255 149.759 26.7643 149.982 26.9163C151.782 28.1476 153.553 29.4637 155.156 30.9156C154.44 30.3814 153.705 29.8616 152.96 29.3663C150.692 27.6972 148.226 26.2319 145.662 24.9482C143.823 24.0316 141.932 23.2322 139.982 22.5453C139.284 22.2536 138.594 21.9778 137.899 21.7142ZM160.943 39.0709C161.035 39.33 161.121 39.5959 161.207 39.8617C160.566 38.8809 159.824 37.9796 159.014 37.1178C159.677 37.7523 160.322 38.4011 160.943 39.0709ZM158.906 39.232C158.983 39.4079 159.059 39.5783 159.123 39.7563C159.002 39.5248 158.868 39.2954 158.733 39.066C158.791 39.1194 158.848 39.1729 158.906 39.232ZM162.945 74.1441C162.757 74.8887 162.556 75.6242 162.336 76.3684C162.485 75.8129 162.621 75.2538 162.756 74.689C162.821 74.5071 162.886 74.3251 162.945 74.1441ZM163.639 72.7397C163.648 72.6983 163.663 72.6559 163.671 72.6089C163.868 71.7712 164.038 70.9266 164.195 70.0839C164.298 69.7073 164.395 69.3372 164.487 68.9739C164.489 69.122 164.498 69.269 164.502 69.4227C164.488 69.6648 164.475 69.907 164.461 70.1491C164.21 71.2126 163.92 72.2711 163.604 73.3281C163.615 73.1264 163.627 72.9302 163.639 72.7397ZM164.186 74.6211C164.101 75.1607 164.002 75.6967 163.897 76.2393C163.596 77.5052 163.256 78.7717 162.871 80.0343C162.75 80.4253 162.616 80.8184 162.488 81.2049C162.699 80.1936 162.878 79.1819 163.038 78.1733C163.452 76.9975 163.833 75.8156 164.186 74.6211ZM165.675 52.9164C165.577 52.1041 165.46 51.3006 165.304 50.4977C165.38 50.7196 165.454 50.9359 165.523 51.1589C165.573 51.6991 165.63 52.2439 165.668 52.7861C165.672 52.8255 165.677 52.8704 165.675 52.9164ZM163.132 38.9476C163.13 38.9252 163.127 38.9027 163.118 38.8757C163.128 38.9083 163.138 38.941 163.147 38.968C163.14 38.9634 163.139 38.9522 163.132 38.9476ZM162.381 37.7792C162.275 37.6309 162.168 37.4826 162.063 37.3399C161.868 36.9033 161.667 36.4677 161.44 36.042C161.71 36.3864 161.961 36.7452 162.194 37.1128C162.256 37.3312 162.318 37.5552 162.381 37.7792ZM150.29 30.6533C150.749 30.9497 151.202 31.2528 151.637 31.5702C151.966 31.865 152.301 32.1587 152.629 32.4479C152.537 32.3715 152.438 32.2906 152.346 32.2199C151.667 31.6738 150.971 31.1534 150.263 30.6406C150.277 30.6441 150.283 30.6487 150.29 30.6533ZM126.018 28.9666C124.739 28.9412 123.464 28.9438 122.185 28.9812C118.106 28.8703 114.031 29.1073 109.98 29.6429C113.681 29.05 117.402 28.7054 121.1 28.6442C122.745 28.6956 124.387 28.7931 126.018 28.9666ZM62.1691 49.211C63.3546 48.4119 64.5715 47.6648 65.8105 46.9427C64.4132 47.822 63.0472 48.7534 61.7265 49.7459C58.7365 51.9878 55.8712 54.3693 53.0797 56.8359C55.985 54.2193 58.9859 51.5872 62.1691 49.211ZM162.341 65.377C162.381 65.2104 162.416 65.0448 162.457 64.8782C162.473 66.5722 162.411 68.2674 162.273 69.9695C162.258 70.0175 162.244 70.0712 162.23 70.1192C162.101 70.5516 161.958 70.9805 161.815 71.4094C162.072 69.6595 162.25 67.9052 162.32 66.163C162.324 65.8995 162.329 65.6359 162.341 65.377ZM162.935 70.8495C163.146 69.9583 163.33 69.0599 163.495 68.1647C163.495 68.4103 163.488 68.657 163.482 68.9037C163.455 69.1367 163.427 69.3696 163.4 69.6026C163.205 71.0112 162.951 72.4179 162.645 73.8161C162.645 73.8217 162.639 73.8283 162.64 73.8339C162.756 72.8439 162.858 71.8446 162.935 70.8495ZM162.764 77.2354C162.753 77.3172 162.743 77.3989 162.726 77.4873C162.706 77.542 162.686 77.5967 162.672 77.6504C162.702 77.5083 162.727 77.3729 162.764 77.2354ZM128.42 15.4015C127.275 15.2914 126.128 15.2216 124.977 15.1754C121.41 14.8266 117.806 14.7981 114.197 15.0332C120.037 14.5195 125.863 14.6708 131.504 15.7149C132.436 15.8884 133.357 16.0921 134.268 16.3147C132.346 15.8973 130.39 15.5884 128.42 15.4015ZM35.0415 59.6781C34.9658 59.759 34.8895 59.8343 34.8075 59.9163C34.9357 59.7811 35.064 59.6459 35.1981 59.504C35.1461 59.5639 35.0941 59.6239 35.0415 59.6781ZM35.4726 59.2193C36.0557 58.6043 36.6382 57.9836 37.2282 57.3732C36.6388 57.9892 36.0493 58.6053 35.4726 59.2193ZM141.428 24.537C142.571 24.9387 143.7 25.3884 144.82 25.8684C144.875 25.8993 144.929 25.9247 144.984 25.9557C148.223 27.8034 151.173 29.9266 153.854 32.3279C152.639 31.4867 151.395 30.6844 150.088 29.9552C149.207 29.4649 148.304 29.0069 147.384 28.5744C147.02 28.3824 146.663 28.1837 146.294 27.9984C144.025 26.6321 141.632 25.4291 139.091 24.4216C137.313 23.7179 135.502 23.1225 133.655 22.6186C136.361 22.9765 138.954 23.61 141.428 24.537ZM116.562 24.1012C118.462 24.0595 120.35 24.0939 122.241 24.208C121.903 24.2003 121.565 24.1869 121.228 24.1848C117.759 24.157 114.281 24.3993 110.818 24.8562C112.722 24.5397 114.645 24.2885 116.562 24.1012ZM131.527 25.1139C128.112 24.3632 124.661 23.9385 121.142 23.799C122.717 23.7475 124.291 23.7476 125.852 23.8125C130.055 23.8689 134.073 24.5039 137.9 25.7243C140.679 26.2817 143.303 27.15 145.771 28.3237C146.117 28.4784 146.459 28.6511 146.8 28.8125C147.534 29.2583 148.248 29.7128 148.954 30.1975C149.801 31.1159 150.65 32.0399 151.491 32.9593C149.434 31.6271 147.259 30.4684 144.979 29.4811C140.932 27.5199 136.573 26.1065 132.012 25.2345C131.853 25.1977 131.693 25.1553 131.527 25.1139ZM139.566 27.4687C139.715 27.5244 139.857 27.5812 140.005 27.637C139.503 27.4791 139.001 27.3324 138.494 27.1868C138.008 27.0033 137.505 26.8342 137.008 26.664C137.876 26.9163 138.726 27.1774 139.566 27.4687ZM149.134 32.0417C149.368 32.1692 149.59 32.3044 149.823 32.4319C150.961 33.1544 152.067 33.9336 153.137 34.7471C155.214 37.0128 157.298 39.2718 159.375 41.5375C159.42 41.6502 159.452 41.7707 159.496 41.8834C158.953 41.4008 158.391 40.9269 157.824 40.4597C157.786 40.4088 157.761 40.3557 157.724 40.3104C156.764 39.0047 155.566 37.9551 154.343 36.858C152.347 35.0589 151.586 34.292 148.976 32.5646C147.215 31.4011 145.381 30.3467 143.487 29.3935C145.425 30.1509 147.318 31.0301 149.134 32.0417ZM138.85 27.8599C140.877 28.5971 142.804 29.4935 144.625 30.5501C147.776 32.3091 150.648 34.3595 153.244 36.6947C150.394 34.538 147.306 32.7057 144.027 31.2075C137.402 27.8334 129.933 26.0311 122.162 25.6203C127.763 25.6027 133.255 26.2713 138.445 27.7088C138.58 27.7554 138.715 27.8077 138.85 27.8599ZM126.542 27.5387C123.943 27.346 121.338 27.3259 118.72 27.4391C116.501 27.4644 114.28 27.5928 112.062 27.8178C114.389 27.5235 116.72 27.3315 119.078 27.2777C122.018 27.209 124.946 27.3308 127.823 27.6551C127.392 27.6226 126.973 27.5712 126.542 27.5387ZM161.297 70.2373C161.124 71.7393 160.893 73.2338 160.597 74.733C160.448 75.1058 160.293 75.4795 160.138 75.8477C160.615 73.9817 161.002 72.1135 161.297 70.2373ZM152.866 92.0759C152.542 92.5114 152.218 92.9413 151.887 93.3611C152.084 93.0832 152.289 92.8099 152.486 92.532C152.745 92.1641 152.991 91.787 153.243 91.4144C153.118 91.6405 152.992 91.861 152.866 92.0759ZM156.457 86.2455C156.702 85.8112 156.936 85.379 157.168 84.9412C156.899 85.4593 156.63 85.9831 156.347 86.4976C156.383 86.4117 156.413 86.3269 156.457 86.2455ZM161.661 77.5869C161.682 77.5378 161.702 77.4831 161.723 77.4396C161.708 77.5392 161.686 77.6343 161.664 77.735C161.517 78.2446 161.369 78.7486 161.215 79.2592C161.334 78.7885 161.441 78.3255 161.553 77.8502C161.589 77.7587 161.625 77.6728 161.661 77.5869ZM164.967 76.1331C164.972 76.1152 164.976 76.0973 164.981 76.0794C164.821 77.2081 164.622 78.3373 164.398 79.4651C164.493 78.7125 164.582 77.9554 164.652 77.2014C164.757 76.8416 164.875 76.4909 164.967 76.1331ZM59.1085 43.3241C62.0593 40.8944 65.1777 38.5173 68.5203 36.5491C72.741 34.0606 77.2118 31.8568 81.7021 29.8384C83.0936 29.2114 84.5065 28.6036 85.9218 28.0184C90.7762 26.1976 95.7325 24.6686 100.756 23.5342C104.128 22.7723 107.551 22.1848 110.973 21.8262C102.174 23.2227 93.5513 25.9787 85.2771 29.4032C79.5726 31.7627 73.8908 34.5241 68.6036 37.6495C67.3658 38.3828 66.1593 39.1682 64.9883 39.982C62.6185 41.3458 60.3305 42.8104 58.1396 44.4592C56.627 45.5973 55.1509 46.7751 53.6974 47.9835C55.4669 46.3922 57.2665 44.8416 59.1085 43.3241ZM81.6343 31.5347C90.9714 27.3768 100.714 24.0609 110.802 22.4824C114.657 21.8759 118.526 21.5241 122.371 21.5019C126.169 21.7101 129.918 22.2519 133.541 23.2026C135.713 23.7735 137.821 24.4804 139.857 25.3075C134.93 23.6614 129.503 22.6795 124.111 22.5316C113.036 22.2319 102.004 24.5015 91.3517 28.1601C88.9321 28.9893 86.5284 29.9073 84.1515 30.8952C79.9401 32.5482 75.8114 34.3705 71.7669 36.379C71.613 36.4555 71.4655 36.531 71.318 36.6065C74.6673 34.7629 78.157 33.0849 81.6343 31.5347ZM67.4748 39.0505C67.8913 38.8226 68.3084 38.6002 68.7255 38.3779C67.0497 39.3199 65.4053 40.3138 63.8352 41.3985C62.8088 42.1088 61.8043 42.844 60.815 43.5996C62.3339 42.3977 63.8905 41.2466 65.4919 40.1512C66.1461 39.7816 66.8067 39.411 67.4748 39.0505ZM109.873 26.7071C110.832 26.5905 111.793 26.4907 112.757 26.419C115.532 26.1945 118.297 26.1314 121.048 26.2307C121.913 26.2666 122.78 26.3192 123.642 26.3898C122.874 26.3552 122.101 26.3329 121.329 26.3219C110.677 26.2273 99.9758 28.62 89.7997 32.2523C96.3223 29.7878 103.043 27.8508 109.873 26.7071ZM71.5243 47.5064C72.646 46.9006 73.7758 46.3105 74.9195 45.7296C83.1944 41.511 91.9124 37.934 100.915 35.5272C109.641 33.1887 118.752 31.9409 127.566 32.5984C128.044 32.6517 128.517 32.7172 128.991 32.7828C116.993 31.7769 104.876 34.0808 93.226 38.0451C90.7122 38.9011 88.228 39.8551 85.7707 40.879C80.9015 42.805 76.1383 45.0622 71.5243 47.5064ZM158.276 79.6476C158.234 79.7974 158.192 79.9527 158.149 80.1025C158.085 80.2329 158.021 80.3633 157.951 80.4948C158.064 80.2136 158.17 79.9278 158.276 79.6476ZM159.332 81.6174C160.114 79.8103 160.827 77.9743 161.448 76.1136C161.335 76.7033 161.215 77.2884 161.083 77.8756C160.532 79.1651 159.941 80.4441 159.296 81.7089C159.307 81.6844 159.316 81.6486 159.332 81.6174ZM160.522 80.1835C160.227 81.3227 159.893 82.457 159.532 83.5841C158.478 85.6984 157.298 87.7763 156.021 89.8013C156.779 88.2037 157.477 86.5873 158.121 84.9456C158.98 83.3829 159.785 81.7949 160.522 80.1835ZM159.319 85.5611C159.434 85.2396 159.537 84.9201 159.645 84.5996C159.662 84.5684 159.671 84.5382 159.688 84.5126C159.95 83.9215 160.205 83.3258 160.446 82.7266C160.505 82.6084 160.557 82.4913 160.616 82.3732C160.453 82.9768 160.269 83.5723 160.086 84.1678C159.859 84.6618 159.632 85.1502 159.391 85.635C159.284 85.8411 159.169 86.0483 159.061 86.2544C159.14 86.0187 159.239 85.7912 159.319 85.5611ZM158.888 87.6251C157.663 90.4529 156.224 93.2128 154.589 95.9017C155.73 93.8761 156.757 91.8119 157.674 89.697C158.096 89.0227 158.481 88.377 158.888 87.6251ZM153.525 99.9542C154.787 98.2172 155.967 96.4366 157.065 94.6235C155.861 96.7908 154.536 98.9095 153.082 100.975C152.569 101.704 152.041 102.413 151.507 103.123C152.206 102.072 152.886 101.018 153.525 99.9542ZM164.442 83.9536C164.336 84.3022 164.217 84.6472 164.104 84.9913C165.186 80.9301 165.85 76.8287 166.112 72.73C165.936 76.1063 165.501 79.4849 164.759 82.8449C164.655 83.2104 164.558 83.5804 164.442 83.9536ZM28.1724 74.6238C31.1245 71.0342 34.229 67.5397 37.4176 64.1058C38.6629 62.7657 39.9284 61.4337 41.201 60.1063C43.8301 57.512 46.5167 54.9712 49.2607 52.4839C52.6729 49.3904 56.2086 46.3625 59.9969 43.6418C60.3519 43.3839 60.7215 43.1408 61.0846 42.8987C60.3908 43.4461 59.7109 44.0027 59.0316 44.5649C49.9947 52.0727 41.6642 60.3848 34.0014 69.0107C32.2939 70.8833 30.6218 72.7843 28.9839 74.7027C28.9608 74.7293 28.9319 74.7626 28.9088 74.7892C26.1088 77.9769 23.3148 81.2207 20.7265 84.5738C22.9683 81.1288 25.5248 77.8437 28.1724 74.6238ZM30.9776 73.2118C28.9501 75.4908 26.9331 77.808 24.9932 80.1812C26.365 78.3806 27.7988 76.6156 29.2744 74.878C29.4015 74.7316 29.5286 74.5852 29.6557 74.4387C33.936 69.6212 38.4181 64.8736 43.1153 60.325C38.9107 64.5075 34.8766 68.8336 30.9776 73.2118ZM69.3899 39.6461C71.6378 38.4165 73.9466 37.2741 76.2463 36.1674C76.4066 36.0899 76.5738 36.0169 76.7341 35.9393C75.9085 36.3426 75.0841 36.7571 74.2679 37.1874C72.6277 37.975 71.0044 38.7999 69.3899 39.6461ZM64.8758 43.4107C68.2072 41.0274 71.8462 38.9823 75.5487 37.1097C76.1915 36.8162 76.8279 36.5238 77.4718 36.2416C81.0978 34.627 84.7743 33.1242 88.5295 31.8142C90.4721 31.1314 92.4334 30.5027 94.407 29.9291C91.7779 30.7982 89.1773 31.7541 86.6169 32.7834C81.297 34.9201 76.1132 37.3659 71.0875 40.083C67.0365 42.2754 63.3757 44.7296 59.8217 47.5834C59.7743 47.6255 59.7263 47.6618 59.6725 47.7049C59.6124 47.749 59.5522 47.7931 59.4927 47.8428C57.894 49.0864 56.3318 50.3697 54.7847 51.6733C58.0051 48.7883 61.3212 45.9505 64.8758 43.4107ZM18.5751 92.1456C18.5325 92.2326 18.4892 92.3139 18.4465 92.4008C18.2323 92.7043 18.0371 93.0046 17.835 93.3004C18.0792 92.9121 18.324 92.5294 18.5751 92.1456ZM145.86 38.6657C147.314 39.3081 148.734 40.0017 150.09 40.7684C150.476 40.9854 150.85 41.2157 151.224 41.446C153.494 43.0175 155.737 44.7593 157.599 46.7574C157.462 46.6255 157.325 46.4993 157.182 46.3684C153.819 43.3358 150.01 40.7416 145.86 38.6657ZM151.002 96.8359C149.89 98.217 148.728 99.5492 147.525 100.854C148.961 98.9857 150.309 97.0805 151.562 95.1393C152.411 93.9724 153.219 92.7893 153.987 91.59C154.848 90.3527 155.661 89.0945 156.441 87.8191C156.085 88.6255 155.722 89.4217 155.332 90.2108C154.829 91.2184 154.298 92.2076 153.747 93.1887C152.873 94.4282 151.958 95.6458 151.002 96.8359ZM154.215 93.3294C155.536 91.4114 156.78 89.4488 157.937 87.4547C157.267 88.7753 156.562 90.0786 155.809 91.3611C154.133 94.1483 152.277 96.8333 150.257 99.4253C150.807 98.6214 151.349 97.8017 151.913 96.9385C152.826 95.5212 153.471 94.5649 154.092 93.5151C154.13 93.446 154.176 93.3872 154.215 93.3294ZM148.516 102.463C145.379 106.323 141.884 109.858 138.185 113.244C139.056 112.411 139.913 111.568 140.755 110.705C142.456 108.959 144.084 107.185 145.66 105.357C146.632 104.313 147.568 103.24 148.483 102.143C149.294 101.233 150.091 100.315 150.874 99.3816C150.954 99.2828 151.035 99.184 151.115 99.0852C150.27 100.229 149.411 101.357 148.516 102.463ZM149.89 108.939C155.044 102.448 159.167 95.5143 161.802 88.0463C162.007 87.4757 162.193 86.8971 162.379 86.3241C161.792 88.4421 161.087 90.5508 160.264 92.6389C158.463 96.646 156.203 100.534 153.622 104.206C151.749 106.842 149.723 109.378 147.551 111.829C147.073 112.335 146.589 112.843 146.097 113.34C147.418 111.919 148.689 110.455 149.89 108.939ZM166.891 71.6318C166.933 69.6885 166.884 67.7484 166.759 65.8209C166.906 64.1346 166.981 62.4485 166.992 60.7616C167.055 62.0367 167.093 63.3215 167.123 64.5962C167.194 66.9381 167.11 69.2825 166.891 71.6318Z" fill="#FDC6DF"/>
</g>
</g>
</g>
<g id="Group_4">
<g id="Group_5">
<g id="Group_6">
<path id="Vector_2" d="M135.248 128.693C135.863 128.142 136.469 127.581 137.054 126.995C137.185 126.881 136.859 126.323 136.639 126.457C135.37 127.173 134.131 127.924 132.923 128.717C133.394 128.299 133.859 127.877 134.316 127.45C134.484 127.301 134.355 126.445 134.019 126.662C129.303 129.709 124.89 133.099 120.03 135.956C120.342 135.761 120.654 135.565 120.959 135.365C122.239 134.503 123.525 133.64 124.804 132.778C125.535 132.283 126.251 131.768 126.953 131.249C127.129 131.128 127.312 131.005 127.489 130.89C130.032 129.197 132.386 127.323 134.563 125.252C134.724 125.11 134.525 124.393 134.203 124.613C129.255 128.062 124.503 131.703 119.207 134.695C117.821 135.477 116.418 136.215 114.99 136.905C116.99 135.821 118.942 134.652 120.78 133.457C122.059 132.595 123.345 131.732 124.624 130.87C127.156 129.133 129.562 127.261 131.83 125.251C131.878 125.208 131.915 125.127 131.938 125.037C132.172 124.837 132.411 124.63 132.644 124.425C133.479 123.745 134.3 123.051 135.098 122.326C135.296 122.155 134.985 121.866 134.779 122.02C129.899 125.614 125.088 129.259 119.75 132.281C115.785 134.525 111.533 136.526 107.184 137.967C106.213 138.288 105.239 138.575 104.256 138.846C106.18 138.161 108.075 137.383 109.936 136.535C111.275 135.923 112.576 135.271 113.861 134.587C114.223 134.429 114.59 134.265 114.945 134.097C122.618 130.582 129.454 125.848 135.852 120.61C136.08 120.422 135.749 120.188 135.55 120.342C130.672 124.027 125.806 127.699 120.419 130.753C120.246 130.85 120.067 130.949 119.889 131.047C123.782 128.551 127.485 125.797 131.111 122.923C131.129 122.908 131.14 122.889 131.158 122.875C131.871 122.331 132.583 121.781 133.288 121.227C133.451 121.102 133.077 121.083 132.993 121.148C132.396 121.621 131.794 122.101 131.191 122.569C131.147 122.519 131.08 122.507 130.984 122.58C127.673 125.16 124.278 127.679 120.737 129.991C118.605 131.31 116.411 132.53 114.143 133.6C111.336 134.765 108.53 135.935 105.724 137.1C105.673 137.114 105.623 137.128 105.572 137.147C102.413 138.058 99.1909 138.674 95.9154 138.97C95.7801 138.986 95.6437 138.991 95.5079 139.002C100.132 138.196 104.579 136.751 108.843 134.874C110.907 134.085 112.942 133.22 114.893 132.231C121.83 128.721 127.986 124.347 133.986 119.607C134.148 119.476 133.892 119.27 133.79 119.351C128.281 123.676 122.455 127.834 116.168 131.139C117.374 130.445 118.563 129.719 119.736 128.967C125.287 125.852 130.38 122.045 135.287 118.141C135.51 117.966 135.45 117.578 135.178 117.784C132.821 119.631 130.421 121.438 127.954 123.164C128.938 122.408 129.908 121.643 130.858 120.876C131.044 120.724 130.742 120.52 130.549 120.667C127.533 123.008 124.5 125.312 121.333 127.459C117.115 129.963 112.671 132.123 107.932 133.703C104.22 134.941 100.466 135.771 96.7215 136.137C97.5578 135.966 98.3936 135.788 99.2072 135.585C102.386 134.798 105.467 133.704 108.469 132.415C108.714 132.323 108.951 132.22 109.195 132.122C111.532 131.271 113.823 130.29 116.077 129.204C123.13 125.808 129.503 121.139 135.391 116.267C135.559 116.129 135.705 115.46 135.378 115.709C134.315 116.518 133.245 117.323 132.175 118.127C132.606 117.757 133.036 117.386 133.46 117.005C133.585 116.898 133.535 116.289 133.268 116.483C132.22 117.249 131.179 118.02 130.131 118.792C130.417 118.531 130.71 118.276 130.989 118.011C131.007 117.996 131.011 117.978 131.023 117.965C132.464 116.834 133.853 115.648 135.176 114.393C135.337 114.251 135.455 113.51 135.08 113.791C134.602 114.146 134.123 114.496 133.652 114.851C133.644 114.65 133.575 114.494 133.424 114.605C130.945 116.403 128.487 118.225 125.983 119.975C126.914 119.268 127.814 118.526 128.672 117.745C130.608 116.302 132.406 114.726 134.059 113.007C134.208 112.867 134.293 111.999 133.983 112.218C133.322 112.69 132.66 113.162 132.006 113.638C131.945 113.562 131.864 113.529 131.766 113.597C130.064 114.776 128.376 115.971 126.693 117.158C127.117 116.841 127.539 116.517 127.969 116.199C129.203 115.091 130.386 113.933 131.513 112.727C131.613 112.624 131.581 112.254 131.451 112.079C131.964 111.551 132.462 111.014 132.944 110.45C133.062 110.332 132.969 109.817 132.701 109.999C128.995 112.54 125.447 115.338 121.613 117.721C120.198 118.6 118.767 119.44 117.312 120.25C119.602 118.882 121.828 117.403 123.894 115.893L127.599 113.093C129.007 112.031 130.193 110.769 131.162 109.312C131.333 109.134 130.944 109.163 130.847 109.225C127.118 111.741 123.581 114.525 119.754 116.907C117.146 118.53 114.469 120.06 111.705 121.448C104.865 124.884 97.1226 127.246 89.5408 127.521C84.4216 127.71 79.4028 126.988 74.8331 125.321C73.9451 124.936 73.0507 124.552 72.1626 124.167C69.7619 122.912 67.3187 121 65.6432 119.008C65.7582 118.423 65.8866 117.843 66.0349 117.265C66.3961 116.415 66.7771 115.568 67.206 114.742C68.1653 112.877 69.2782 111.108 70.5661 109.391C72.78 106.426 75.5373 103.792 78.4523 101.358C78.8302 101.042 78.04 99.5971 78.0098 99.6194C77.5108 100.024 77.0177 100.423 76.5309 100.82C76.5198 100.775 76.5086 100.731 76.4975 100.687C76.9207 100.306 77.3509 99.9295 77.7939 99.551C77.9016 99.4583 77.9165 99.2886 77.8917 99.1138C78.4575 98.5998 79.0368 98.0894 79.6294 97.5825C79.9467 97.3112 78.9533 95.9802 78.8333 96.0807C78.137 96.6565 77.4541 97.2358 76.7847 97.8188C76.8105 97.255 76.5803 96.3006 76.3882 96.459C76.0645 96.7314 75.7402 96.9981 75.4171 97.2761C75.9119 96.8314 76.4137 96.3914 76.929 95.9549C77.1444 95.7695 76.8621 94.3795 76.5681 94.6239C75.9143 95.1697 75.2675 95.7201 74.6341 96.274C74.6171 96.173 74.5785 96.1158 74.4644 96.2096C73.4688 97.0422 72.4931 97.8773 71.5524 98.7356C73.3626 96.6501 75.3836 94.7088 77.5638 92.8567C77.7018 92.7418 77.306 92.0742 77.1197 92.2259C76.5916 92.6645 76.0775 93.1123 75.5763 93.558C75.5611 93.5374 75.5471 93.5282 75.5215 93.5324C76.4173 92.6816 77.3481 91.8538 78.3058 91.0332C78.5689 90.8054 77.9786 90.585 77.8103 90.7223C75.2841 92.8215 72.8968 94.9383 70.9112 97.4679C70.6634 97.7797 70.4296 98.1008 70.1887 98.4172C70.1713 98.4374 70.1532 98.4519 70.1358 98.472C68.5963 100.029 67.1964 101.672 65.9209 103.444C66.3936 102.352 66.92 101.273 67.5204 100.217C67.6198 100.045 67.7268 99.8828 67.8262 99.7108C69.9836 96.7664 72.6967 94.2096 75.5815 91.7977C75.7736 91.6393 75.6709 91.2177 75.4426 91.4052C74.9094 91.8562 74.3767 92.3128 73.8568 92.7674C73.7581 92.6336 73.6253 92.7362 73.5054 92.8366C72.7316 93.4828 71.9911 94.1351 71.2646 94.7967C71.4089 94.6172 71.5532 94.4378 71.7045 94.2629C73.1367 92.7414 74.7026 91.3132 76.3958 89.9796C76.4977 89.8936 76.2724 89.7979 76.1617 89.7988C76.6408 89.3913 77.1334 88.9874 77.6341 88.5995C77.8675 88.3996 77.9366 87.8749 77.5704 88.1773C75.262 90.1138 73.1549 92.1038 71.2656 94.3062C70.5782 95.0305 69.9061 95.7754 69.2638 96.5558C69.0497 96.8159 68.8362 97.0817 68.6297 97.3521C68.1006 97.9063 67.5792 98.4707 67.0794 99.0546C68.2011 96.9956 69.5656 95.0756 71.1244 93.2679C71.8858 92.566 72.6677 91.8723 73.4833 91.1904C73.6871 91.0185 73.4556 90.9873 73.2037 91.0113C74.6128 89.5801 76.1199 88.2135 77.7087 86.8797C77.8886 86.729 78.2313 85.6402 77.8051 85.9928C75.3285 88.0666 72.979 90.1714 71.0219 92.6617C70.0323 93.5511 69.0835 94.4568 68.1838 95.3948C70.3815 92.5246 72.9834 90.0264 75.8483 87.612C75.998 87.4836 75.9152 86.8165 75.7122 86.746C76.2664 86.2454 76.8346 85.7541 77.4098 85.2674C77.6496 85.0665 77.7181 84.5361 77.7497 84.2771C77.7503 84.2827 77.8391 83.6971 77.587 83.9058C77.0589 84.3443 76.5449 84.7922 76.0373 85.2389C75.9866 84.9415 75.883 84.6989 75.7514 84.8128C73.8971 86.3518 72.1297 87.9111 70.5428 89.6369C72.3286 87.6304 74.32 85.7805 76.4531 83.9765C76.7407 83.7332 76.5992 82.1297 76.3716 82.3228C75.6875 82.8908 75.0168 83.4624 74.3602 84.0433C74.2789 83.8893 74.2005 83.7638 74.1555 83.7077C74.2287 83.5342 74.16 83.2512 74.0511 82.9576C74.5407 82.5253 75.0372 82.0977 75.5396 81.6633C75.7789 81.4567 75.6134 80.4975 75.5891 80.2649C75.582 80.1969 75.5845 79.5965 75.3144 79.8197C72.7643 81.9402 70.3391 84.0689 68.3175 86.6276C67.7991 87.2838 67.3076 87.9471 66.8307 88.6253C65.7625 89.9487 64.7842 91.3207 63.8958 92.7415C62.3881 95.1638 61.1629 97.7301 60.3226 100.36L60.7938 98.3791C61.2752 96.9329 61.8914 95.528 62.6488 94.1634C63.6082 92.2983 64.721 90.5293 66.0089 88.8122C68.2921 85.7607 70.855 83.3266 73.8746 80.708C74.1139 80.5014 73.9317 80.0063 73.8888 79.7827C73.8923 79.8167 73.7145 78.8017 73.5463 78.939C71.4999 80.6364 70.4034 81.4394 68.6162 83.3711C66.7645 85.3712 65.1187 87.47 63.7104 89.7203C61.1946 93.7272 59.4471 98.0983 58.9149 102.553C58.7924 103.565 58.744 104.6 58.754 105.631C58.3986 107.16 58.1674 108.692 58.0925 110.221C58.0091 111.92 58.1293 113.63 58.4411 115.304C58.2552 117.394 58.4191 119.461 58.8691 121.458C58.9527 122.258 59.0817 123.056 59.2621 123.845C59.4148 124.495 59.6053 125.133 59.8204 125.755C60.1003 128.559 60.8786 131.264 62.2803 133.693C62.3394 133.822 62.4044 133.944 62.4699 134.071C63.4184 137.094 65.1489 139.862 67.4103 142.156C73.7045 148.529 84.1596 151.474 94.027 150.603C99.2029 150.146 104.218 148.838 109.058 146.97C111.625 146.076 114.149 145.015 116.614 143.832C120.75 141.849 124.803 139.315 128.501 136.7C129.744 135.798 130.987 134.901 132.229 133.999C133.475 132.941 134.685 131.848 135.859 130.727C136.044 130.564 135.707 130.463 135.572 130.538C135.01 130.78 134.47 131.041 133.938 131.319C133.862 131.274 133.706 131.277 133.625 131.319C132.625 131.794 131.662 132.316 130.716 132.875C132.287 131.677 133.783 130.393 135.177 129.01C135.25 128.958 135.269 128.822 135.248 128.693ZM118.593 140.738C115.943 142.211 113.195 143.562 110.375 144.723C105.112 146.718 99.5409 148.014 94.0381 148.213C91.5499 148.305 89.0055 148.232 86.5911 147.844C86.657 147.85 86.7223 147.851 86.7817 147.859C88.5872 148.099 90.4187 148.213 92.2423 148.191C98.9447 148.112 105.483 146.467 111.787 143.949C114.216 142.979 116.661 141.788 119.017 140.49C118.875 140.57 118.734 140.657 118.593 140.738ZM64.1261 102.995C63.7999 103.493 63.4865 103.988 63.1877 104.499C63.1986 104.416 63.2026 104.329 63.2135 104.247C63.4462 103.603 63.7185 102.964 64.0439 102.333C64.3297 101.698 64.6493 101.075 64.9759 100.456C64.7071 101.129 64.4722 101.813 64.2693 102.493C64.2153 102.663 64.1742 102.831 64.1261 102.995ZM59.4372 119.905C59.4759 120.026 59.521 120.146 59.5603 120.272C59.5433 120.546 59.5397 120.823 59.529 121.096C59.4811 120.7 59.4525 120.301 59.4372 119.905ZM64.9964 99.1543C64.9388 99.2272 64.8882 99.3048 64.837 99.3766C65.5239 98.0236 66.3122 96.7058 67.1944 95.413C67.8615 94.4324 68.5794 93.5012 69.3334 92.6044C68.8728 93.2511 68.4197 93.9081 67.9953 94.5893C66.9761 95.945 66.0393 97.339 65.1999 98.7921C65.1214 98.9146 65.0621 99.0339 64.9964 99.1543ZM68.4257 134.899C68.2833 134.784 68.135 134.676 67.992 134.555C67.7367 134.297 67.4879 134.038 67.2443 133.766C67.4837 133.935 67.7288 134.096 67.9675 134.259C68.1143 134.477 68.2732 134.688 68.4257 134.899ZM61.1727 104.812C61.7491 103.339 62.4259 101.89 63.2304 100.477C63.2798 100.388 63.3362 100.304 63.392 100.214C63.1304 101.018 62.9027 101.834 62.6948 102.653C62.0978 103.68 61.5486 104.728 61.0665 105.793C61.0894 105.513 61.1122 105.232 61.1421 104.956C61.1501 104.908 61.1646 104.86 61.1727 104.812ZM60.9248 123.469C61.0628 123.729 61.2073 123.987 61.3511 124.241C61.4164 124.553 61.4886 124.87 61.5667 125.18C61.5349 125.687 61.5096 126.193 61.5104 126.701C61.511 126.707 61.5122 126.718 61.5128 126.724C61.3116 126.359 61.1163 125.987 60.9401 125.612C60.8917 124.899 60.8887 124.184 60.9248 123.469ZM60.9607 107.651C61.3078 106.728 61.7085 105.82 62.1495 104.923C61.9804 105.614 61.8312 106.308 61.7082 107.003C61.6833 107.14 61.6707 107.269 61.6459 107.406C61.4379 107.849 61.2428 108.291 61.0547 108.737C61.0173 108.38 60.9858 108.016 60.9607 107.651ZM61.3433 110.126C61.3358 110.179 61.3289 110.238 61.3214 110.291C61.3168 110.309 61.3186 110.326 61.3139 110.344C61.2646 110.122 61.2275 109.891 61.1909 109.667C61.267 109.458 61.3494 109.248 61.4318 109.039C61.398 109.402 61.3643 109.765 61.3433 110.126ZM60.4055 120.185C60.4428 119.856 60.493 119.524 60.5432 119.193C60.6863 118.691 60.8289 118.183 60.972 117.681C60.9722 117.807 60.9783 117.928 60.9849 118.053C60.9456 118.614 60.9192 119.172 60.919 119.731C60.8485 120.118 60.7979 120.507 60.7472 120.896C60.625 120.662 60.5091 120.427 60.4055 120.185ZM62.7329 127.29C62.6423 126.861 62.5653 126.435 62.5068 126.001C62.5834 126.109 62.6727 126.216 62.7551 126.318C62.7985 126.795 62.8611 127.269 62.9307 127.748C62.8628 127.598 62.7943 127.442 62.7329 127.29ZM62.5129 116.262C62.5001 116.328 62.4938 116.392 62.4869 116.451C62.4712 116.425 62.4484 116.394 62.4262 116.369C62.4465 116.314 62.4674 116.264 62.4877 116.209C62.5023 116.224 62.5041 116.241 62.5129 116.262ZM62.2445 118.187C62.2157 118.099 62.1864 118.006 62.1577 117.919C62.1506 117.851 62.1435 117.782 62.1428 117.713C62.1821 117.84 62.2143 117.961 62.253 118.082C62.2502 118.117 62.2473 118.152 62.2445 118.187ZM61.4741 117.056C61.4777 117.09 61.4812 117.124 61.4906 117.151C61.4824 117.135 61.4748 117.125 61.4666 117.109C61.4712 117.091 61.4759 117.073 61.4741 117.056ZM62.0996 115.303C62.096 115.269 62.0867 115.242 62.0831 115.208C62.0919 115.23 62.1013 115.257 62.11 115.279C62.1048 115.291 62.099 115.298 62.0996 115.303ZM62.6481 122.049C62.6574 122.013 62.6666 121.977 62.6759 121.941C62.6871 121.985 62.6982 122.029 62.7158 122.073C62.7073 122.241 62.6989 122.41 62.6904 122.579C62.6714 122.397 62.6537 122.227 62.6481 122.049ZM61.5803 119.132C61.7172 119.445 61.8664 119.749 62.022 120.052C61.9508 120.681 61.9052 121.306 61.8859 121.932C61.7061 121.148 61.5701 120.346 61.4853 119.535C61.5108 119.404 61.549 119.27 61.5803 119.132ZM62.86 113.344C62.8333 113.4 62.8066 113.457 62.7862 113.512C62.7052 113.173 62.6312 112.839 62.5764 112.502C62.6118 112.404 62.6408 112.307 62.6756 112.203C62.7069 112.129 62.7389 112.06 62.7766 111.985C62.7856 112.445 62.8196 112.895 62.86 113.344ZM61.3391 121.318C61.4003 121.654 61.468 121.989 61.5478 122.316C61.5005 122.238 61.4531 122.159 61.4057 122.08C61.3791 121.825 61.353 121.575 61.3391 121.318ZM61.752 123.396C61.741 123.479 61.7371 123.566 61.7262 123.648C61.6964 123.613 61.6596 123.573 61.6298 123.537C61.6004 123.381 61.5651 123.231 61.5357 123.074C61.6059 123.184 61.676 123.293 61.752 123.396ZM62.4218 127.809C62.46 127.987 62.5041 128.159 62.5423 128.337C62.3424 128.047 62.1425 127.757 61.9612 127.458C61.9578 127.175 61.9667 126.886 61.9761 126.601C62.1097 127.006 62.2562 127.409 62.4218 127.809ZM63.1539 130.383C62.7746 129.874 62.4321 129.342 62.1075 128.795C62.3892 129.181 62.6895 129.559 63.0021 129.929C63.0507 130.082 63.0994 130.236 63.1539 130.383ZM64.4737 131.654C64.8355 132.183 65.2345 132.695 65.6523 133.197C65.2616 132.829 64.8884 132.44 64.5274 132.043C64.5138 131.913 64.4937 131.784 64.4737 131.654ZM64.0148 126.203C64.1398 126.338 64.2712 126.473 64.4021 126.601C64.4366 126.682 64.477 126.756 64.5115 126.837C64.3415 126.646 64.1779 126.453 64.0085 126.268C64.012 126.238 64.0102 126.221 64.0148 126.203ZM61.1765 112.149C61.1727 112.3 61.1554 112.447 61.158 112.597C61.0426 112.927 60.9335 113.257 60.8309 113.585C60.646 113.188 60.4791 112.777 60.3257 112.37C60.4943 111.737 60.6762 111.107 60.8845 110.478C60.9624 111.037 61.0601 111.598 61.1765 112.149ZM60.6633 121.591C60.6519 121.731 60.6463 121.864 60.6343 121.999C60.516 121.742 60.4101 121.476 60.3041 121.211C60.3074 121.118 60.3178 121.03 60.3275 120.936C60.4358 121.161 60.5498 121.378 60.6633 121.591ZM61.0165 122.225C61.0253 122.246 61.0399 122.261 61.0487 122.283C61.073 122.515 61.1037 122.747 61.1344 122.978C61.1128 122.959 61.097 122.933 61.0754 122.913C61.0427 122.849 61.0093 122.78 60.976 122.71C60.992 122.552 61.0011 122.389 61.0165 122.225ZM73.261 139.793C71.3489 138.907 69.5607 137.834 67.9564 136.586C67.5709 136.205 67.2041 135.815 66.8618 135.41C67.8478 136.171 68.8972 136.852 69.9991 137.473C70.9472 138.246 71.9465 138.948 73.0041 139.582C73.0893 139.648 73.1687 139.722 73.261 139.793ZM65.6599 129.838C65.3578 129.444 65.0616 129.043 64.7909 128.637C65.0017 128.845 65.2248 129.045 65.4415 129.246C65.5147 129.447 65.5873 129.643 65.6599 129.838ZM64.1844 124.768L64.2424 124.262C64.2658 124.299 64.2962 124.34 64.3196 124.376C64.3568 124.67 64.3946 124.97 64.4447 125.262C64.3558 125.097 64.2669 124.933 64.1844 124.768ZM64.0626 109.501C64.1731 109.31 64.2911 109.129 64.4016 108.938C64.2176 109.423 64.0534 109.912 63.9021 110.398C63.9494 110.102 64.0025 109.799 64.0626 109.501ZM60.6775 108.436C60.7008 108.784 60.7242 109.132 60.7603 109.478C60.5496 110.02 60.3523 110.566 60.1684 111.115C60.1608 110.73 60.1718 110.336 60.1956 109.94C60.3451 109.436 60.5011 108.932 60.6775 108.436ZM59.5812 113.109C59.4556 113.592 59.3491 114.071 59.2491 114.548C59.3071 114.043 59.3721 113.542 59.4628 113.037C59.4795 112.947 59.4969 112.864 59.5136 112.774C59.5383 112.886 59.563 112.997 59.5812 113.109ZM60.2659 115.604C60.2573 115.646 60.2428 115.695 60.2341 115.737C60.0263 116.619 59.8704 117.498 59.7465 118.372C59.7272 118.312 59.7084 118.257 59.6891 118.197C59.6052 117.893 59.5405 117.587 59.4695 117.281C59.5424 116.294 59.68 115.303 59.8766 114.313C59.9939 114.749 60.1235 115.178 60.2659 115.604ZM60.2543 122.108C60.3567 122.339 60.4586 122.564 60.5732 122.788C60.5381 123.388 60.51 123.992 60.5069 124.587C60.4367 124.414 60.3606 124.248 60.2903 124.075C60.2768 124.008 60.2703 123.945 60.2632 123.877C60.2412 123.292 60.2378 122.699 60.2543 122.108ZM91.8329 144.335C93.0403 144.345 94.2471 144.285 95.4619 144.178C94.1574 144.363 92.8476 144.498 91.5441 144.568C90.5943 144.527 89.6479 144.458 88.7108 144.352C89.2973 144.348 89.8891 144.332 90.4796 144.304C90.9309 144.316 91.3822 144.329 91.8329 144.335ZM65.8899 132.039C65.1617 130.999 64.5511 129.899 64.0717 128.744C64.0433 128.535 64.0156 128.332 63.9872 128.123C64.6221 129.144 65.3497 130.114 66.1692 131.03C66.4741 131.701 66.8099 132.355 67.183 132.992C66.7277 132.692 66.2969 132.376 65.8899 132.039ZM66.2221 129.913C66.2723 129.957 66.329 130 66.3786 130.038C67.3417 131.391 68.4773 132.647 69.7823 133.777C69.8179 133.805 69.8465 133.829 69.8821 133.858C68.6913 133.01 67.6005 132.058 66.649 131.003C66.4945 130.647 66.3452 130.28 66.2221 129.913ZM67.8787 130.351C68.1169 130.571 68.3493 130.799 68.5998 131.011C68.8001 131.18 69.0126 131.342 69.2187 131.504C68.9683 131.355 68.7237 131.199 68.4786 131.037C68.2788 130.81 68.0784 130.578 67.8787 130.351ZM68.8465 130.688C68.0676 130.037 67.3662 129.316 66.713 128.558C66.9886 128.761 67.2641 128.964 67.5455 129.16C67.9895 129.727 68.4697 130.266 68.9743 130.788C68.9311 130.749 68.8891 130.722 68.8465 130.688ZM65.426 126.664C65.3805 126.354 65.3415 126.043 65.3089 125.731C65.3691 125.808 65.4293 125.884 65.4959 125.96C65.6018 126.162 65.6948 126.366 65.8065 126.561C65.9591 126.836 66.1362 127.095 66.3011 127.362C66.0034 127.134 65.7115 126.9 65.426 126.664ZM75.6877 132.063C74.5583 131.677 73.5028 131.187 72.4926 130.632C71.5633 129.977 70.6876 129.273 69.8776 128.511C70.1087 128.664 70.3515 128.803 70.5885 128.948C71.6969 129.695 72.8688 130.362 74.0784 130.954C75.0571 131.52 76.0824 132.033 77.1349 132.494C76.6788 132.373 76.2221 132.246 75.7706 132.107C75.749 132.087 75.7151 132.076 75.6877 132.063ZM88.4229 130.428C87.9209 130.429 87.4241 130.419 86.9268 130.402C84.6333 130.173 82.3786 129.753 80.193 129.119C83.2925 129.885 86.5564 130.29 89.8803 130.333C90.2592 130.34 90.637 130.335 91.0142 130.325C90.1532 130.386 89.2898 130.424 88.4229 130.428ZM65.1883 95.8116C64.8335 96.2852 64.4863 96.7691 64.1745 97.2183L64.1804 97.2116C64.6866 96.3151 65.2431 95.4623 65.8142 94.6243C65.6009 95.017 65.3882 95.4154 65.1883 95.8116ZM91.3222 143.006C90.8721 143.005 90.4156 143.005 89.9643 142.992C91.1379 142.99 92.3126 142.936 93.4756 142.831C92.7592 142.903 92.0352 142.964 91.3222 143.006ZM74.8329 138.797C74.5003 138.672 74.173 138.536 73.8457 138.399C72.5322 137.75 71.2938 137.007 70.1187 136.185C69.8337 135.891 69.5557 135.602 69.2951 135.293C69.1911 135.172 69.0994 135.042 68.9954 134.921C71.5645 136.478 74.4053 137.638 77.397 138.433C80.9501 139.921 84.8655 140.818 88.8831 141.134C84.0657 141.215 79.3198 140.483 74.8329 138.797ZM73.0582 136.481C71.2216 135.755 69.5753 134.791 68.1127 133.589C68.0573 133.558 68.0147 133.525 67.9592 133.493C67.6483 133.014 67.3681 132.517 67.1137 132.017C67.3461 132.244 67.5855 132.476 67.8366 132.694C69.5463 134.202 71.4713 135.461 73.555 136.491C73.8958 136.695 74.2361 136.893 74.5821 137.084C74.0664 136.892 73.5629 136.692 73.0582 136.481ZM76.7708 137.434C75.7592 137.052 74.7563 136.629 73.7812 136.16C73.1568 135.801 72.5492 135.416 71.9527 135.012C71.1599 134.104 70.3602 133.191 69.5675 132.283C70.569 132.88 71.6106 133.424 72.6976 133.904C73.3776 134.357 74.0751 134.791 74.8068 135.178C79.5149 137.67 84.8199 139.009 90.3702 139.326C87.6145 139.479 84.8706 139.37 82.209 138.987C80.3433 138.607 78.5222 138.093 76.7708 137.434ZM73.0606 133.446C71.7665 132.545 70.604 131.53 69.5702 130.437C70.8126 131.156 72.118 131.789 73.4669 132.341C75.9642 133.835 78.7268 134.996 81.655 135.808C78.6948 135.376 75.8098 134.604 73.0606 133.446ZM110.581 130.533C109.595 130.955 108.599 131.355 107.596 131.733C106.335 132.148 105.063 132.524 103.773 132.845C101.878 133.312 99.9647 133.661 98.0522 133.894C98.4485 133.818 98.8437 133.73 99.2446 133.635C101.5 133.247 103.722 132.669 105.898 131.902C108.113 131.135 110.253 130.264 112.375 129.293C113.664 128.706 114.928 128.072 116.19 127.42C116.847 127.093 117.497 126.756 118.145 126.407C117.342 126.902 116.539 127.392 115.714 127.856C114.045 128.799 112.333 129.698 110.581 130.533ZM72.3194 102.33C71.2561 103.451 70.2437 104.621 69.3008 105.895C67.1619 108.767 65.3728 111.928 64.189 115.203C64.1713 115.096 64.1531 114.984 64.1354 114.877C64.1388 114.847 64.1364 114.825 64.1399 114.795C64.3685 114.175 64.617 113.557 64.9186 112.948C65.7712 111.061 66.8007 109.242 67.9934 107.488C69.3956 105.429 71.001 103.568 72.754 101.809C72.6092 101.983 72.4643 102.157 72.3194 102.33ZM64.7335 104.937C64.7939 104.829 64.8544 104.721 64.9148 104.613C64.8213 104.842 64.7279 105.071 64.6414 105.304C64.6744 105.184 64.7004 105.058 64.7335 104.937ZM63.8561 105.652C63.8456 105.677 63.8346 105.696 63.8241 105.721C63.9743 104.912 64.1642 104.108 64.3995 103.302C64.6071 102.979 64.8007 102.648 65.0217 102.329C65.2142 102.049 65.4137 101.774 65.6132 101.499C65.2682 102.254 64.9564 103.014 64.6778 103.781C64.3833 104.395 64.1098 105.022 63.8561 105.652ZM63.1266 107.284C63.0122 107.562 62.9036 107.834 62.7963 108.117C62.8892 107.259 62.9822 106.402 63.0752 105.544C63.3048 105.12 63.5279 104.697 63.7715 104.282C63.5109 105.282 63.2957 106.281 63.1266 107.284ZM60.4661 103.792C60.3925 104.087 60.3196 104.387 60.2531 104.686C60.2484 104.705 60.2374 104.724 60.2333 104.747C60.2662 104.563 60.2863 104.381 60.3199 104.202C60.3639 104.063 60.415 103.927 60.4661 103.792ZM108.234 138.343C105.921 139.236 103.556 140.005 101.172 140.593C96.1995 141.813 91.0859 142.243 86.1667 141.787C87.9031 141.866 89.6487 141.844 91.3905 141.726C92.9185 141.619 94.4917 141.384 96.0519 141.087C100.178 140.698 104.27 139.721 108.234 138.343ZM103.662 138.523C101.437 139.257 99.1958 139.844 96.9455 140.277C91.5856 140.909 86.2143 140.62 81.1839 139.225C81.6213 139.292 82.0645 139.352 82.5071 139.406C86.0921 140.075 89.8424 140.267 93.5536 140.021C95.3934 139.903 97.216 139.621 99.0291 139.185C100.374 138.947 101.698 138.643 103.016 138.271C104.793 137.864 106.553 137.356 108.285 136.771C106.774 137.412 105.238 138.004 103.662 138.523ZM116.581 132.594C115.702 133.108 114.814 133.599 113.918 134.075C113.115 134.438 112.31 134.784 111.497 135.113C111.702 135.022 111.914 134.929 112.12 134.838C113.638 134.139 115.125 133.387 116.581 132.594ZM96.3275 139.294C96.6966 139.268 97.0585 139.238 97.4264 139.2C97.234 139.232 97.0429 139.275 96.8505 139.306C93.7374 139.783 90.6085 139.922 87.5543 139.714C89.2958 139.716 91.0529 139.618 92.8051 139.411C92.8371 139.406 92.8692 139.4 92.8954 139.402C94.0306 139.406 95.175 139.374 96.3275 139.294ZM92.5178 139.158C89.545 139.167 86.6805 138.778 83.9173 137.986C82.4034 137.727 80.9411 137.338 79.5496 136.817C84.1614 138.2 89.1955 138.694 94.2865 138.36C96.1193 138.238 97.9362 137.963 99.737 137.534C100.493 137.405 101.245 137.241 101.997 137.065C100.93 137.408 99.8487 137.73 98.763 138.012C96.7064 138.551 94.614 138.935 92.5178 139.158ZM114.761 131.531C112.646 132.698 110.476 133.77 108.254 134.723C106.264 135.465 104.225 136.111 102.14 136.627C93.3486 138.808 84.1008 138.556 76.247 135.23C79.9821 136.4 84.0071 136.973 88.0796 137.003C91.5393 137.346 95.0898 137.248 98.5706 136.67C104.199 135.735 109.578 133.917 114.761 131.531ZM86.2826 135.907C87.7911 136.052 89.3229 136.106 90.8539 136.091C90.1293 136.147 89.4093 136.184 88.6811 136.206C87.877 136.124 87.0781 136.031 86.2826 135.907ZM70.9598 95.4986C70.5232 95.9394 70.1077 96.3942 69.6992 96.8535C69.8359 96.6638 69.9796 96.4786 70.1227 96.2879C70.3951 96.0239 70.6739 95.7589 70.9598 95.4986ZM66.9616 99.7373C66.6529 100.215 66.3511 100.697 66.0627 101.183C66.1679 100.941 66.2736 100.704 66.3857 100.466C66.5753 100.222 66.765 99.9773 66.9616 99.7373ZM68.1716 96.7755C67.5349 97.7972 66.9403 98.8467 66.3923 99.9058C66.3865 99.9125 66.3807 99.9193 66.3748 99.926C65.8256 100.599 65.3056 101.301 64.806 102.012C65.2684 100.696 65.862 99.3872 66.5548 98.0908C67.4217 97.0255 68.3522 96.0075 69.3317 95.0217C68.9287 95.5955 68.5396 96.1786 68.1716 96.7755ZM67.9608 140.871C69.1466 141.859 70.4337 142.755 71.8133 143.538C72.8268 144.312 73.9054 145.023 75.0481 145.661C72.3605 144.406 69.9551 142.793 67.9608 140.871Z" fill="#FDC6DF"/>
</g>
</g>
</g>
</g>
</g>
</svg>
