<svg width="150" height="130" viewBox="0 0 150 130" fill="none" xmlns="http://www.w3.org/2000/svg">
<path d="M170.756 95.4657C172.262 93.8325 173.547 92.0143 174.489 89.9999C174.993 88.9287 175.409 87.8322 175.734 86.7151C176.891 84.3345 177.593 81.7562 177.779 79.1226C177.84 78.2423 177.845 77.371 177.8 76.499C177.799 76.3631 177.808 76.2321 177.807 76.0962C177.779 74.5739 177.568 73.0589 177.226 71.5762C176.66 69.1076 175.243 66.6617 174.03 64.4904C173.025 62.7806 172.008 61.0706 170.986 59.3703C170.168 58.2527 169.26 57.2068 168.259 56.2374C166.564 54.5136 164.675 53.001 162.54 51.82C156.246 47.9025 148.386 47.4476 141.148 49.3966C137.9 50.274 134.783 51.4323 131.757 52.8951C131.176 53.1764 130.6 53.4601 130.026 53.7511C129.985 53.6074 129.944 53.4636 129.908 53.3224C130.001 53.0615 130.012 52.9621 129.96 52.641C129.749 52.0363 129.549 51.4317 129.36 50.82C129.12 50.0838 128.897 49.3381 128.686 48.5926C126.719 42.2147 124.027 35.4121 118.902 30.7575C117.617 29.5901 116.204 28.5497 114.683 27.6948C112.434 26.2478 109.986 25.3104 107.3 24.8383C103.866 24.2375 100.568 24.505 97.1414 25.0961C94.6128 25.5338 91.993 26.3321 89.61 27.3106C87.1633 28.3126 84.9816 29.5705 83.1521 31.4665C83.0506 31.5696 83.6169 32.2226 83.6352 32.201C84.888 31.0378 86.1677 30.0788 87.654 29.2171C88.2278 28.9261 88.8134 28.6595 89.3911 28.4073C88.4127 28.9018 87.4726 29.4648 86.5573 30.1324C86.4749 30.1896 86.4541 30.2961 86.4635 30.4055C86.2146 30.5454 85.9657 30.6854 85.7291 30.8376C84.364 31.6984 83.23 32.6812 82.2273 33.8283C82.1396 33.8951 82.0492 33.9667 81.9614 34.0335C80.6716 35.0798 79.5322 36.2445 78.6409 37.6383C78.3675 38.0983 78.0941 38.5583 77.8207 39.0183C77.7386 39.2357 77.6615 39.4556 77.5894 39.678C77.4363 39.909 77.2958 40.1402 77.1702 40.3788C77.1126 40.4484 77.055 40.5181 76.9948 40.5925C76.2155 41.6115 75.628 42.6281 75.1791 43.7388C74.8163 44.4064 74.5086 45.0893 74.2586 45.7826C74.2533 45.7923 74.2503 45.8092 74.2499 45.8214C73.6921 46.7728 73.2437 47.7791 72.9123 48.8379C72.7682 49.1904 72.6441 49.5529 72.5325 49.9155C71.4937 52.0355 71.0742 54.3796 71.004 56.7696C70.8614 61.7145 72.3449 66.5326 74.3635 71.0034C76.2684 75.2203 78.5998 79.2631 81.1506 83.1389C84.2063 87.7786 87.7111 92.0771 91.2667 96.3641C91.6567 96.8304 92.4314 96.3138 92.1096 95.931C88.9771 92.1883 85.895 88.4464 83.1028 84.4558L80.8353 81.159C79.5581 79.0232 78.2859 76.89 77.0114 74.7494C76.1952 73.1586 75.459 71.5032 74.8302 69.8032C75.2619 70.8259 75.7269 71.8344 76.2178 72.819C77.829 76.0393 79.6897 79.0953 81.7422 82.0689C85.2275 87.1148 88.8941 92.0052 92.8122 96.7509C92.9536 96.9202 93.8142 96.5698 93.5238 96.2335L90.2382 92.3772C88.3853 90.3407 86.7076 88.1827 85.1871 85.9127C87.3556 88.8029 89.6473 91.6194 91.9726 94.4097C92.1335 94.6011 92.3482 94.5918 92.5127 94.4896C92.7587 94.7914 93.0123 95.0908 93.2583 95.3926C93.5656 95.7559 94.3648 95.2639 93.9721 94.8024C93.5453 94.2992 93.1162 93.7887 92.692 93.2807C92.6997 93.2784 92.715 93.2737 92.7226 93.2714C92.964 93.5586 93.2027 93.8505 93.449 94.1402C93.6977 94.4371 94.081 94.2723 94.2432 93.9904C94.5455 94.3512 94.8428 94.7094 95.1478 95.0654C95.5282 95.5146 96.2802 95.0851 95.9169 94.6507C95.117 93.7081 94.3247 92.7633 93.535 91.8136C93.5659 91.7921 93.5918 91.7682 93.6155 91.7369C93.9201 92.105 94.2296 92.4756 94.5342 92.8437C94.9193 93.3075 95.7849 92.7872 95.4095 92.3406C95.1704 92.0607 94.934 91.776 94.7026 91.4939C95.0301 91.5103 95.3962 91.3306 95.1376 91.0287C91.5703 86.7973 88.0896 82.5356 84.976 77.9776C83.8544 76.3876 82.8023 74.7524 81.8196 73.072C80.6534 71.195 79.6461 69.2376 78.8075 67.2047C77.6499 64.6919 76.5708 62.083 75.9589 59.3758C75.7997 57.8373 75.7849 56.2788 76.0017 54.7378C76.2904 56.4213 76.7056 58.0943 77.1808 59.785C77.2058 59.8776 77.3131 60.0052 77.4234 60.1159C77.7958 61.4412 78.2392 62.7529 78.7288 64.0385C82.5643 74.0915 89.4288 82.7327 96.3046 90.9857C96.4314 91.1354 97.338 91.3682 97.0599 91.0442C93.0256 86.3018 89.0734 81.5144 85.6424 76.3358C84.2913 74.3108 83.0327 72.2335 81.874 70.1018C80.6473 67.9667 79.6989 65.7187 79.0136 63.3626C77.0639 59.2956 76.5296 54.9778 77.3651 50.4109C77.4339 50.5623 77.5026 50.7137 77.491 50.8494C77.4991 50.4903 77.5323 50.1315 77.5705 49.7752C77.8114 49.305 78.0692 48.8618 78.3541 48.4383C78.3467 48.6931 78.3488 48.965 78.4015 48.8006C78.4984 48.5106 78.6002 48.2231 78.7046 47.9307C79.4461 46.9113 80.3112 45.9784 81.2856 45.0203C81.5636 44.7472 80.7488 45.0836 80.6843 45.1313C80.3902 45.3532 80.1036 45.5728 79.8221 45.7948C79.8048 45.78 79.7903 45.7604 79.7754 45.7529C79.7555 45.743 79.7276 45.7475 79.705 45.7423C80.8947 44.6705 82.2195 43.7218 83.6239 42.8129C83.6162 42.8153 83.6063 42.8103 83.5987 42.8126C82.9457 42.8793 82.4982 42.9074 82.1158 42.9558C83.2697 42.1554 84.4793 41.4382 85.6598 40.7618C85.9114 40.6171 85.5476 40.4594 85.4261 40.4724C85.4058 40.4745 85.3856 40.4767 85.3653 40.4789C86.3768 39.8901 87.4223 39.3431 88.4921 38.8328C88.5688 38.7974 88.8278 38.5702 88.5669 38.6057C88.0576 38.6767 87.5258 38.7425 86.9913 38.8132C87.3783 38.6071 87.7601 38.4106 88.1541 38.2265C88.4905 38.1119 88.8293 38.0047 89.1753 37.9073C89.3105 37.8581 89.2103 37.8325 89.044 37.823C90.3242 37.2767 91.6451 36.8061 93.0161 36.3483C93.1001 36.3227 93.2416 36.2275 93.3756 36.1346C93.7674 36.0232 94.1566 35.9166 94.5508 35.8126C94.6501 35.7823 94.8988 35.5622 94.6481 35.5905C93.9142 35.6659 93.1749 35.7508 92.4402 35.8505C92.2251 35.8719 92.005 35.8909 91.7899 35.9123C91.8276 35.8327 91.8065 35.779 91.669 35.8209C91.4375 35.8834 91.2087 35.9411 90.9723 36.0011C90.5799 36.0445 90.1898 36.0953 89.7998 36.146C90.7926 35.7633 91.8068 35.4222 92.8323 35.1298C95.4531 34.3874 98.0591 34.0623 100.777 33.9474C100.934 33.9398 101.557 33.6858 101.527 33.683C100.457 33.516 99.3899 33.4244 98.3106 33.4005C101.13 33.0103 103.919 33.1706 106.674 33.8863C106.939 33.9456 107.317 33.6301 107.57 33.7014C106.604 33.4266 105.632 33.1857 104.651 32.9836C104.191 32.8392 103.738 32.7046 103.293 32.5798C104.248 32.6093 105.2 32.6922 106.149 32.8478C106.406 32.8779 106.758 32.4019 106.959 32.4288C105.266 32.1712 103.587 31.9332 101.866 31.9203C103.495 31.813 105.131 31.8514 106.758 32.0572C108.773 33.1104 110.791 34.1587 112.807 35.2118C114.078 36.2552 115.18 37.4663 116.18 38.7488C119.31 42.7487 121.234 47.5047 122.615 52.3142C123.137 54.1269 123.752 56.1278 123.805 58.0193C123.826 58.4978 123.83 58.9736 123.813 59.4515C123.823 59.4687 123.82 59.4856 123.822 59.505C123.739 59.5744 123.656 59.6437 123.566 59.7032C123.485 59.8963 123.476 60.0952 123.533 60.3023C123.538 60.397 123.584 60.4631 123.651 60.515C123.593 60.5846 123.536 60.6543 123.453 60.7114C123.419 60.7498 123.388 60.7834 123.362 60.8195C123.211 59.9437 123.017 59.077 122.779 58.2195C122.729 58.0344 122.027 57.9038 122.012 57.8041C122.291 59.2981 122.847 61.0603 122.477 62.5919C122.028 62.853 122.04 62.8532 121.784 63.4882C121.735 63.6114 121.775 63.7236 121.875 63.8292C121.858 63.9067 121.836 63.9816 121.816 64.0639C121.481 64.1979 121.384 64.3155 121.177 64.7473C121.029 65.0609 121.382 65.4102 121.832 65.6661C121.703 65.7494 121.577 65.84 121.453 65.9257C121.345 65.9025 121.24 65.8744 121.137 65.8536C120.978 65.854 120.853 65.9203 120.758 66.0453C120.705 66.1295 120.65 66.2186 120.597 66.3029C120.485 66.481 120.559 66.7393 120.722 67.006C120.537 67.1347 120.34 67.2389 120.116 67.2991C120.203 67.4046 120.291 67.5101 120.374 67.6131C120.313 67.6439 120.261 67.6796 120.192 67.7248C120.215 67.9581 120.244 68.1576 120.284 68.3498C120.086 68.4783 119.889 68.5704 119.709 68.5972C119.719 68.6143 119.728 68.6314 119.741 68.6437C119.659 68.6645 119.58 68.7168 119.503 68.8202C119.309 69.0798 119.45 69.8705 119.649 70.2105C119.283 70.4023 118.924 70.604 118.574 70.8106C118.084 71.1003 118.331 71.7103 118.444 72.1487C118.514 72.436 118.583 72.852 118.795 73.0878C118.747 73.0823 118.806 73.1365 118.974 73.2576C119.03 73.2608 119.088 73.2591 119.143 73.2623C119.161 73.2649 119.176 73.2724 119.196 73.2703C119.191 73.2678 119.186 73.2653 119.181 73.2628C119.282 73.2641 119.385 73.2727 119.481 73.2716C119.565 73.246 119.663 73.1963 119.765 73.1369C119.868 73.3179 120.006 73.4605 120.152 73.4721C120.69 73.5204 121.013 73.2698 121.438 72.9598C123.186 71.7059 124.927 70.4981 126.774 69.3742C126.862 69.3195 126.867 69.1497 126.754 69.1239C126.654 69.0983 126.543 69.1042 126.428 69.1269C127.01 68.7413 127.594 68.3509 128.185 67.9824C128.28 67.9254 128.271 67.9083 128.173 67.958C127.579 68.2512 126.995 68.5494 126.409 68.8524C127.796 68.0089 129.212 67.2167 130.643 66.432C130.889 66.2969 130.538 66.1515 130.421 66.167C129.93 66.2406 129.567 66.2869 129.248 66.3361C131.022 65.3787 132.837 64.4971 134.698 63.6938C134.808 63.6442 134.779 63.5128 134.654 63.5306C134.222 63.5783 133.796 63.6237 133.368 63.6739C134.775 63.037 136.198 62.4391 137.652 61.912C137.667 61.9073 138.295 61.5757 137.925 61.6243C137.31 61.7036 136.699 61.7854 136.091 61.8746C136.517 61.7248 136.945 61.5823 137.375 61.4472C137.63 61.3656 137.324 61.2062 137.213 61.212C137.147 61.216 137.082 61.22 137.018 61.2192C138.383 60.7152 139.777 60.2626 141.206 59.8832C141.237 59.8739 141.29 59.8455 141.354 59.8099C141.441 59.7916 141.53 59.7685 141.619 59.7454C141.954 59.6673 142.221 59.2654 141.713 59.2879C141.602 59.2937 141.488 59.3044 141.377 59.3102C141.751 59.2083 142.125 59.1064 142.506 59.0143C142.775 58.9523 142.977 58.5059 143.223 58.463C141.58 58.7473 139.893 59.0407 138.237 59.4293C138.537 59.3337 138.841 59.2333 139.143 59.145C142.373 58.2212 145.507 57.8594 148.873 57.9399C149.08 57.945 149.669 57.7294 149.717 57.7349C148.519 57.5347 147.351 57.3738 146.18 57.2856C146.246 57.2816 146.309 57.2703 146.375 57.2663C149.318 57.0549 151.502 57.2631 154.479 57.9793C154.692 58.0306 155.251 57.7879 155.326 57.8132C154.004 57.4027 152.679 57.0406 151.335 56.7609C151.048 56.6722 150.765 56.5859 150.48 56.5045C151.684 56.5543 152.887 56.689 154.073 56.9327C157.116 57.5526 159.874 58.8121 162.315 60.5092C162.713 60.8688 163.093 61.2379 163.461 61.6189C165.554 63.8066 167.352 66.2526 168.793 68.8953C170.785 72.5526 172.386 76.4815 171.878 80.8124C171.706 82.2835 171.354 83.7013 170.849 85.0734C170.604 85.609 170.326 86.1224 170.039 86.6308C170.025 86.5068 170.01 86.4071 170.011 86.3949C169.94 86.6368 169.85 86.8686 169.762 87.1077C169.378 87.7338 168.959 88.3424 168.511 88.9239C167.727 89.6637 166.901 90.3641 166.035 91.013C163.803 92.6828 161.357 93.9251 158.826 95.1129C159.041 95.0113 159.466 95.0582 159.708 95.0006C160.495 94.8168 161.281 94.6135 162.062 94.3834C161.639 94.6327 161.203 94.8697 160.767 95.1068C159.559 95.6711 158.323 96.184 157.07 96.6579C156.918 96.6802 156.776 96.7075 156.624 96.7297C156.472 96.82 156.319 96.9029 156.164 96.998C155.379 97.2814 154.588 97.5623 153.793 97.8286C153.653 97.8754 153.703 98.0847 153.758 98.168C152.95 98.4584 152.139 98.7415 151.331 99.0076C151.066 99.0964 151.074 99.2664 151.386 99.2074C151.5 99.1846 151.612 99.1666 151.726 99.1439C149.498 100.003 147.197 100.592 144.814 100.893C142.782 101.248 140.733 101.507 138.677 101.677C138.54 101.695 138.396 101.702 138.45 101.858C138.491 101.99 139 101.931 139.091 101.928C140.048 101.896 141.028 101.858 142.016 101.818C140.024 102.124 138.021 102.37 136.029 102.572C135.963 102.576 135.882 102.597 135.798 102.622C128.069 103.15 120.294 102.829 112.543 102.213C112.299 102.196 111.822 102.277 111.678 102.26C120.476 103.155 129.341 103.812 138.197 103.486C126.786 104.723 115.275 103.878 103.919 102.532C102.478 102.358 101.035 102.177 99.5949 101.99C99.5521 101.987 99.5142 101.987 99.4791 101.982C99.0039 101.922 98.5288 101.862 98.0613 101.8C97.5207 101.733 97.1725 102.42 97.7608 102.493C98.158 102.544 98.5552 102.596 98.955 102.642C98.9879 102.813 99.0688 102.976 99.2248 102.993C102.053 103.358 104.873 103.712 107.7 104.046C104.067 103.678 100.439 103.232 96.8244 102.762C96.0602 102.663 96.2118 103.859 96.7699 103.929C97.2023 103.986 97.6346 104.042 98.0696 104.094C98.0472 104.169 98.0374 104.244 98.03 104.327C97.7333 104.289 97.4443 104.249 97.1477 104.211C96.7807 104.162 96.6544 104.425 96.6597 104.76C96.235 104.701 95.8126 104.65 95.3879 104.591C95.1265 104.558 95.0217 104.69 95.0106 104.894C94.4778 104.824 93.9449 104.754 93.417 104.686C93.1857 104.657 92.5233 105.303 92.8601 105.349C93.6594 105.454 94.4537 105.557 95.2481 105.659C95.2504 105.667 95.2527 105.674 95.2576 105.676C94.8983 105.626 94.5363 105.58 94.1743 105.534C93.5661 105.45 93.5782 105.9 93.7977 106.33C93.3126 106.265 92.8325 106.203 92.3474 106.138C92.1413 106.109 91.8624 106.499 91.88 106.674C91.9034 106.907 92.2604 107.123 92.4715 107.155C93.0093 107.227 93.5548 107.297 94.0926 107.37C94.1045 107.394 94.1164 107.419 94.131 107.438C93.6409 107.371 93.1558 107.307 92.6658 107.24C92.329 107.194 92.1199 107.526 92.2405 107.802C92.2712 107.873 92.3295 107.951 92.4053 108.032C92.0685 107.987 91.7318 107.941 91.395 107.895C91.0708 107.85 90.9717 108.305 91.0439 108.507C91.1562 108.81 91.8331 109.044 92.1619 109.104C92.2708 109.264 92.4882 109.422 92.7464 109.564C92.108 109.478 91.4746 109.394 90.8362 109.308C90.517 109.265 90.0868 109.308 90.1623 109.746C90.2033 109.982 90.5216 110.141 90.8466 110.243C90.8093 110.31 90.7992 110.397 90.8285 110.517C90.8509 110.614 90.9367 110.7 91.0507 110.77C91.0155 110.764 90.9853 110.761 90.9502 110.756C90.6436 110.713 89.7622 110.481 89.6689 110.994C89.5827 111.437 90.2758 111.551 90.6527 111.604C90.571 111.637 90.5092 111.68 90.4646 111.738C90.1507 112.202 90.7568 112.358 91.1161 112.409C101.686 113.877 112.239 115.042 122.963 114.957C129.245 114.911 135.55 114.501 141.746 113.358C139.013 114.131 136.228 114.631 133.385 114.856C128.167 115.368 122.975 115.511 117.796 115.389C117.496 115.381 117.195 115.372 116.895 115.363C116.583 115.354 116.27 115.345 115.96 115.331C108.186 114.999 100.47 114.112 92.755 113.052C92.4829 113.038 92.2177 113.047 91.9472 113.065C91.8065 113.044 91.6632 113.028 91.5225 113.006C90.9093 112.921 89.623 112.904 89.0806 113.241C88.7723 113.432 88.636 113.862 89.1436 113.932C94.2676 114.647 99.4132 115.311 104.582 115.784C112.664 116.572 120.796 116.936 128.92 116.373C135.299 115.932 141.614 115.102 147.786 113.37C154.33 111.528 161.245 108.648 165.643 103.416C166.323 102.84 166.979 102.239 167.591 101.604C169.14 99.986 170.181 98.0457 171.005 96.0273C171.075 95.8534 170.936 95.5992 170.756 95.4657ZM145.077 55.4896C144.906 55.4776 144.74 55.4682 144.566 55.461C145.397 55.336 146.235 55.245 147.074 55.1977C146.459 55.2649 145.846 55.3516 145.239 55.4601C145.186 55.4643 145.133 55.4806 145.077 55.4896ZM108.249 31.1058C107.329 30.8292 106.409 30.6206 105.482 30.4579C105.197 30.3765 104.909 30.2999 104.616 30.233C106.154 30.3454 107.663 30.6151 109.123 31.0639C110.414 31.6366 111.639 32.3493 112.776 33.1773C112.766 33.1724 112.751 33.1649 112.741 33.1599C111.36 32.302 109.877 31.5956 108.249 31.1058ZM146.018 50.0769C146.65 50.1289 147.284 50.176 147.921 50.2305C147.218 50.2965 146.521 50.3845 145.832 50.4944C145.123 50.5579 144.419 50.6482 143.709 50.7603L146.018 50.0769ZM172.374 71.1268C171.85 69.8116 171.216 68.5338 170.521 67.299L171.018 67.8929C171.195 68.1476 171.366 68.412 171.537 68.6764C172.093 69.6934 172.598 70.6977 173.025 71.7178C173.136 72.081 173.249 72.4392 173.331 72.8068C173.318 72.9232 173.309 73.042 173.299 73.1535C173.011 72.4677 172.705 71.7913 172.374 71.1268ZM152.246 54.2751C151.875 54.1756 151.497 54.0906 151.123 54.008C152.312 54.0867 153.501 54.2455 154.672 54.5059C155.604 54.7148 156.497 54.9838 157.358 55.2984C157.608 55.3988 157.862 55.5017 158.111 55.602C158.251 55.6597 158.386 55.7148 158.525 55.7725C159.15 56.1472 159.78 56.5244 160.405 56.8991C160.816 57.1666 161.211 57.4509 161.594 57.7472C161.186 57.5307 160.773 57.3238 160.345 57.1337C160.156 57.0512 159.964 56.9734 159.774 56.8908C157.434 55.632 154.887 54.7491 152.246 54.2751ZM172.135 67.4002C171.767 66.7109 171.38 66.031 170.981 65.3632C171.102 65.5468 171.23 65.7281 171.349 65.9165C171.438 66.0536 171.517 66.1857 171.607 66.3228C171.785 66.6771 171.962 67.0363 172.135 67.4002ZM127.271 52.8752C127.267 52.8485 127.263 52.8217 127.254 52.7924C127.2 52.5684 127.133 52.3443 127.076 52.1251C127.129 52.3054 127.187 52.4882 127.235 52.666C127.282 52.8438 127.322 53.0239 127.368 53.2066C127.338 53.0994 127.306 52.9849 127.271 52.8752ZM125.657 58.597C125.633 58.6404 125.605 58.6813 125.576 58.7222C125.564 58.6856 125.56 58.6467 125.549 58.6102L125.554 58.6126C125.594 58.6083 125.625 58.599 125.657 58.597ZM168.758 59.0911C169.328 59.783 169.898 60.475 170.469 61.167C170.947 61.7946 171.4 62.4462 171.842 63.1049C172.032 63.4521 172.22 63.8114 172.401 64.173C172.907 65.1651 173.386 66.1495 173.808 67.1551C172.795 65.2194 171.603 63.3542 170.313 61.6552C169.451 60.5153 168.506 59.4446 167.498 58.4532C167.92 58.665 168.34 58.8817 168.758 59.0911ZM119.672 33.8575C120.096 34.3534 120.526 34.8517 120.948 35.3524C121.12 35.5683 121.278 35.7888 121.448 36.0095C122.389 37.4782 123.233 38.9965 124.02 40.5482C124.769 42.0192 125.353 43.5124 125.944 45.0396C124.353 41.072 122.248 37.2166 119.251 34.102C118.049 32.8532 116.74 31.7729 115.321 30.8586C115.183 30.7525 115.043 30.639 114.897 30.5351C116.789 31.2371 118.384 32.3381 119.672 33.8575ZM119.994 39.9833C120.091 40.1059 120.189 40.2286 120.283 40.356C120.73 40.9493 121.141 41.5615 121.542 42.1808C121.959 42.9315 122.353 43.7012 122.719 44.4755C122.891 44.8758 123.064 45.2761 123.223 45.6763C123.992 47.5942 124.659 49.5472 125.227 51.5304C125.005 50.9207 124.775 50.3133 124.531 49.7106C124.181 48.7229 123.821 47.7425 123.408 46.7783C122.828 45.4041 122.161 44.0361 121.406 42.7033C120.981 41.7827 120.508 40.8687 119.994 39.9833ZM125.679 57.5924C125.59 57.7078 125.498 57.8279 125.394 57.9358C125.407 57.5791 125.456 57.2157 125.481 56.8592C125.496 56.6943 125.503 56.5561 125.516 56.4397C125.591 56.8218 125.64 57.2035 125.679 57.5924ZM163.505 53.5658C162.077 52.7145 160.574 51.9982 158.971 51.4286C158.509 51.2648 158.036 51.1203 157.563 50.9879C157.873 51.0138 158.19 51.0373 158.5 51.0632C159.896 51.5476 161.283 52.175 162.553 52.9101C162.88 53.1231 163.197 53.3433 163.505 53.5658ZM114.93 28.97C111.015 26.8045 106.469 25.9731 101.866 26.3619C101.099 26.4271 100.334 26.5239 99.5687 26.6449C97.8409 26.7946 96.1112 27.0972 94.4157 27.5216C100.683 25.6643 108.034 25.28 113.705 28.2451C114.021 28.4095 114.328 28.5883 114.631 28.7646C114.732 28.8339 114.829 28.9007 114.93 28.97ZM98.5401 31.6875C98.2102 31.6637 97.8777 31.6448 97.5448 31.638C99.0206 31.3928 100.511 31.2594 101.989 31.2617C100.834 31.3291 99.6842 31.4791 98.5401 31.6875ZM124.806 60.5398C124.807 60.5714 124.816 60.6006 124.818 60.6322C124.792 60.644 124.769 60.6631 124.744 60.6749C124.74 60.636 124.738 60.5923 124.742 60.5511C124.762 60.549 124.785 60.542 124.806 60.5398ZM123.503 62.2753C123.538 62.2806 123.573 62.2859 123.614 62.2937C123.617 62.3326 123.614 62.3738 123.613 62.4102C123.577 62.4291 123.546 62.4506 123.512 62.4768C123.512 62.4089 123.504 62.3432 123.503 62.2753ZM162.181 59.5802C161.937 59.3658 161.691 59.1563 161.442 58.9516C161.489 58.9813 161.539 59.0062 161.583 59.0408C162.707 59.7886 163.766 60.6641 164.748 61.6236C164.046 61.0076 163.309 60.4348 162.537 59.9126C162.424 59.8067 162.304 59.691 162.181 59.5802ZM167.179 99.9142C167.17 99.7685 167.061 99.5534 166.926 99.4182C167.733 98.7273 168.502 97.9921 169.219 97.2127C168.593 98.1608 167.918 99.0598 167.179 99.9142ZM132.739 53.3934C133.174 53.1928 133.614 52.9947 134.049 52.7941C134.852 52.4211 135.674 52.1066 136.507 51.8286C134.778 52.5318 133.084 53.3324 131.439 54.2065C131.323 54.2657 131.403 54.558 131.525 54.7732C130.921 55.0857 130.318 55.4055 129.721 55.7399C129.762 55.607 129.809 55.4765 129.873 55.3487C129.95 55.141 130.012 54.9379 130.058 54.7273C130.943 54.2534 131.839 53.8161 132.739 53.3934ZM120.946 45.5445C119.136 41.5231 116.694 37.6463 113.331 34.7235C114.673 35.661 115.902 36.7694 117.001 38.0096C118.037 39.1809 118.954 40.4284 119.774 41.7378C119.655 41.7459 119.562 41.7423 119.535 41.6982C120.066 42.5062 120.555 43.3233 121.022 44.1547C121.366 44.9238 121.691 45.7023 121.996 46.4831C122.988 49.0544 123.923 51.7512 124.334 54.4994C124.325 54.4702 124.316 54.4409 124.309 54.419C124.286 54.3459 124.151 54.3029 123.995 54.2741C123.266 51.2863 122.209 48.35 120.946 45.5445ZM152.624 56.0836C151.532 55.9115 150.439 55.8195 149.345 55.7882C151.369 55.7127 153.401 55.851 155.428 56.2514C156.558 56.6885 157.648 57.2222 158.684 57.8402C156.76 57.0116 154.729 56.4121 152.624 56.0836ZM171.111 72.7219C169.768 69.4882 167.99 66.2585 165.757 63.416C166.524 64.1882 167.252 65.0085 167.928 65.8645C168.558 66.6664 169.172 67.4973 169.758 68.357C170.244 69.259 170.732 70.1562 171.218 71.0582C171.643 72.576 172.065 74.0986 172.489 75.6163C172.542 75.9811 172.571 76.3529 172.586 76.7171C172.554 76.6026 172.522 76.4881 172.482 76.376C172.452 76.2809 172.299 76.1551 172.154 76.0513C171.894 74.9119 171.554 73.7933 171.111 72.7219Z" fill="#FFDDA5"/>
<path d="M61.9989 16.83C61.7674 15.7133 61.3827 14.6277 60.8008 13.618C60.4921 13.0802 60.1439 12.5695 59.7574 12.0887C59.084 10.8778 58.1759 9.78804 57.0766 8.88788C56.7088 8.58737 56.327 8.31207 55.9285 8.05681C55.8683 8.01462 55.8135 7.97 55.7533 7.92781C55.0739 7.46204 54.3389 7.07159 53.5753 6.7443C52.3053 6.19759 50.7699 5.99965 49.4214 5.80592C48.3436 5.67316 47.2616 5.54541 46.1821 5.42282C45.4255 5.40066 44.6712 5.43725 43.9204 5.53518C42.6129 5.67542 41.3358 5.95927 40.1248 6.44623C36.3631 7.74468 33.6194 10.7569 32.1348 14.2734C31.47 15.8522 30.971 17.4667 30.6359 19.1397C30.5717 19.4611 30.5101 19.7813 30.4526 20.1028C30.376 20.0743 30.2993 20.0458 30.2254 20.016C30.1408 19.8967 30.1004 19.8613 29.9425 19.7812C29.6077 19.6767 29.2771 19.5672 28.9466 19.4512C28.5446 19.3171 28.1442 19.1728 27.7479 19.0235C24.3032 17.814 20.4372 16.7622 16.7296 17.36C15.7996 17.5101 14.8844 17.751 14.0156 18.0939C12.6508 18.5429 11.4459 19.2316 10.3688 20.1618C8.99286 21.352 8.04323 22.7598 7.1946 24.3204C6.56901 25.4726 6.07257 26.7745 5.73218 28.0378C5.38147 29.334 5.22919 30.6041 5.47183 31.9328C5.48437 32.0058 5.95513 31.9833 5.95154 31.9692C5.84489 31.1016 5.83684 30.2873 5.9385 29.4206C5.99606 29.099 6.06821 28.7804 6.14415 28.4694C6.04521 29.0172 5.98882 29.571 5.98652 30.1477C5.98502 30.1987 6.02519 30.2405 6.07637 30.271C6.05745 30.4148 6.03852 30.5585 6.02897 30.7012C5.96614 31.519 6.03179 32.2823 6.21233 33.0444C6.21335 33.1005 6.21562 33.1593 6.21664 33.2155C6.25983 34.0612 6.40386 34.8837 6.72902 35.6783C6.84306 35.9323 6.95711 36.1862 7.07116 36.4402C7.1403 36.5413 7.21214 36.6412 7.28669 36.7398C7.33884 36.8737 7.39514 37.0026 7.45956 37.1278C7.47159 37.1727 7.48362 37.2177 7.49691 37.2652C7.6933 37.8974 7.95074 38.4519 8.29442 38.9803C8.47093 39.3352 8.67199 39.6728 8.89635 39.9905C8.89886 39.9957 8.90535 40.0022 8.91058 40.0061C9.14894 40.5283 9.44684 41.0237 9.80575 41.4887C9.91431 41.657 10.0337 41.8205 10.1572 41.9789C10.7544 43.0605 11.6506 43.9637 12.6801 44.7411C14.8109 46.3484 17.4123 47.2633 20.0338 47.8545C22.5068 48.4117 25.0411 48.7432 27.573 48.9343C30.6045 49.1621 33.6312 49.1027 36.6693 49.0193C37.0008 49.009 37.0241 48.5361 36.7514 48.5452C34.0899 48.6294 31.445 48.6936 28.7845 48.5634L26.5993 48.4402C25.2457 48.2833 23.8948 48.1253 22.5399 47.9659C21.5754 47.7948 20.6084 47.5714 19.6564 47.2909C20.2464 47.4382 20.8409 47.5677 21.4332 47.6793C23.3724 48.042 25.32 48.2531 27.2934 48.3614C30.6428 48.5441 33.9824 48.6053 37.3397 48.5202C37.46 48.5165 37.5843 48.0612 37.3423 48.0724L34.5812 48.1824C33.085 48.2878 31.592 48.2847 30.1005 48.1835C32.0747 48.2191 34.0563 48.1821 36.0373 48.1233C36.1737 48.1188 36.239 48.0296 36.2473 47.9316C36.4597 47.9274 36.6737 47.9195 36.8861 47.9153C37.1455 47.9059 37.1875 47.4309 36.8573 47.4438C36.4976 47.4574 36.134 47.4696 35.7731 47.4806C35.7746 47.4768 35.7774 47.4693 35.7789 47.4655C35.9834 47.4586 36.1892 47.4543 36.3965 47.4462C36.6077 47.4395 36.6591 47.2339 36.5875 47.0804C36.8442 47.0722 37.0982 47.0652 37.3536 47.0543C37.6744 47.0424 37.7287 46.606 37.4199 46.6156C36.7461 46.6412 36.0736 46.6631 35.4 46.6823C35.4005 46.6632 35.3984 46.6453 35.3923 46.626C35.6529 46.6191 35.9163 46.611 36.1769 46.6042C36.5057 46.595 36.5568 46.0844 36.2386 46.0951C36.0381 46.1034 35.8362 46.109 35.6371 46.1135C35.7503 45.9871 35.7897 45.7839 35.5731 45.793C32.5557 45.8985 29.5531 45.9597 26.5387 45.7808C25.4758 45.7326 24.4154 45.6423 23.3575 45.51C22.1538 45.3897 20.966 45.1805 19.7996 44.8798C18.3187 44.5568 16.8209 44.1721 15.431 43.5691C14.7022 43.1507 14.0112 42.6681 13.403 42.098C14.2376 42.5099 15.1085 42.8677 16.0066 43.2069C16.0555 43.2259 16.1464 43.2228 16.2308 43.2132C16.9348 43.4792 17.6558 43.7124 18.3802 43.9189C24.0474 45.5307 30.0732 45.484 35.9319 45.3111C36.0388 45.3071 36.4347 45.0162 36.202 45.0262C32.8086 45.159 29.4219 45.2447 26.0316 44.9986C24.7028 44.9061 23.381 44.7602 22.0675 44.5571C20.7305 44.3802 19.4339 44.0562 18.1748 43.5927C15.7534 43.1004 13.6795 41.9613 11.9393 40.1943C12.0282 40.2142 12.1171 40.2341 12.1731 40.2813C12.0176 40.1655 11.8704 40.0397 11.7259 39.9126C11.5969 39.6685 11.4852 39.4261 11.391 39.179C11.5007 39.2619 11.6211 39.3462 11.5658 39.2735C11.4695 39.1438 11.3758 39.0128 11.2809 38.8792C11.0721 38.262 10.9414 37.6223 10.8349 36.9308C10.8046 36.7336 10.689 37.1661 10.6892 37.207C10.6916 37.3946 10.6956 37.5785 10.7022 37.7611C10.6901 37.7634 10.6768 37.7631 10.6687 37.7667C10.6578 37.7716 10.6508 37.7842 10.6412 37.7916C10.5543 36.9781 10.5654 36.1489 10.6198 35.3003C10.6184 35.3041 10.6129 35.3065 10.6115 35.3103C10.4295 35.5933 10.2971 35.7817 10.1947 35.9504C10.2157 35.2363 10.2914 34.5259 10.3757 33.8401C10.3934 33.6937 10.2062 33.7903 10.1726 33.8431C10.167 33.8519 10.1614 33.8607 10.1558 33.8695C10.224 33.279 10.3215 32.6878 10.4431 32.0985C10.4523 32.0566 10.4361 31.8814 10.3672 31.9972C10.2337 32.2239 10.0906 32.458 9.94871 32.6947C9.98324 32.4748 10.0203 32.2599 10.0667 32.044C10.1252 31.8731 10.1876 31.7035 10.2567 31.5341C10.2788 31.4644 10.2351 31.4966 10.1771 31.5604C10.3509 30.8752 10.5712 30.1975 10.8133 29.5037C10.8293 29.4619 10.8331 29.3752 10.8356 29.2923C10.9134 29.1001 10.9924 28.9105 11.0742 28.7197C11.093 28.6703 11.0766 28.5015 11.0079 28.611C10.8036 28.9292 10.6017 29.2526 10.4078 29.5787C10.3476 29.6718 10.2848 29.7661 10.2246 29.8592C10.2017 29.8191 10.1713 29.8108 10.1452 29.8791C10.0978 29.9916 10.0492 30.1015 9.99907 30.2152C9.89119 30.3863 9.78728 30.5588 9.68337 30.7313C9.83621 30.2128 10.0143 29.6987 10.2174 29.1955C10.7387 27.9107 11.439 26.7627 12.2682 25.6355C12.3155 25.5702 12.4054 25.2405 12.3943 25.2517C11.9746 25.6289 11.5888 26.0286 11.2291 26.4543C11.9698 25.2001 12.9429 24.131 14.1494 23.2496C14.2615 23.1615 14.2449 22.911 14.3581 22.8319C13.9245 23.1335 13.5039 23.4481 13.0975 23.7784C12.885 23.9178 12.6793 24.0574 12.4802 24.1971C12.8024 23.8228 13.1467 23.4669 13.5225 23.1347C13.6187 23.0411 13.5231 22.7506 13.6 22.6783C12.9386 23.2772 12.2906 23.8764 11.7282 24.563C12.2078 23.8758 12.7544 23.2309 13.3714 22.6425C14.4873 22.1636 15.6019 21.6822 16.7178 21.2033C17.5886 21.02 18.4786 20.9571 19.3667 20.958C22.1406 20.9554 24.8572 21.6738 27.4214 22.6274C28.3884 22.9861 29.4683 23.3665 30.3182 23.9382C30.5357 24.0796 30.7464 24.2273 30.9514 24.3837C30.9621 24.3853 30.9686 24.3918 30.9778 24.3971C30.9815 24.4521 30.9852 24.507 30.9823 24.5618C31.0409 24.655 31.1258 24.7207 31.2354 24.7628C31.2787 24.7905 31.3227 24.7928 31.3671 24.7823C31.3791 24.8272 31.3911 24.8722 31.3896 24.9232C31.3955 24.9488 31.4002 24.9719 31.4076 24.9938C30.9732 24.7798 30.5288 24.586 30.0745 24.4125C29.9768 24.3745 29.6919 24.6157 29.6432 24.5903C30.3913 24.9466 31.3472 25.2757 31.9016 25.9045C31.8712 26.1667 31.8753 26.1617 32.0721 26.4635C32.1104 26.5217 32.1726 26.541 32.2516 26.5339C32.2801 26.5651 32.3058 26.5976 32.3356 26.6315C32.2863 26.8077 32.3068 26.8835 32.4299 27.1019C32.5201 27.2596 32.7881 27.2274 33.0461 27.1273C33.0412 27.205 33.0402 27.2841 33.0379 27.3606C32.9928 27.3966 32.9464 27.43 32.904 27.4648C32.8527 27.5287 32.8412 27.5999 32.8657 27.677C32.8856 27.7247 32.9069 27.7749 32.9268 27.8226C32.9693 27.9231 33.1066 27.9747 33.2771 27.9925C33.2737 28.1073 33.2557 28.2192 33.2097 28.3279C33.2846 28.3258 33.3595 28.3236 33.4316 28.3227C33.4252 28.357 33.4243 28.3889 33.4217 28.4309C33.532 28.4947 33.6294 28.5454 33.7269 28.5897C33.7194 28.7095 33.6961 28.8174 33.6497 28.898C33.6603 28.8995 33.671 28.901 33.6803 28.9C33.6632 28.9391 33.6604 28.9876 33.6813 29.0506C33.7326 29.21 34.1263 29.4013 34.3406 29.4278C34.3064 29.6351 34.2789 29.8424 34.2569 30.0474C34.2257 30.3351 34.5742 30.4272 34.8039 30.5191C34.953 30.5812 35.1583 30.684 35.3309 30.6726C35.313 30.6901 35.3559 30.6834 35.4637 30.6539C35.483 30.6327 35.501 30.6088 35.5204 30.5876C35.5272 30.5813 35.5353 30.5777 35.5409 30.5689C35.5382 30.5701 35.5355 30.5713 35.5328 30.5725C35.5661 30.5325 35.6033 30.4937 35.6338 30.4549C35.6497 30.4131 35.6593 30.3585 35.6664 30.2986C35.7795 30.314 35.8866 30.3036 35.939 30.2486C36.1346 30.0476 36.1287 29.8395 36.1299 29.5715C36.1435 28.477 36.1752 27.3994 36.2782 26.3056C36.2825 26.2534 36.2093 26.1981 36.1615 26.2353C36.1178 26.2675 36.0843 26.314 36.0574 26.367C36.0759 26.0127 36.0931 25.6557 36.1222 25.3029C36.1278 25.2469 36.1172 25.2454 36.1076 25.3001C36.0444 25.6304 35.9867 25.9583 35.9302 26.2888C36.0078 25.4675 36.1173 24.6508 36.235 23.8304C36.2552 23.6892 36.0774 23.7847 36.0465 23.8363C35.9198 24.0568 35.823 24.2166 35.7413 24.3603C35.894 23.348 36.0932 22.3431 36.3416 21.3444C36.3554 21.2848 36.2882 21.2552 36.2558 21.3106C36.1368 21.4993 36.0191 21.6843 35.9027 21.8718C36.0775 21.1075 36.2748 20.3489 36.5132 19.6001C36.5161 19.5925 36.5734 19.2365 36.4751 19.4002C36.3108 19.6721 36.1492 19.9428 35.9916 20.2149C36.0635 19.997 36.1393 19.7805 36.2191 19.5654C36.2656 19.4376 36.0965 19.5103 36.0631 19.5568C36.0436 19.5844 36.0241 19.6121 36.0033 19.6371C36.2231 18.9313 36.4748 18.23 36.7703 17.5374C36.7761 17.5222 36.781 17.4917 36.7861 17.4548C36.806 17.4144 36.8247 17.3715 36.8433 17.3285C36.9174 17.1694 36.8268 16.9364 36.6723 17.1473C36.6389 17.1937 36.6067 17.2428 36.5733 17.2892C36.6495 17.1072 36.7256 16.9252 36.8084 16.7433C36.8683 16.6158 36.7372 16.3946 36.798 16.2824C36.3913 17.0312 35.9746 17.8002 35.6096 18.587C35.6648 18.4364 35.7187 18.2832 35.7778 18.1339C36.4162 16.5481 37.2713 15.1765 38.3961 13.8505C38.4653 13.7691 38.5611 13.465 38.579 13.4476C38.1032 13.8656 37.6542 14.2842 37.2365 14.7266C37.256 14.6989 37.2715 14.6699 37.291 14.6423C38.1505 13.3945 38.949 12.5831 40.2276 11.6128C40.3191 11.5434 40.3934 11.2426 40.4288 11.2204C39.82 11.6227 39.2321 12.0408 38.6739 12.4927C38.5417 12.5803 38.4123 12.6667 38.2842 12.7557C38.6959 12.2877 39.1443 11.8474 39.6355 11.4476C40.8931 10.4206 42.3404 9.70801 43.8774 9.2603C44.1646 9.21318 44.4502 9.17623 44.7368 9.14824C46.3774 8.99381 48.0361 9.03885 49.666 9.28869C51.9208 9.63556 54.1685 10.2247 55.9107 11.7863C56.5028 12.3165 57.013 12.9022 57.4538 13.5349C57.6102 13.8013 57.7464 14.0736 57.8772 14.3483C57.8181 14.3151 57.7694 14.2897 57.7642 14.2858C57.848 14.3898 57.9209 14.4986 57.9978 14.6088C58.149 14.9593 58.2813 15.3183 58.3922 15.6807C58.4642 16.2272 58.5054 16.7781 58.5106 17.3294C58.5235 18.7487 58.2787 20.1201 57.9828 21.5081C58.0076 21.39 58.1658 21.2341 58.2186 21.1191C58.3925 20.7453 58.5573 20.3662 58.7089 19.9805C58.6815 20.2287 58.6448 20.4779 58.6081 20.7272C58.4657 21.3888 58.2914 22.0459 58.0946 22.6974C58.0552 22.7654 58.0212 22.831 57.9818 22.899C57.9725 22.9881 57.9593 23.0759 57.9512 23.1676C57.8218 23.5717 57.6896 23.9771 57.5496 24.3797C57.5248 24.4506 57.6329 24.4964 57.6876 24.5002C57.5538 24.9157 57.4161 25.3299 57.2718 25.7375C57.2251 25.8718 57.3025 25.922 57.3775 25.7782C57.4044 25.7252 57.4326 25.6748 57.4595 25.6218C57.1167 26.7855 56.6314 27.8937 55.9927 28.9448C55.4913 29.8714 54.9425 30.7752 54.3517 31.6539C54.3152 31.7143 54.272 31.7746 54.358 31.8021C54.4294 31.8266 54.5682 31.6039 54.596 31.5662C54.8921 31.1722 55.1925 30.7668 55.4943 30.3576C54.9845 31.2534 54.4444 32.1345 53.8887 32.9974C53.8692 33.025 53.852 33.0642 53.8361 33.1059C51.5669 36.3738 48.9097 39.3943 46.13 42.3125C46.0432 42.405 45.9246 42.6218 45.871 42.6742C49.1119 39.4231 52.2703 36.0706 54.993 32.4136C51.8444 37.3818 47.7469 41.7377 43.4796 45.8742C42.9366 46.3979 42.3897 46.9203 41.8415 47.44C41.8263 47.4563 41.8139 47.4713 41.8002 47.4838C41.6201 47.6558 41.4401 47.8279 41.2615 47.9961C41.0568 48.1918 41.2466 48.547 41.4693 48.3338C41.6204 48.1905 41.7715 48.0472 41.9214 47.9012C42.007 47.9414 42.1053 47.9602 42.1631 47.9029C43.2389 46.882 44.308 45.861 45.3694 44.8309C44.0317 46.1738 42.6614 47.4904 41.2848 48.7942C40.9935 49.0696 41.5692 49.3837 41.7808 49.1818C41.9457 49.026 42.1105 48.8702 42.2741 48.7118C42.2999 48.7443 42.3298 48.7718 42.3637 48.8006C42.251 48.9078 42.1398 49.0112 42.0271 49.1184C41.887 49.2505 41.9619 49.3836 42.1111 49.4865C41.9477 49.6385 41.7882 49.7919 41.6248 49.9439C41.5259 50.0386 41.5501 50.1221 41.6363 50.1904C41.433 50.3824 41.2296 50.5743 41.029 50.765C40.9411 50.8485 41.0114 51.3171 41.1405 51.1963C41.4455 50.9084 41.7478 50.6217 42.05 50.335C42.054 50.3364 42.058 50.3378 42.0607 50.3365C41.922 50.4648 41.7846 50.5957 41.6472 50.7266C41.4137 50.9447 41.6154 51.0807 41.8758 51.1274C41.6903 51.3018 41.5076 51.4751 41.3222 51.6495C41.2425 51.723 41.3238 51.9571 41.4065 52.0049C41.5168 52.0687 41.7274 51.993 41.8097 51.9183C42.0157 51.7252 42.2232 51.5282 42.4292 51.3351C42.4438 51.3379 42.4584 51.3408 42.4718 51.3411C42.2836 51.5168 42.0982 51.6913 41.9101 51.867C41.781 51.9878 41.8595 52.1759 42.02 52.214C42.0611 52.2238 42.1145 52.225 42.1748 52.22C42.0457 52.3409 41.9166 52.4618 41.7875 52.5826C41.6625 52.6985 41.8308 52.8809 41.9433 52.9154C42.1127 52.9651 42.4351 52.7669 42.568 52.6538C42.6733 52.66 42.8133 52.6223 42.9593 52.5631C42.7148 52.7924 42.473 53.0205 42.2286 53.2497C42.1063 53.3644 41.986 53.5505 42.2032 53.6575C42.3203 53.715 42.4936 53.6373 42.6434 53.5385C42.661 53.5747 42.6962 53.6061 42.7582 53.6317C42.8083 53.6533 42.874 53.6458 42.9414 53.6218C42.9277 53.6343 42.9167 53.6455 42.903 53.658C42.7849 53.7676 42.3973 54.0485 42.5931 54.2469C42.7603 54.4204 43.0346 54.1777 43.1801 54.0432C43.1681 54.0863 43.167 54.1246 43.178 54.1606C43.2808 54.4321 43.5456 54.2377 43.6843 54.1094C47.7515 50.327 51.6798 46.4559 55.1129 42.1245C57.1254 39.5884 58.9854 36.9289 60.4875 34.084C59.9432 35.4231 59.2619 36.6978 58.441 37.9094C56.9776 40.1644 55.3603 42.2934 53.6308 44.3344C53.5298 44.4521 53.4288 44.5698 53.3279 44.6875C53.2228 44.8101 53.1177 44.9328 53.0113 45.0529C50.3489 48.0695 47.4612 50.8883 44.4977 53.6531C44.4038 53.7582 44.3218 53.8673 44.2423 53.9816C44.1874 54.0315 44.1338 54.0838 44.0789 54.1336C43.8427 54.3529 43.419 54.864 43.3921 55.1875C43.376 55.3709 43.5213 55.5605 43.7163 55.3786C45.6895 53.546 47.6473 51.6888 49.5284 49.7622C52.4907 46.7651 55.2826 43.615 57.6636 40.1773C59.5341 37.4785 61.2124 34.6835 62.4473 31.6628C63.7543 28.4587 64.7241 24.78 63.8442 21.3748C63.8109 20.9211 63.7587 20.4694 63.677 20.0248C63.4659 18.8958 62.9486 17.8697 62.3266 16.9063C62.2729 16.8234 62.116 16.7995 61.9989 16.83ZM36.0888 14.6063C36.0281 14.6712 35.9702 14.735 35.9107 14.8026C36.1247 14.4297 36.3558 14.0648 36.6066 13.7132C36.4371 13.9812 36.2768 14.2545 36.1284 14.5319C36.113 14.5545 36.1029 14.581 36.0888 14.6063ZM13.4352 21.7456C13.0155 22.0284 12.6259 22.3322 12.2546 22.6531C12.1264 22.7421 11.9995 22.8336 11.8751 22.9304C12.4225 22.3481 13.0295 21.8271 13.6997 21.3815C14.3694 21.0431 15.0798 20.7746 15.8121 20.578C15.8067 20.5804 15.7985 20.5841 15.7931 20.5865C14.9687 20.8716 14.1778 21.2455 13.4352 21.7456ZM34.0105 12.5317C34.2378 12.2944 34.4639 12.0545 34.694 11.816C34.4954 12.119 34.3087 12.4262 34.1339 12.7374C33.9327 13.0417 33.7445 13.3526 33.5642 13.6727L34.0105 12.5317ZM51.8072 8.5509C51.0586 8.349 50.291 8.20282 49.5223 8.09489L49.9447 8.08144C50.114 8.09036 50.2859 8.10444 50.4578 8.11853C51.0853 8.21434 51.691 8.32625 52.2782 8.47475C52.4739 8.54424 52.6682 8.61114 52.8568 8.69323C52.9036 8.73512 52.9532 8.7758 52.9987 8.8151C52.6037 8.7156 52.207 8.62627 51.8072 8.5509ZM37.8742 11.3479C37.7105 11.4654 37.5506 11.5907 37.3933 11.7148C37.8127 11.2623 38.2673 10.8348 38.7609 10.4466C39.1546 10.1377 39.562 9.86359 39.9793 9.6165C40.1042 9.54786 40.2318 9.478 40.3567 9.40936C40.4272 9.37139 40.4951 9.33464 40.5656 9.29667C40.9328 9.1633 41.3027 9.02872 41.6699 8.89536C41.9207 8.81424 42.1738 8.74466 42.428 8.68403C42.2009 8.77972 41.9762 8.88057 41.7538 8.99295C41.6562 9.04307 41.5598 9.09577 41.4622 9.14589C40.1507 9.69055 38.9375 10.4365 37.8742 11.3479ZM50.0893 7.47857C49.6666 7.41035 49.2423 7.35229 48.8191 7.30319C48.939 7.31228 49.0604 7.31757 49.1816 7.32923C49.2708 7.33635 49.3547 7.34589 49.444 7.35301C49.6578 7.39228 49.8729 7.43414 50.0893 7.47857ZM29.1754 20.9341C29.1622 20.9274 29.1491 20.9207 29.1332 20.9153C29.0171 20.8667 28.8968 20.8232 28.782 20.7772C28.8785 20.8125 28.9776 20.8467 29.0714 20.8832C29.1651 20.9198 29.2574 20.9602 29.3524 20.9993C29.2956 20.9776 29.2349 20.9546 29.1754 20.9341ZM31.1721 23.3755C31.1835 23.3988 31.1921 23.4232 31.2007 23.4476C31.1809 23.4408 31.1625 23.4302 31.1427 23.4234L31.1454 23.4221C31.1566 23.4045 31.1624 23.3893 31.1721 23.3755ZM45.3383 6.22941C45.8275 6.21747 46.3166 6.20552 46.8058 6.19358C47.237 6.1982 47.6704 6.22073 48.1036 6.24963C48.3176 6.28253 48.5369 6.31937 48.7547 6.36001C49.3552 6.46798 49.9434 6.58459 50.5227 6.73036C49.3427 6.53022 48.1358 6.4239 46.9704 6.40912C46.1894 6.39789 45.4122 6.44163 44.6495 6.53545C44.8796 6.43217 45.111 6.33147 45.3383 6.22941ZM18.3434 18.023C18.6991 18.008 19.0575 17.9918 19.4144 17.9795C19.5654 17.9778 19.7134 17.9837 19.8656 17.9845C20.8168 18.0672 21.7583 18.2046 22.6961 18.375C23.5862 18.5354 24.4327 18.7689 25.2963 19.0104C23.0344 18.4056 20.6559 18.0419 18.3148 18.2686C17.3759 18.3597 16.4769 18.5462 15.6152 18.8292C15.5237 18.8514 15.4283 18.8722 15.3354 18.8982C16.2568 18.3587 17.2577 18.0636 18.3434 18.023ZM21.1446 19.8139C21.2301 19.8133 21.3156 19.8126 21.4023 19.8146C21.8081 19.8212 22.2106 19.8481 22.613 19.8814C23.0784 19.9494 23.5447 20.0326 24.004 20.1284C24.236 20.1847 24.4681 20.241 24.696 20.3023C25.7892 20.5949 26.8648 20.9394 27.9216 21.3333C27.5814 21.2312 27.2397 21.1329 26.8951 21.0422C26.3472 20.8729 25.7991 20.71 25.2409 20.5736C24.4481 20.3758 23.6302 20.2144 22.7989 20.1C22.2561 19.9819 21.7007 19.8851 21.1446 19.8139ZM30.7369 23.0518C30.7589 23.1238 30.782 23.1983 30.7958 23.2739C30.643 23.1569 30.4987 23.0235 30.3501 22.9014C30.2823 22.8438 30.2236 22.7978 30.1767 22.7559C30.3691 22.8457 30.5531 22.9456 30.7369 23.0518ZM41.2059 6.60585C40.3688 6.91238 39.567 7.29116 38.7974 7.75617C38.5758 7.89026 38.3592 8.03468 38.1478 8.18304C38.2594 8.06688 38.3725 7.94693 38.484 7.83077C39.1492 7.42211 39.8743 7.06202 40.609 6.78253C40.8086 6.71813 41.0079 6.66009 41.2059 6.60585ZM14.6571 18.3941C12.4366 19.2871 10.5996 20.851 9.28078 22.8208C9.06144 23.1489 8.85651 23.4863 8.66204 23.8316C8.16878 24.5721 7.7422 25.3613 7.38034 26.1749C8.59079 23.0771 10.8007 20.0057 13.9415 18.6588C14.116 18.5836 14.2943 18.5161 14.4698 18.4499C14.5332 18.4309 14.5938 18.4131 14.6571 18.3941ZM10.5491 25.8252C10.4319 25.9502 10.316 26.0777 10.2053 26.2092C10.5749 25.5399 10.9984 24.9 11.478 24.3072C11.1338 24.792 10.8277 25.3006 10.5491 25.8252ZM31.7518 24.3265C31.7662 24.3358 31.782 24.3412 31.7965 24.3505C31.7934 24.3644 31.7943 24.3798 31.7912 24.3937C31.7728 24.3831 31.7532 24.3699 31.7362 24.3555C31.7418 24.3467 31.7462 24.3353 31.7518 24.3265ZM32.0943 25.3933C32.108 25.3809 32.1217 25.3684 32.1381 25.3548C32.1565 25.3654 32.1735 25.3798 32.1891 25.3917C32.1859 25.412 32.1853 25.4311 32.186 25.4528C32.1559 25.4317 32.1244 25.4144 32.0943 25.3933ZM43.425 9.02297C43.2518 9.05352 43.0799 9.08664 42.9093 9.12236C42.9376 9.11279 42.9647 9.10064 42.9942 9.09365C43.6871 8.87702 44.4154 8.72627 45.1553 8.63321C44.6572 8.72151 44.1663 8.83806 43.6866 8.9842C43.6034 8.99636 43.5136 9.00837 43.425 9.02297ZM62.7996 19.6605C62.7328 19.6182 62.6026 19.5948 62.4994 19.6065C62.4566 19.0658 62.3816 18.5269 62.2704 17.9948C62.4853 18.5432 62.6627 19.0959 62.7996 19.6605ZM31.1731 18.9017C31.2255 18.6642 31.2806 18.4256 31.333 18.1881C31.4288 17.7488 31.5562 17.3204 31.7035 16.8987C31.4536 17.8131 31.2579 18.7441 31.1101 19.6787C31.0989 19.7435 31.2534 19.8031 31.3877 19.8215C31.3296 20.1621 31.2754 20.5042 31.2292 20.8489C31.1842 20.7905 31.1419 20.7309 31.1064 20.665C31.0398 20.569 30.9703 20.4807 30.8927 20.396C30.9703 19.8924 31.0677 19.3957 31.1731 18.9017ZM23.901 21.175C21.5449 20.6409 19.0477 20.4059 16.6724 20.8398C17.5197 20.5948 18.4054 20.4489 19.3071 20.3965C20.1579 20.348 21.004 20.3709 21.8456 20.4524C21.8107 20.5027 21.7789 20.5389 21.751 20.5358C22.2787 20.5757 22.7964 20.6359 23.3138 20.7088C23.7635 20.8121 24.2115 20.9256 24.654 21.0478C26.107 21.4557 27.597 21.9257 28.94 22.6221C28.9241 22.6166 28.9083 22.6112 28.8964 22.6071C28.8567 22.5934 28.7941 22.6341 28.7311 22.6876C27.1795 22.0439 25.5447 21.5477 23.901 21.175ZM38.7929 11.7629C38.3635 12.1475 37.9695 12.5572 37.6016 12.9866C38.2232 12.1507 38.9418 11.3783 39.774 10.6901C40.3322 10.3735 40.9198 10.1035 41.5274 9.88109C40.54 10.3935 39.6187 11.021 38.7929 11.7629ZM52.1008 9.55795C50.2424 9.08348 48.2452 8.78452 46.2712 8.7898C46.8594 8.72394 47.4561 8.6889 48.0518 8.68574C48.6088 8.68426 49.1733 8.69825 49.7412 8.73275C50.2955 8.82053 50.8486 8.90573 51.4029 8.99351C52.2086 9.29879 53.0155 9.60664 53.8211 9.91191C53.9987 10.0052 54.1719 10.11 54.337 10.2183C54.2762 10.1952 54.2155 10.1722 54.1533 10.1529C54.1017 10.1352 53.9969 10.157 53.904 10.183C53.3185 9.92993 52.7158 9.71601 52.1008 9.55795Z" fill="#FFDDA5"/>
</svg>
