<svg width="244" height="247" viewBox="0 0 244 247" fill="none" xmlns="http://www.w3.org/2000/svg">
<path d="M290.122 161.426C292.778 158.42 295.095 155.106 296.876 151.475C297.827 149.544 298.638 147.575 299.304 145.578C301.48 141.283 302.936 136.677 303.558 132.017C303.764 130.459 303.878 128.922 303.91 127.388C303.924 127.148 303.955 126.916 303.969 126.677C304.107 123.994 303.946 121.34 303.566 118.754C302.941 114.447 300.923 110.252 299.206 106.523C297.773 103.592 296.319 100.661 294.855 97.7473C293.656 95.8446 292.3 94.0757 290.784 92.4495C288.224 89.551 285.325 87.0408 281.982 85.1363C272.182 78.7525 259.41 78.6062 247.361 82.6477C241.953 84.4663 236.726 86.7692 231.611 89.6017C230.629 90.1462 229.654 90.6947 228.683 91.2559C228.633 91.0058 228.583 90.7557 228.541 90.5096C228.725 90.0417 228.754 89.8655 228.709 89.3035C228.436 88.2547 228.184 87.205 227.95 86.1419C227.646 84.8636 227.372 83.5672 227.119 82.2699C224.677 71.1856 221.105 59.4131 213.303 51.6316C211.346 49.68 209.166 47.9631 206.786 46.5823C203.29 44.218 199.408 42.769 195.081 42.1606C189.549 41.3877 184.133 42.1347 178.47 43.4632C174.29 44.4463 169.918 46.0728 165.91 47.9975C161.796 49.9689 158.083 52.3695 154.868 55.8661C154.69 56.0563 155.536 57.1608 155.568 57.1212C157.753 54.965 159.958 53.1669 162.488 51.5232C163.459 50.962 164.447 50.4429 165.421 49.95C163.764 50.9037 162.162 51.9751 160.587 53.229C160.446 53.3367 160.399 53.5263 160.401 53.7184C159.978 53.986 159.555 54.2536 159.15 54.5418C156.818 56.1739 154.849 58.0018 153.074 60.1086C152.923 60.2338 152.766 60.3677 152.615 60.4928C150.383 62.4457 148.383 64.595 146.76 67.1274C146.258 67.9616 145.757 68.7957 145.255 69.6299C145.095 70.0201 144.942 70.4143 144.798 70.8125C144.52 71.2328 144.263 71.6522 144.029 72.0836C143.927 72.2112 143.824 72.3388 143.717 72.4752C142.322 74.3373 141.24 76.1793 140.373 78.1756C139.701 79.3833 139.116 80.6134 138.624 81.8571C138.614 81.8745 138.608 81.9047 138.605 81.9261C137.58 83.6507 136.727 85.4629 136.058 87.358C135.78 87.9917 135.534 88.6413 135.308 89.2902C133.357 93.1158 132.389 97.285 131.986 101.506C131.156 110.239 132.995 118.613 135.75 126.329C138.35 133.607 141.667 140.543 145.362 147.165C149.79 155.093 154.991 162.382 160.277 169.646C160.857 170.435 162.184 169.46 161.705 168.811C157.044 162.472 152.465 156.13 148.39 149.325L145.087 143.7C143.26 140.04 141.441 136.384 139.62 132.715C138.48 129.977 137.478 127.119 136.657 124.173C137.238 125.941 137.875 127.681 138.557 129.376C140.798 134.921 143.466 140.156 146.457 145.229C151.537 153.837 156.93 162.156 162.752 170.199C162.963 170.486 164.41 169.796 163.976 169.227L159.079 162.7C156.301 159.263 153.823 155.597 151.616 151.721C154.806 156.637 158.206 161.413 161.665 166.14C161.904 166.464 162.256 166.43 162.537 166.236C162.902 166.747 163.279 167.254 163.644 167.766C164.102 168.381 165.466 167.447 164.881 166.666C164.245 165.814 163.606 164.949 162.975 164.089C162.988 164.084 163.013 164.074 163.026 164.07C163.385 164.556 163.74 165.051 164.107 165.541C164.477 166.044 165.122 165.721 165.421 165.211C165.871 165.822 166.313 166.429 166.768 167.031C167.334 167.792 168.614 166.971 168.073 166.236C166.881 164.64 165.702 163.04 164.528 161.431C164.581 161.39 164.626 161.346 164.669 161.289C165.121 161.913 165.582 162.54 166.035 163.164C166.607 163.95 168.083 162.96 167.524 162.204C167.167 161.73 166.816 161.248 166.472 160.769C167.005 160.771 167.624 160.424 167.239 159.913C161.927 152.748 156.761 145.522 152.229 137.743C150.591 135.033 149.071 132.237 147.67 129.355C145.993 126.142 144.585 122.774 143.462 119.258C141.876 114.923 140.43 110.412 139.758 105.689C139.684 102.989 139.848 100.241 140.388 97.5055C140.656 100.45 141.132 103.366 141.703 106.309C141.733 106.47 141.892 106.686 142.059 106.872C142.507 109.178 143.072 111.455 143.716 113.681C148.762 131.091 158.923 145.758 169.148 159.74C169.337 159.993 170.789 160.328 170.374 159.78C164.362 151.752 158.49 143.639 153.515 134.792C151.555 131.333 149.751 127.775 148.117 124.112C146.373 120.449 145.097 116.563 144.263 112.465C141.571 105.455 141.221 97.8846 143.136 89.7604C143.23 90.0217 143.324 90.2829 143.288 90.5234C143.345 89.8893 143.442 89.2537 143.548 88.6221C143.998 87.7728 144.472 86.9696 144.988 86.1989C144.945 86.6489 144.916 87.1282 145.022 86.8339C145.215 86.3144 145.416 85.7988 145.622 85.2745C146.955 83.4147 148.479 81.6972 150.185 79.926C150.672 79.4212 149.302 80.0825 149.191 80.1721C148.684 80.5879 148.19 80.9991 147.703 81.4142C147.677 81.3896 147.655 81.3562 147.632 81.3442C147.601 81.3283 147.555 81.3386 147.519 81.3314C149.59 79.3417 151.866 77.5579 154.268 75.8379C154.256 75.8426 154.24 75.8346 154.227 75.8394C153.153 76.0115 152.42 76.0985 151.79 76.2157C153.77 74.7077 155.83 73.3418 157.839 72.0505C158.267 71.7742 157.692 71.5265 157.492 71.5595C157.459 71.565 157.426 71.5705 157.392 71.576C159.114 70.4533 160.887 69.4013 162.694 68.412C162.824 68.3432 163.274 67.9209 162.844 68.0051C162.004 68.1728 161.128 68.3334 160.247 68.5026C160.904 68.1068 161.551 67.7285 162.216 67.3708C162.779 67.1407 163.345 66.9233 163.921 66.7226C164.148 66.6246 163.987 66.5878 163.717 66.585C165.873 65.5146 168.085 64.5744 170.378 63.6525C170.518 63.6004 170.761 63.4206 170.991 63.2456C171.644 63.0164 172.292 62.796 172.948 62.5796C173.113 62.5179 173.546 62.1091 173.133 62.1798C171.926 62.374 170.71 62.5856 169.498 62.8226C169.145 62.8784 168.783 62.9302 168.43 62.986C168.501 62.8424 168.473 62.7495 168.243 62.8349C167.858 62.9644 167.478 63.0853 167.084 63.2108C166.439 63.3202 165.796 63.4422 165.153 63.5642C166.82 62.8065 168.516 62.1202 170.225 61.5189C174.592 59.9908 178.885 59.1999 183.336 58.7704C183.592 58.7438 184.64 58.2439 184.591 58.2414C182.865 58.0363 181.134 57.9637 179.376 58.0118C184.025 57.0881 188.557 57.1381 192.967 58.1704C193.393 58.2528 194.048 57.665 194.451 57.7696C192.908 57.3655 191.351 57.0218 189.775 56.7471C189.041 56.5309 188.319 56.3313 187.607 56.1485C189.162 56.1207 190.705 56.1875 192.236 56.3827C192.651 56.4143 193.283 55.5455 193.608 55.5761C190.875 55.2631 188.164 54.9834 185.358 55.1044C188.028 54.7792 190.695 54.7104 193.324 54.9376C196.487 56.6267 199.654 58.3071 202.816 59.9963C204.765 61.7303 206.419 63.7742 207.895 65.9528C212.521 72.7459 215.087 80.9732 216.759 89.3403C217.393 92.4938 218.155 95.9712 218.013 99.3028C217.99 100.145 217.938 100.984 217.854 101.828C217.867 101.857 217.86 101.888 217.861 101.922C217.718 102.051 217.574 102.18 217.42 102.292C217.264 102.64 217.226 102.991 217.294 103.352C217.291 103.518 217.358 103.631 217.46 103.717C217.358 103.845 217.255 103.972 217.114 104.08C217.054 104.151 216.999 104.212 216.952 104.278C216.811 102.746 216.599 101.234 216.315 99.7415C216.256 99.4191 215.125 99.2475 215.113 99.0729C215.388 101.684 216.083 104.746 215.294 107.478C214.529 107.976 214.549 107.975 214.055 109.117C213.96 109.338 214.011 109.533 214.162 109.711C214.125 109.849 214.079 109.983 214.036 110.129C213.474 110.394 213.302 110.609 212.912 111.388C212.633 111.953 213.167 112.54 213.869 112.954C213.649 113.111 213.432 113.282 213.22 113.443C213.047 113.411 212.879 113.371 212.713 113.342C212.454 113.356 212.241 113.484 212.071 113.712C211.975 113.865 211.873 114.027 211.777 114.18C211.574 114.503 211.662 114.953 211.897 115.41C211.579 115.652 211.244 115.852 210.871 115.977C211.002 116.156 211.132 116.335 211.255 116.509C211.151 116.569 211.063 116.636 210.944 116.722C210.954 117.131 210.978 117.48 211.02 117.816C210.681 118.059 210.348 118.238 210.051 118.3C210.065 118.33 210.078 118.359 210.097 118.38C209.962 118.423 209.825 118.522 209.688 118.711C209.34 119.185 209.474 120.568 209.759 121.151C209.137 121.52 208.527 121.905 207.932 122.299C207.096 122.851 207.426 123.906 207.558 124.67C207.637 125.171 207.699 125.898 208.017 126.297C207.94 126.291 208.03 126.381 208.289 126.581C208.379 126.582 208.474 126.574 208.564 126.575C208.593 126.578 208.616 126.59 208.649 126.585C208.642 126.581 208.634 126.577 208.626 126.573C208.791 126.567 208.958 126.573 209.115 126.563C209.255 126.511 209.42 126.415 209.594 126.302C209.741 126.613 209.948 126.853 210.185 126.861C211.058 126.901 211.615 126.432 212.347 125.85C215.35 123.493 218.338 121.217 221.489 119.081C221.638 118.977 221.666 118.677 221.486 118.641C221.325 118.605 221.143 118.624 220.954 118.674C221.95 117.945 222.95 117.208 223.96 116.509C224.122 116.4 224.108 116.371 223.943 116.467C222.938 117.033 221.949 117.608 220.955 118.191C223.321 116.588 225.728 115.073 228.158 113.569C228.576 113.31 228.02 113.083 227.828 113.12C227.017 113.291 226.42 113.403 225.893 113.516C228.904 111.68 231.973 109.973 235.106 108.401C235.292 108.305 235.26 108.075 235.056 108.117C234.343 108.237 233.644 108.353 232.939 108.477C235.312 107.237 237.707 106.063 240.143 105.012C240.168 105.003 241.233 104.366 240.624 104.482C239.61 104.673 238.603 104.869 237.6 105.077C238.313 104.777 239.029 104.49 239.748 104.216C240.173 104.05 239.694 103.795 239.512 103.815C239.404 103.827 239.296 103.84 239.193 103.843C241.482 102.841 243.811 101.926 246.189 101.138C246.24 101.119 246.331 101.064 246.44 100.996C246.583 100.956 246.731 100.908 246.879 100.86C247.436 100.694 247.92 99.9633 247.088 100.045C246.906 100.065 246.719 100.093 246.537 100.113C247.159 99.9018 247.782 99.6909 248.415 99.4966C248.862 99.3648 249.247 98.5606 249.653 98.4644C246.937 99.103 244.148 99.7614 241.398 100.585C241.9 100.391 242.407 100.189 242.912 100.008C248.294 98.1091 253.453 97.2092 258.938 97.0702C259.275 97.062 260.262 96.6326 260.34 96.6383C258.409 96.3853 256.521 96.199 254.621 96.1412C254.729 96.1287 254.833 96.1035 254.941 96.0909C259.771 95.4723 263.31 95.6572 268.082 96.6719C268.423 96.7447 269.366 96.2699 269.486 96.3082C267.376 95.6946 265.259 95.1666 263.098 94.7854C262.64 94.653 262.189 94.5245 261.733 94.4047C263.693 94.3919 265.639 94.5291 267.546 94.8599C272.437 95.6993 276.788 97.6904 280.566 100.48C281.173 101.081 281.749 101.7 282.302 102.341C285.455 106.025 288.094 110.189 290.127 114.729C292.937 121.013 295.075 127.809 293.722 135.489C293.264 138.098 292.518 140.628 291.529 143.09C291.064 144.055 290.549 144.984 290.019 145.904C290.011 145.687 289.999 145.512 290.001 145.491C289.857 145.923 289.682 146.34 289.51 146.769C288.807 147.905 288.05 149.013 287.247 150.076C285.879 151.446 284.447 152.751 282.954 153.967C279.11 157.099 274.967 159.494 270.694 161.8C271.057 161.603 271.745 161.65 272.146 161.528C273.454 161.138 274.761 160.714 276.064 160.243C275.342 160.718 274.602 161.173 273.862 161.627C271.823 162.723 269.743 163.731 267.641 164.671C267.39 164.723 267.155 164.783 266.904 164.835C266.646 165.007 266.385 165.166 266.122 165.347C264.806 165.912 263.482 166.474 262.152 167.01C261.917 167.104 261.973 167.469 262.053 167.611C260.699 168.191 259.341 168.758 257.991 169.294C257.548 169.473 257.54 169.772 258.056 169.642C258.245 169.592 258.43 169.551 258.619 169.502C254.879 171.203 251.052 172.434 247.126 173.164C243.767 173.959 240.392 174.587 237.015 175.058C236.79 175.101 236.554 175.127 236.622 175.397C236.674 175.626 237.512 175.48 237.661 175.466C239.227 175.331 240.831 175.182 242.448 175.028C239.159 175.735 235.86 176.335 232.585 176.858C232.477 176.87 232.342 176.914 232.202 176.966C219.523 178.541 206.872 178.625 194.296 178.186C193.899 178.175 193.111 178.358 192.879 178.341C207.13 179.184 221.52 179.603 236.014 178.289C217.24 181.423 198.553 180.893 180.182 179.468C177.852 179.281 175.518 179.082 173.19 178.873C173.12 178.872 173.059 178.874 173.002 178.867C172.234 178.802 171.465 178.736 170.71 178.666C169.836 178.592 169.184 179.833 170.136 179.913C170.778 179.97 171.42 180.028 172.067 180.076C172.1 180.374 172.212 180.656 172.465 180.672C177.036 181.079 181.597 181.47 186.17 181.822C180.285 181.476 174.418 180.993 168.575 180.466C167.34 180.354 167.443 182.451 168.345 182.528C169.044 182.592 169.743 182.656 170.446 182.711C170.401 182.845 170.376 182.979 170.354 183.125C169.874 183.083 169.407 183.036 168.928 182.994C168.335 182.939 168.097 183.413 168.065 184.003C167.379 183.935 166.696 183.879 166.01 183.811C165.587 183.775 165.4 184.017 165.357 184.377C164.496 184.298 163.635 184.219 162.781 184.144C162.407 184.11 161.248 185.306 161.792 185.359C163.084 185.477 164.368 185.592 165.652 185.707C165.655 185.72 165.658 185.732 165.666 185.736C165.086 185.677 164.5 185.626 163.915 185.575C162.932 185.479 162.898 186.27 163.204 187.01C162.42 186.937 161.644 186.867 160.86 186.794C160.527 186.759 160.025 187.47 160.033 187.777C160.043 188.186 160.599 188.537 160.94 188.576C161.809 188.659 162.691 188.737 163.56 188.82C163.576 188.862 163.593 188.905 163.614 188.938C162.823 188.86 162.039 188.787 161.247 188.71C160.703 188.657 160.321 189.261 160.485 189.737C160.526 189.859 160.612 189.993 160.726 190.129C160.182 190.077 159.638 190.025 159.094 189.972C158.57 189.919 158.353 190.73 158.447 191.081C158.593 191.605 159.67 191.962 160.199 192.041C160.358 192.312 160.693 192.573 161.098 192.802C160.066 192.703 159.043 192.609 158.011 192.51C157.495 192.461 156.788 192.572 156.858 193.339C156.897 193.751 157.397 194.006 157.915 194.158C157.846 194.28 157.819 194.434 157.852 194.642C157.877 194.812 158.007 194.957 158.185 195.07C158.128 195.064 158.079 195.061 158.022 195.055C157.527 195.005 156.116 194.668 155.902 195.582C155.708 196.37 156.826 196.512 157.434 196.575C157.297 196.64 157.191 196.721 157.111 196.826C156.543 197.671 157.513 197.896 158.093 197.956C175.167 199.663 192.251 200.837 209.765 199.792C220.023 199.185 230.363 197.936 240.613 195.404C236.06 196.995 231.453 198.109 226.786 198.743C218.208 200.081 209.717 200.767 201.278 200.985C200.789 200.995 200.301 201.005 199.812 201.014C199.303 201.024 198.794 201.035 198.29 201.036C185.641 201.099 173.155 200.178 160.691 198.953C160.248 198.952 159.814 198.989 159.371 199.044C159.144 199.018 158.912 199.001 158.685 198.976C157.694 198.876 155.597 198.953 154.671 199.594C154.144 199.955 153.87 200.725 154.69 200.806C162.967 201.64 171.285 202.382 179.664 202.785C192.759 203.5 205.988 203.463 219.315 201.791C229.78 200.481 240.187 198.49 250.47 194.92C261.373 191.126 273.007 185.468 280.817 175.875C281.997 174.802 283.14 173.688 284.215 172.517C286.938 169.533 288.872 166.025 290.46 162.396C290.597 162.083 290.401 161.647 290.122 161.426ZM253.038 93.0656C252.76 93.0589 252.489 93.056 252.206 93.058C253.578 92.7681 254.957 92.5377 256.332 92.3843C255.32 92.5541 254.309 92.7581 253.306 93.0002C253.219 93.012 253.13 93.0451 253.038 93.0656ZM195.874 53.1352C194.405 52.7241 192.928 52.4329 191.436 52.2234C190.98 52.1037 190.52 51.9926 190.049 51.899C192.546 51.9688 194.976 52.3187 197.306 52.9882C199.342 53.8906 201.256 55.0453 203.011 56.4108C202.996 56.4028 202.972 56.3909 202.957 56.3829C200.807 54.985 198.472 53.8631 195.874 53.1352ZM255.227 83.4411C256.252 83.48 257.282 83.5102 258.315 83.5531C257.159 83.7282 256.011 83.9415 254.873 84.1929C253.709 84.3641 252.549 84.5821 251.377 84.839L255.227 83.4411ZM295.702 118.366C295.005 116.09 294.125 113.889 293.139 111.77L293.879 112.776C294.137 113.21 294.385 113.662 294.633 114.114C295.416 115.861 296.12 117.59 296.693 119.354C296.83 119.985 296.971 120.608 297.062 121.249C297.026 121.455 296.997 121.666 296.966 121.863C296.579 120.678 296.162 119.51 295.702 118.366ZM264.885 90.3254C264.292 90.1809 263.685 90.0624 263.085 89.948C265.016 89.9875 266.937 90.1683 268.816 90.53C270.313 90.8205 271.738 91.2204 273.105 91.7035C273.5 91.8597 273.903 92.0198 274.298 92.176C274.519 92.266 274.732 92.3521 274.953 92.4421C275.928 93.0508 276.91 93.6635 277.885 94.2721C278.523 94.7097 279.134 95.1781 279.722 95.6687C279.084 95.3209 278.435 94.9905 277.759 94.691C277.459 94.5612 277.155 94.4401 276.856 94.3102C273.189 92.2854 269.137 90.9409 264.885 90.3254ZM295.762 111.813C295.244 110.628 294.696 109.462 294.125 108.317C294.3 108.631 294.487 108.94 294.657 109.262C294.787 109.497 294.9 109.723 295.029 109.957C295.279 110.567 295.523 111.186 295.762 111.813ZM224.292 89.9411C224.288 89.8942 224.284 89.8474 224.273 89.7966C224.212 89.406 224.13 89.0162 224.064 88.6343C224.129 88.9479 224.201 89.2655 224.257 89.5751C224.314 89.8847 224.357 90.1991 224.409 90.5174C224.374 90.3309 224.335 90.1316 224.292 89.9411ZM220.967 100.167C220.923 100.246 220.87 100.32 220.818 100.395C220.804 100.331 220.802 100.263 220.788 100.199L220.796 100.203C220.862 100.192 220.913 100.173 220.967 100.167ZM291.254 97.4408C292.101 98.6136 292.948 99.7864 293.795 100.959C294.5 102.026 295.16 103.138 295.803 104.262C296.07 104.859 296.334 105.477 296.586 106.099C297.292 107.807 297.954 109.503 298.521 111.241C297.102 107.912 295.382 104.722 293.482 101.833C292.212 99.8948 290.799 98.0854 289.273 96.421C289.938 96.7594 290.597 97.1065 291.254 97.4408ZM214.185 57.0347C214.818 57.8738 215.459 58.7169 216.087 59.5647C216.343 59.931 216.573 60.3068 216.824 60.6818C218.183 63.1935 219.376 65.801 220.474 68.4718C221.519 71.0037 222.292 73.5883 223.072 76.2324C220.954 69.3678 217.984 62.744 213.468 57.501C211.657 55.3989 209.652 53.6029 207.447 52.1089C207.234 51.9332 207.018 51.7447 206.793 51.5737C209.796 52.6539 212.267 54.4625 214.185 57.0347ZM213.971 67.8116C214.115 68.0198 214.259 68.2279 214.398 68.4448C215.056 69.4538 215.653 70.4992 216.232 71.5581C216.822 72.8471 217.372 74.1718 217.876 75.5068C218.109 76.1985 218.342 76.8901 218.554 77.5825C219.578 80.9009 220.43 84.2896 221.117 87.74C220.829 86.6831 220.527 85.6311 220.201 84.5885C219.75 82.8758 219.281 81.1766 218.723 79.5106C217.941 77.1355 217.019 74.7785 215.946 72.491C215.365 70.9027 214.703 69.3302 213.971 67.8116ZM221.124 98.3934C220.965 98.6043 220.8 98.8239 220.617 99.0228C220.682 98.3927 220.805 97.7477 220.89 97.1168C220.934 96.8248 220.961 96.5804 220.997 96.3741C221.073 97.0417 221.107 97.7108 221.124 98.3934ZM283.348 88.1345C281.119 86.7524 278.752 85.6146 276.204 84.7439C275.47 84.4935 274.716 84.278 273.96 84.084C274.462 84.1038 274.977 84.1189 275.479 84.1388C277.7 84.8764 279.888 85.8671 281.873 87.0576C282.38 87.406 282.87 87.7679 283.348 88.1345ZM207.036 48.8105C200.907 45.3183 193.589 44.2314 186.028 45.3013C184.769 45.4802 183.509 45.7148 182.245 45.9922C179.407 46.4004 176.547 47.0785 173.728 47.9685C184.181 44.1698 196.226 42.8783 205.124 47.6345C205.619 47.898 206.1 48.1876 206.572 48.4733C206.73 48.587 206.879 48.6968 207.036 48.8105ZM179.957 54.9713C179.421 54.957 178.881 54.9514 178.339 54.9672C180.777 54.4115 183.225 54.0518 185.638 53.9326C183.744 54.1479 181.849 54.5084 179.957 54.9713ZM219.342 103.665C219.341 103.72 219.352 103.771 219.351 103.826C219.308 103.849 219.268 103.885 219.225 103.908C219.223 103.84 219.226 103.763 219.237 103.69C219.271 103.684 219.309 103.67 219.342 103.665ZM217.007 106.834C217.063 106.84 217.12 106.847 217.185 106.857C217.187 106.926 217.175 106.999 217.169 107.063C217.108 107.099 217.055 107.14 216.997 107.189C217.005 107.069 216.999 106.954 217.007 106.834ZM280.459 98.8525C280.088 98.4948 279.711 98.1458 279.33 97.8055C279.403 97.854 279.481 97.8938 279.55 97.951C281.293 99.176 282.916 100.632 284.402 102.242C283.332 101.214 282.197 100.266 281 99.4089C280.829 99.2317 280.647 99.0377 280.459 98.8525ZM283.747 169.571C283.751 169.314 283.597 168.944 283.394 168.717C284.795 167.431 286.138 166.07 287.402 164.636C286.266 166.36 285.056 168.002 283.747 169.571ZM233.154 90.3986C233.888 90.0085 234.629 89.6224 235.363 89.2322C236.719 88.5074 238.099 87.8841 239.492 87.3244C236.585 88.7087 233.724 90.2622 230.933 91.9412C230.737 92.0552 230.832 92.5641 231.006 92.9334C229.981 93.535 228.96 94.1493 227.944 94.789C228.028 94.551 228.12 94.317 228.24 94.0862C228.391 93.7135 228.515 93.3501 228.617 92.9749C230.118 92.0653 231.633 91.2193 233.154 90.3986ZM214.854 77.5402C212.385 70.5988 208.867 63.9654 203.731 59.0913C205.809 60.6327 207.681 62.4849 209.325 64.5804C210.874 66.5599 212.22 68.6835 213.399 70.9243C213.204 70.9486 213.053 70.9499 213.015 70.8744C213.785 72.2551 214.483 73.6554 215.146 75.0827C215.613 76.4104 216.05 77.7564 216.454 79.1078C217.762 83.56 218.963 88.2382 219.302 93.0508C219.291 92.9999 219.279 92.9491 219.271 92.911C219.242 92.784 219.027 92.7194 218.776 92.6817C217.946 87.4731 216.575 82.3827 214.854 77.5402ZM265.284 93.4833C263.522 93.271 261.75 93.2 259.968 93.236C263.279 92.9341 266.579 93.0083 269.84 93.5452C271.631 94.2219 273.345 95.0722 274.962 96.0755C271.923 94.7747 268.68 93.8871 265.284 93.4833ZM293.448 121.285C291.646 115.694 289.135 110.146 285.833 105.319C286.992 106.617 288.081 108.003 289.082 109.456C290.013 110.818 290.915 112.232 291.766 113.699C292.45 115.25 293.139 116.791 293.823 118.341C294.333 120.983 294.838 123.633 295.348 126.274C295.39 126.913 295.393 127.566 295.373 128.208C295.334 128.008 295.296 127.809 295.245 127.615C295.207 127.449 294.973 127.24 294.748 127.069C294.462 125.081 294.041 123.137 293.448 121.285Z" fill="#FFDDA5"/>
<path d="M110.063 31.095C109.525 29.0824 108.743 27.1088 107.652 25.2497C107.073 24.2596 106.434 23.3138 105.737 22.4169C104.468 20.19 102.836 18.1539 100.922 16.4353C100.282 15.8615 99.6229 15.3311 98.9395 14.8346C98.8357 14.7531 98.7404 14.6679 98.6366 14.5864C97.4669 13.6855 96.218 12.9129 94.932 12.2497C92.7928 11.1424 90.2741 10.6282 88.0591 10.1412C86.2918 9.79125 84.5186 9.44979 82.7502 9.11777C81.52 8.9986 80.3022 8.98428 79.099 9.07953C76.999 9.19146 74.9694 9.5623 73.0767 10.3017C67.1661 12.2173 63.1561 17.2915 61.2617 23.3963C60.4139 26.1374 59.8402 28.9594 59.5409 31.9029C59.4836 32.4684 59.4306 33.032 59.3841 33.5984C59.2557 33.5396 59.1273 33.4807 59.0031 33.42C58.8485 33.1986 58.7779 33.1314 58.5101 32.9721C57.9519 32.7507 57.3998 32.5208 56.847 32.2796C56.1755 31.9985 55.5051 31.6994 54.8407 31.3918C49.0783 28.8753 42.6555 26.5951 36.7303 27.269C35.2442 27.4381 33.7952 27.7707 32.4363 28.2896C30.2886 28.9453 28.4352 30.0446 26.8242 31.5874C24.7666 33.5615 23.432 35.968 22.2835 38.6574C21.4371 40.643 20.8219 42.9087 20.4542 45.1221C20.0746 47.3931 20.0129 49.6385 20.6002 52.0299C20.6312 52.1612 21.3913 52.1707 21.3835 52.1451C21.084 50.5892 20.9521 49.1384 20.9905 47.606C21.037 47.0395 21.1075 46.4797 21.1853 45.9341C21.1047 46.899 21.0941 47.8791 21.1745 48.9057C21.1795 48.9964 21.2507 49.075 21.3382 49.1347C21.3284 49.3886 21.3187 49.6426 21.3241 49.8957C21.3415 51.3452 21.5593 52.7112 21.9632 54.0871C21.9731 54.1872 21.9853 54.292 21.9952 54.3921C22.1886 55.9025 22.5421 57.3821 23.1853 58.8313C23.4073 59.2955 23.6293 59.7597 23.8513 60.2239C23.9782 60.4111 24.1092 60.5965 24.2445 60.7801C24.3486 61.0239 24.4587 61.2593 24.5815 61.4891C24.6075 61.5704 24.6336 61.6516 24.6621 61.7376C25.0728 62.8841 25.5711 63.8985 26.2055 64.8755C26.5435 65.526 26.9188 66.1483 27.329 66.7376C27.3338 66.747 27.3453 66.7593 27.3544 66.7669C27.8171 67.7218 28.3724 68.6353 29.0223 69.5009C29.2229 69.8121 29.4403 70.1157 29.6638 70.4109C30.7899 72.3995 32.375 74.1021 34.1578 75.5947C37.8478 78.6812 42.1996 80.5842 46.5371 81.9131C50.6286 83.1658 54.7868 84.0231 58.9204 84.63C63.8697 85.3551 68.7692 85.5683 73.6837 85.7399C74.2198 85.7564 74.1885 84.9168 73.7476 84.9044C69.444 84.7739 65.1643 84.6095 60.831 84.0974L57.2693 83.6477C55.0514 83.2258 52.8377 82.802 50.6173 82.3754C49.0283 81.9693 47.4275 81.4696 45.8429 80.8698C46.8211 81.1942 47.804 81.4875 48.7809 81.7486C51.9784 82.5988 55.1675 83.1798 58.3834 83.5805C63.8416 84.2587 69.2662 84.7196 74.6981 84.9218C74.8926 84.928 75.0277 84.1304 74.6368 84.1247L70.1754 84.0297C67.7645 84.0597 65.343 83.897 62.9096 83.5595C66.1162 83.8309 69.3243 83.9738 72.5281 84.078C72.7485 84.0842 72.8416 83.9324 72.8406 83.7586C73.1846 83.7737 73.5303 83.7821 73.8743 83.7971C74.2935 83.8075 74.2924 82.9662 73.7587 82.9545C73.1775 82.9408 72.5896 82.9242 72.0059 82.9058C72.0077 82.8992 72.0113 82.886 72.0131 82.8794C72.3438 82.8887 72.6769 82.9027 73.0118 82.9102C73.3533 82.9204 73.4068 82.5599 73.2683 82.2791C73.6833 82.2914 74.0941 82.3056 74.5066 82.3133C75.0252 82.3259 75.0496 81.5545 74.5502 81.5391C73.4612 81.5137 72.374 81.4818 71.2844 81.4451C71.2825 81.4111 71.2764 81.379 71.2637 81.344C71.6854 81.3592 72.1112 81.3725 72.5328 81.3877C73.0647 81.406 73.0731 80.5024 72.5587 80.4879C72.2347 80.4814 71.9082 80.4703 71.5859 80.4572C71.7511 80.2442 71.7853 79.8864 71.4354 79.8799C66.5577 79.7498 61.6974 79.5424 56.7832 78.9062C55.0524 78.7083 53.3196 78.4359 51.5849 78.0889C49.6153 77.7479 47.6586 77.2502 45.7233 76.592C43.2747 75.8607 40.7897 75.018 38.4479 73.7979C37.2049 72.9761 36.0141 72.044 34.9446 70.9649C36.3581 71.7862 37.8225 72.515 39.3285 73.2137C39.4105 73.2526 39.5575 73.2567 39.693 73.2485C40.8734 73.7963 42.0766 74.2874 43.2814 74.7314C52.7066 78.1983 62.4715 78.7502 71.9469 79.0596C72.1197 79.0638 72.7193 78.5875 72.3434 78.5809C66.8599 78.4598 61.3804 78.2555 55.8467 77.4601C53.6784 77.1554 51.5135 76.7563 49.3539 76.2562C47.16 75.8004 45.0102 75.0869 42.9008 74.1289C38.9022 72.9973 35.373 70.7507 32.2933 67.4211C32.4404 67.4659 32.5874 67.5106 32.6852 67.6006C32.4161 67.378 32.159 67.1385 31.9062 66.8971C31.6613 66.4489 31.4448 66.0055 31.256 65.5555C31.446 65.7146 31.6535 65.8776 31.5533 65.7423C31.3781 65.5011 31.2072 65.258 31.0338 65.0101C30.6051 63.8892 30.2998 62.7364 30.0262 61.494C29.9484 61.1397 29.8241 61.8976 29.8302 61.9704C29.8616 62.3047 29.8948 62.6325 29.9322 62.9583C29.913 62.9611 29.8913 62.9592 29.8786 62.9648C29.8618 62.9723 29.8522 62.994 29.8378 63.0063C29.5782 61.5486 29.4752 60.0734 29.4396 58.5681C29.4378 58.5747 29.4294 58.5785 29.4276 58.5851C29.1738 59.0698 28.9866 59.3913 28.845 59.6809C28.775 58.4116 28.7941 57.1548 28.8308 55.9425C28.8381 55.6837 28.5487 55.836 28.5019 55.9265C28.4941 55.9416 28.4863 55.9567 28.4785 55.9718C28.5028 54.9275 28.5748 53.8852 28.6859 52.8486C28.6948 52.775 28.643 52.4614 28.5482 52.6604C28.3647 53.0499 28.1668 53.4517 27.9712 53.8582C27.9952 53.4702 28.0239 53.0916 28.0677 52.7121C28.1375 52.4139 28.214 52.1185 28.3014 51.8241C28.327 51.7023 28.2609 51.7551 28.1762 51.8625C28.358 50.6609 28.6164 49.4774 28.9078 48.2675C28.9276 48.1949 28.9212 48.0409 28.9131 47.8936C29.0112 47.5596 29.1117 47.2303 29.2164 46.8991C29.2398 46.8132 29.1885 46.5109 29.0932 46.6986C28.8082 47.2437 28.528 47.7982 28.2612 48.3585C28.1772 48.5179 28.089 48.6791 28.005 48.8385C27.9621 48.7647 27.9114 48.7467 27.8791 48.8656C27.8187 49.0609 27.7559 49.2515 27.6912 49.4487C27.5412 49.742 27.3979 50.0381 27.2545 50.3343C27.4268 49.4272 27.6406 48.5307 27.8965 47.656C28.5545 45.4234 29.5226 43.4532 30.7028 41.5336C30.77 41.4223 30.8676 40.8446 30.8514 40.8635C30.2257 41.4908 29.6585 42.1618 29.1372 42.8819C30.1555 40.7267 31.5774 38.9257 33.4054 37.4836C33.5744 37.3386 33.5108 36.8908 33.6828 36.7619C33.0237 37.2532 32.3875 37.7691 31.7767 38.3143C31.4526 38.5401 31.1392 38.7669 30.8367 38.9947C31.3046 38.3622 31.8111 37.7648 32.372 37.2128C32.5144 37.0564 32.317 36.5291 32.4311 36.4085C31.446 37.4051 30.4826 38.4037 29.6707 39.5669C30.3482 38.3939 31.1404 37.3033 32.0551 36.3207C33.7949 35.5856 35.5322 34.8457 37.2719 34.1107C38.6573 33.8761 40.0913 33.8579 41.5316 33.953C46.0296 34.2408 50.5397 35.8061 54.8369 37.7742C56.4574 38.5147 58.2641 39.3057 59.7257 40.4132C60.0991 40.688 60.4622 40.9731 60.8176 41.2733C60.8351 41.2771 60.8465 41.2894 60.8622 41.2998C60.8763 41.3981 60.8903 41.4963 60.8935 41.5936C61.0023 41.7657 61.1495 41.8917 61.3334 41.978C61.4076 42.0321 61.4793 42.0407 61.5497 42.0267C61.5758 42.108 61.6019 42.1893 61.6069 42.2799C61.6202 42.3262 61.6311 42.3678 61.6463 42.4075C60.9106 41.9808 60.1617 41.589 59.3997 41.232C59.2357 41.1542 58.8089 41.5535 58.7263 41.5033C59.9914 42.2165 61.5895 42.9031 62.5802 44.0812C62.5691 44.5448 62.5751 44.5363 62.9383 45.0943C63.0089 45.2022 63.1126 45.243 63.2397 45.2386C63.2904 45.2973 63.3369 45.3578 63.39 45.4212C63.3359 45.7299 63.3801 45.8669 63.6116 46.2688C63.7808 46.5591 64.2108 46.5299 64.6147 46.3789C64.618 46.5168 64.6279 46.6575 64.6354 46.7935C64.5674 46.8528 64.4971 46.9074 64.4334 46.9649C64.3595 47.0733 64.3513 47.1988 64.4022 47.3387C64.4415 47.4257 64.4833 47.5174 64.5226 47.6044C64.6061 47.7877 64.8364 47.8941 65.1153 47.9439C65.1266 48.1479 65.1138 48.3452 65.0551 48.5339C65.1762 48.538 65.2973 48.542 65.4141 48.548C65.4088 48.6084 65.4119 48.6651 65.4139 48.7397C65.6021 48.8648 65.7673 48.9653 65.9319 49.0545C65.9372 49.2669 65.9153 49.4567 65.8517 49.5953C65.8692 49.5991 65.8867 49.603 65.9017 49.6021C65.8796 49.67 65.8822 49.7559 65.9252 49.8703C66.0317 50.1595 66.6981 50.5417 67.0493 50.6115C67.0242 50.9769 67.0099 51.3432 67.004 51.7058C66.9954 52.2147 67.574 52.4154 67.9599 52.6033C68.2107 52.7295 68.5586 52.9344 68.8369 52.9322C68.8104 52.9614 68.8791 52.954 69.0494 52.9129C69.0777 52.8771 69.1035 52.8365 69.1317 52.8007C69.142 52.7904 69.1546 52.7847 69.1624 52.7696C69.1582 52.7715 69.154 52.7734 69.1497 52.7753C69.1978 52.7074 69.2525 52.6424 69.2963 52.5764C69.316 52.5037 69.3237 52.4074 69.3265 52.3017C69.512 52.3409 69.6843 52.3337 69.7612 52.2414C70.049 51.904 70.0091 51.5328 69.972 51.0559C69.8343 49.1084 69.7286 47.1932 69.7361 45.2565C69.7353 45.1639 69.6086 45.0579 69.5364 45.1191C69.4703 45.1718 69.4229 45.251 69.3869 45.3425C69.3652 44.7135 69.341 44.0799 69.3367 43.4547C69.3377 43.3556 69.3202 43.3518 69.3126 43.4481C69.2584 44.0296 69.2126 44.6074 69.1692 45.1899C69.1753 43.7357 69.2337 42.293 69.3049 40.8447C69.317 40.5954 69.0427 40.7468 69.0001 40.8354C68.8268 41.2146 68.693 41.4891 68.5815 41.7362C68.6815 39.9498 68.858 38.1816 69.1152 36.4297C69.1288 36.3249 69.0154 36.2651 68.9711 36.3604C68.8055 36.6839 68.6417 37.0008 68.4804 37.3224C68.6523 35.98 68.8616 34.65 69.139 33.3419C69.1426 33.3287 69.1834 32.7009 69.0479 32.982C68.8212 33.4488 68.5987 33.9138 68.3828 34.3816C68.4676 34.0013 68.5589 33.6238 68.657 33.2492C68.7137 33.0265 68.4501 33.1382 68.4027 33.2174C68.3751 33.2645 68.3475 33.3117 68.3175 33.3541C68.5709 32.1205 68.8768 30.8985 69.255 29.6964C69.2622 29.6699 69.2657 29.6161 69.2686 29.551C69.2949 29.4812 69.3189 29.4066 69.3428 29.3321C69.4398 29.0566 69.2589 28.6322 69.0391 28.9914C68.9917 29.0706 68.9467 29.1545 68.8993 29.2337C68.9962 28.9176 69.0932 28.6016 69.2009 28.2864C69.2794 28.0657 69.0346 27.6581 69.1167 27.4647C68.5665 28.7551 68.003 30.0804 67.5258 31.4428C67.5933 31.1805 67.6584 30.9134 67.7325 30.6539C68.5364 27.8976 69.7229 25.5455 71.3536 23.3031C71.4539 23.1655 71.5648 22.6341 71.5913 22.6049C70.8808 23.2991 70.2137 23.9972 69.6008 24.7407C69.6285 24.6935 69.6494 24.6435 69.677 24.5964C70.8887 22.4653 72.0652 21.1047 73.9972 19.5117C74.1354 19.3978 74.2121 18.8701 74.2662 18.8343C73.3376 19.4865 72.4452 20.1689 71.6059 20.9147C71.4044 21.0568 71.2072 21.197 71.0123 21.3419C71.6118 20.5521 72.2746 19.8153 73.0129 19.1552C74.9024 17.4591 77.1455 16.3429 79.5727 15.7077C80.0315 15.654 80.4892 15.6183 80.9499 15.5987C83.5877 15.4966 86.2841 15.7515 88.9638 16.3681C92.6709 17.2233 96.4017 18.5091 99.4547 21.4732C100.492 22.4795 101.405 23.5762 102.212 24.7491C102.505 25.2399 102.765 25.7391 103.017 26.2421C102.917 26.1767 102.834 26.1264 102.825 26.1188C102.976 26.3128 103.11 26.5142 103.251 26.7186C103.547 27.3586 103.814 28.0117 104.047 28.6686C104.243 29.6492 104.391 30.6345 104.479 31.6167C104.707 34.1451 104.511 36.5611 104.233 39.0013C104.256 38.7937 104.49 38.5327 104.559 38.3336C104.786 37.6864 104.998 37.0287 105.188 36.3578C105.18 36.7969 105.156 37.2369 105.133 37.6768C104.999 38.8399 104.812 39.9914 104.588 41.1306C104.534 41.2476 104.488 41.3608 104.434 41.4777C104.432 41.6354 104.424 41.7903 104.424 41.9527C104.273 42.6586 104.118 43.3665 103.949 44.0686C103.92 44.1922 104.102 44.2852 104.191 44.2977C104.035 45.0235 103.872 45.7464 103.697 46.457C103.641 46.6911 103.774 46.7886 103.874 46.5405C103.91 46.449 103.949 46.3623 103.985 46.2708C103.599 48.3066 102.973 50.2286 102.091 52.0328C101.413 53.6298 100.655 55.1813 99.8248 56.6835C99.7744 56.7872 99.7132 56.89 99.8566 56.948C99.976 56.9993 100.169 56.6173 100.208 56.5532C100.631 55.8828 101.059 55.1927 101.489 54.4959C100.793 56.0372 100.045 57.549 99.27 59.0268C99.2424 59.0739 99.2203 59.1419 99.2006 59.2145C95.9975 64.794 92.1291 69.8921 88.0471 74.7951C87.9198 74.9506 87.7591 75.3242 87.6798 75.4118C92.4611 69.9647 97.0939 64.3283 100.976 58.1037C96.5945 66.6179 90.5853 73.9421 84.2687 80.8576C83.4646 81.7328 82.6539 82.6052 81.8407 83.4729C81.8185 83.5003 81.8005 83.5257 81.7801 83.5464C81.5132 83.8338 81.2464 84.1211 80.9814 84.4019C80.6779 84.7288 81.0376 85.3812 81.3675 85.0251C81.5917 84.7858 81.8158 84.5465 82.0376 84.3025C82.1823 84.3831 82.3444 84.4269 82.4297 84.3308C84.0254 82.6266 85.6101 80.9213 87.181 79.199C85.2077 81.4491 83.1776 83.649 81.1354 85.8253C80.7033 86.285 81.6827 86.905 81.9964 86.5677C82.241 86.3077 82.4856 86.0477 82.7278 85.7829C82.7743 85.8435 82.8268 85.8955 82.886 85.9505C82.7189 86.1295 82.5536 86.3019 82.3865 86.4809C82.1786 86.7013 82.3194 86.9462 82.5764 87.1451C82.3336 87.3986 82.0974 87.6548 81.8546 87.9082C81.708 88.0665 81.7595 88.2177 81.9091 88.3484C81.6074 88.6687 81.3057 88.989 81.0082 89.3075C80.8778 89.4469 81.0602 90.2887 81.252 90.0871C81.7045 89.6066 82.1528 89.128 82.6012 88.6494C82.6078 88.6523 82.6144 88.6552 82.6187 88.6533C82.4125 88.8671 82.2088 89.0857 82.005 89.3043C81.6583 89.6679 82.0051 89.9313 82.4342 90.0419C82.1589 90.333 81.8879 90.6222 81.6126 90.9133C81.4942 91.0358 81.6601 91.4611 81.8012 91.5549C81.9894 91.68 82.3198 91.5675 82.4425 91.4432C82.7484 91.121 83.0561 90.7922 83.362 90.47C83.3861 90.4767 83.4102 90.4833 83.4319 90.4853C83.1524 90.7783 82.8771 91.0694 82.5977 91.3624C82.406 91.564 82.5608 91.9071 82.8266 91.9918C82.8947 92.0137 82.9815 92.0215 83.0784 92.0189C82.8867 92.2205 82.695 92.4221 82.5033 92.6237C82.3176 92.8168 82.617 93.1594 82.8045 93.2325C83.0866 93.339 83.5804 93.0201 83.7794 92.8327C83.9511 92.8548 84.1726 92.8025 84.4007 92.7124C84.0377 93.0949 83.6789 93.4755 83.3159 93.858C83.1344 94.0492 82.9664 94.368 83.3342 94.5813C83.5326 94.6961 83.8022 94.5759 84.0308 94.4159C84.0646 94.4821 84.1262 94.5417 84.2305 94.5939C84.3149 94.6376 84.4203 94.6312 84.5262 94.5956C84.5058 94.6163 84.4895 94.6352 84.4691 94.6559C84.2936 94.8386 83.7061 95.298 84.0526 95.6719C84.349 95.9984 84.7583 95.5952 84.9747 95.371C84.9616 95.4465 84.9654 95.5145 84.9884 95.5797C85.1948 96.0741 85.5958 95.7559 85.802 95.5421C91.8458 89.2359 97.6513 82.7573 102.587 75.4069C105.48 71.1033 108.108 66.564 110.129 61.6569C109.442 63.9838 108.523 66.1817 107.369 68.2525C105.325 72.1133 103.012 75.7337 100.506 79.1855C100.359 79.3844 100.212 79.5833 100.066 79.7821C99.9133 79.9895 99.7608 80.1969 99.6058 80.3995C95.7284 85.49 91.4569 90.2047 87.0545 94.8152C86.9175 94.9924 86.8005 95.1781 86.6882 95.3733C86.6065 95.4562 86.5272 95.5439 86.4454 95.6267C86.0944 95.9923 85.4818 96.8576 85.4854 97.4308C85.4861 97.7556 85.7494 98.1085 86.0391 97.8051C88.9715 94.7501 91.8754 91.6496 94.6448 88.4175C99.0114 83.3933 103.079 78.0785 106.439 72.2086C109.078 67.6004 111.392 62.8007 112.954 57.5524C114.606 51.9852 115.642 45.5374 113.719 39.3816C113.598 38.5702 113.448 37.7605 113.251 36.9603C112.744 34.9279 111.755 33.0463 110.606 31.2654C110.507 31.1122 110.249 31.053 110.063 31.095ZM67.7222 24.4056C67.6333 24.5149 67.5486 24.6223 67.4621 24.7364C67.7547 24.095 68.0762 23.4697 68.4316 22.87C68.1958 23.3293 67.9757 23.799 67.7755 24.2773C67.7539 24.3159 67.7414 24.3622 67.7222 24.4056ZM32.0278 34.7304C31.3885 35.1897 30.8011 35.6896 30.2456 36.2218C30.0508 36.3667 29.8584 36.5164 29.6708 36.6755C30.4734 35.6964 31.3817 34.8327 32.4036 34.11C33.4402 33.5781 34.5531 33.1748 35.7119 32.9019C35.7035 32.9057 35.6909 32.9113 35.6824 32.9151C34.3872 33.3359 33.1591 33.9183 32.0278 34.7304ZM64.0492 20.4929C64.3833 20.0943 64.715 19.6909 65.0532 19.2905C64.7754 19.8091 64.5175 20.3363 64.2795 20.8721C63.9975 21.3927 63.7378 21.9265 63.492 22.4773L64.0492 20.4929ZM92.3284 15.2801C91.085 14.8417 89.8188 14.5005 88.5565 14.2274L89.2395 14.2479C89.5155 14.2817 89.7962 14.3249 90.077 14.368C91.1086 14.6048 92.1071 14.8678 93.0811 15.1941C93.4084 15.3384 93.7334 15.4781 94.0511 15.6441C94.1332 15.7236 94.2195 15.8013 94.2991 15.876C93.644 15.6572 92.9877 15.4564 92.3284 15.2801ZM70.1422 18.7921C69.8938 18.9841 69.6527 19.1903 69.4159 19.3947C70.0299 18.6332 70.7048 17.92 71.4485 17.2807C72.0419 16.7722 72.6626 16.3271 73.3032 15.9312C73.4957 15.8221 73.6925 15.7111 73.885 15.6021C73.9939 15.5419 74.0985 15.4836 74.2074 15.4235C74.7834 15.2247 75.3636 15.024 75.9396 14.8253C76.3345 14.7073 76.7348 14.61 77.1382 14.5289C76.7837 14.6753 76.4341 14.8312 76.09 15.0079C75.939 15.0868 75.7904 15.1705 75.6393 15.2495C73.592 16.0811 71.7334 17.2814 70.1422 18.7921ZM89.3861 13.1898C88.6907 13.0238 87.9942 12.8757 87.3007 12.7437C87.4965 12.7725 87.6941 12.7947 87.8923 12.8282C88.0381 12.8503 88.1755 12.8761 88.3213 12.8982C88.6738 12.9907 89.0288 13.0879 89.3861 13.1898ZM57.4342 34.944C57.4119 34.9307 57.3896 34.9174 57.3631 34.906C57.1677 34.8073 56.9664 34.7171 56.7735 34.6232C56.935 34.6963 57.1008 34.7675 57.2582 34.8425C57.4155 34.9175 57.5711 34.9991 57.7308 35.0788C57.6356 35.0342 57.5337 34.9867 57.4342 34.944ZM61.0284 39.5014C61.0502 39.5439 61.0677 39.5884 61.0853 39.6328C61.0521 39.6185 61.0208 39.5977 60.9876 39.5834L60.9918 39.5816C61.0074 39.5514 61.0146 39.525 61.0284 39.5014ZM81.4995 10.465C82.291 10.4953 83.0825 10.5256 83.874 10.5558C84.574 10.6095 85.28 10.6953 85.9867 10.7924C86.3386 10.8735 86.6996 10.9622 87.0587 11.0575C88.0482 11.313 89.0191 11.5826 89.9798 11.9032C88.037 11.4225 86.0644 11.1061 84.1723 10.957C82.9043 10.8547 81.6503 10.8507 80.4272 10.9374C80.7853 10.7777 81.1457 10.6228 81.4995 10.465ZM39.444 28.6193C40.0186 28.6302 40.5975 28.6392 41.1745 28.6547C41.419 28.6676 41.66 28.6937 41.907 28.7113C43.4614 28.9588 45.0082 29.3025 46.5539 29.7048C48.0207 30.0842 49.4275 30.5891 50.8632 31.1101C47.107 29.7949 43.1969 28.8967 39.4335 29.0537C37.9242 29.117 36.4937 29.3543 35.1375 29.7674C34.9925 29.7972 34.8407 29.8243 34.6938 29.8607C36.1093 28.9973 37.6895 28.5772 39.444 28.6193ZM44.2478 32.1033C44.3864 32.1112 44.5249 32.119 44.6659 32.1317C45.3249 32.1862 45.9816 32.2765 46.6389 32.3783C47.4035 32.5482 48.1719 32.7456 48.9306 32.9646C49.3151 33.0893 49.6996 33.2139 50.0782 33.347C51.8936 33.9832 53.6881 34.71 55.4593 35.5227C54.8927 35.305 54.3243 35.094 53.7523 34.8962C52.8391 34.537 51.9265 34.1892 51.0014 33.8876C49.6869 33.4518 48.337 33.0784 46.9722 32.787C46.0748 32.5195 45.1601 32.2887 44.2478 32.1033ZM60.2755 38.8791C60.3215 39.0096 60.37 39.1447 60.4034 39.2808C60.1385 39.0563 59.885 38.8036 59.6262 38.5707C59.5079 38.4608 59.4059 38.3728 59.3238 38.2932C59.6489 38.4735 59.9619 38.6706 60.2755 38.8791ZM74.8531 10.6999C73.5404 11.1574 72.2955 11.7474 71.1153 12.4943C70.7754 12.7097 70.4453 12.944 70.1241 13.1859C70.2882 12.9908 70.454 12.7891 70.618 12.5941C71.637 11.9365 72.7603 11.3718 73.911 10.9516C74.2252 10.8579 74.5401 10.7756 74.8531 10.6999ZM33.5204 28.8918C30.0497 30.2478 27.2989 32.8387 25.4477 36.2072C25.1399 36.7683 24.8568 37.3474 24.5918 37.9416C23.8999 39.2081 23.3233 40.5683 22.8552 41.9789C24.3662 36.5907 27.5019 31.3548 32.3985 29.2876C32.6705 29.1721 32.9498 29.0708 33.2248 28.9714C33.3248 28.9442 33.4205 28.919 33.5204 28.8918ZM27.9428 41.6901C27.771 41.9003 27.6016 42.1152 27.4412 42.3376C27.943 41.1849 28.5364 40.0901 29.2276 39.0852C28.7402 39.9121 28.318 40.7855 27.9428 41.6901ZM62.1071 41.2557C62.1318 41.2737 62.1583 41.2851 62.1831 41.3031C62.1801 41.3276 62.1838 41.355 62.1808 41.3796C62.1495 41.3587 62.1157 41.3331 62.0861 41.3057C62.0939 41.2906 62.0993 41.2708 62.1071 41.2557ZM62.8181 43.1913C62.8386 43.1706 62.859 43.1499 62.8836 43.1273C62.915 43.1481 62.9446 43.1756 62.9717 43.1983C62.9694 43.2342 62.9713 43.2682 62.9756 43.3069C62.9237 43.2662 62.87 43.232 62.8181 43.1913ZM78.8044 15.2374C78.528 15.2736 78.254 15.3144 77.9825 15.36C78.027 15.346 78.0692 15.3272 78.1161 15.3179C79.208 15.0052 80.3671 14.8135 81.5534 14.7257C80.7586 14.8305 79.9795 14.9863 79.2229 15.1959C79.0898 15.2088 78.9459 15.2208 78.8044 15.2374ZM111.775 36.2191C111.66 36.1367 111.446 36.0814 111.28 36.0914C111.132 35.1241 110.931 34.1567 110.674 33.1976C111.102 34.1967 111.47 35.1995 111.775 36.2191ZM60.3773 31.5357C60.4277 31.1185 60.4822 30.6994 60.5326 30.2821C60.6237 29.5099 60.768 28.7605 60.9453 28.0253C60.6734 29.6271 60.4918 31.2641 60.3886 32.9125C60.3798 33.0268 60.639 33.1492 60.8595 33.196C60.815 33.7965 60.7771 34.3998 60.7524 35.0088C60.6709 34.9 60.5936 34.7893 60.5265 34.6683C60.4044 34.4904 60.2788 34.3258 60.1406 34.1669C60.193 33.2784 60.2785 32.4042 60.3773 31.5357ZM48.9163 34.8173C45.0176 33.6179 40.9339 32.9365 37.1453 33.4588C38.4835 33.1117 39.8986 32.9453 41.3531 32.9469C42.7257 32.9503 44.101 33.0802 45.4778 33.314C45.4285 33.3998 45.3823 33.4611 45.3365 33.4525C46.198 33.5792 47.0464 33.7409 47.896 33.9252C48.6403 34.1565 49.3835 34.4058 50.1188 34.6701C52.5346 35.5495 55.0193 36.5433 57.2988 37.9247C57.2723 37.9133 57.2457 37.9019 57.2258 37.8934C57.1595 37.8649 57.0639 37.9308 56.9695 38.0193C54.3595 36.7098 51.6362 35.654 48.9163 34.8173ZM71.6924 19.6278C71.0523 20.2674 70.4731 20.9553 69.9391 21.6811C70.8252 20.2584 71.8778 18.9588 73.127 17.8212C73.986 17.3162 74.8995 16.8973 75.8522 16.5654C74.3259 17.3737 72.9234 18.3938 71.6924 19.6278ZM92.9513 17.1041C89.8684 16.0635 86.5862 15.3207 83.3858 15.1221C84.3301 15.0668 85.2926 15.0673 86.2582 15.1245C87.1611 15.1805 88.0786 15.2649 89.0045 15.3862C89.9163 15.6009 90.8255 15.8109 91.7373 16.0256C93.0883 16.654 94.4417 17.2872 95.7928 17.9156C96.0943 18.1005 96.3904 18.3052 96.6739 18.5155C96.572 18.468 96.4702 18.4206 96.3665 18.3797C96.2803 18.3427 96.1135 18.3706 95.9666 18.407C94.9802 17.8947 93.9717 17.4503 92.9513 17.1041Z" fill="#FFDDA5"/>
</svg>
